<?xml version="1.0" encoding="UTF-8" standalone="no"?><svg xmlns="http://www.w3.org/2000/svg" xmlns:xlink="http://www.w3.org/1999/xlink" contentStyleType="text/css" height="235px" preserveAspectRatio="none" style="width:498px;height:235px;background:#FFFFFF;" version="1.1" viewBox="0 0 498 235" width="498px" zoomAndPan="magnify"><defs/><g><!--MD5=[f45f2220b0b110c1551a8318691639c0]
class Beverage--><g id="elem_Beverage"><rect codeLine="8" fill="#FFFFFF" height="95.0439" id="Beverage" rx="2.5" ry="2.5" style="stroke:#000000;stroke-width:1.0;" width="126" x="206.5" y="12"/><ellipse cx="234.35" cy="26" fill="#FFFFFF" rx="9" ry="9" style="stroke:#000000;stroke-width:1.0;"/><path d="M234.4594,21.3438 L233.3031,26.4219 L235.6313,26.4219 L234.4594,21.3438 Z M232.975,19.1094 L235.9594,19.1094 L239.3188,31.5 L236.8656,31.5 L236.1,28.4375 L232.8188,28.4375 L232.0688,31.5 L229.6313,31.5 L232.975,19.1094 Z " fill="#000000"/><text fill="#000000" font-family="Verdana" font-size="14" font-style="italic" lengthAdjust="spacing" textLength="65" x="249.65" y="31.5679">Beverage</text><line style="stroke:#000000;stroke-width:1.0;" x1="207.5" x2="331.5" y1="40" y2="40"/><text fill="#000000" font-family="Verdana" font-size="14" lengthAdjust="spacing" textLength="77" x="212.5" y="58.0752">description</text><line style="stroke:#000000;stroke-width:1.0;" x1="207.5" x2="331.5" y1="65.0146" y2="65.0146"/><text fill="#000000" font-family="Verdana" font-size="14" lengthAdjust="spacing" textLength="114" x="212.5" y="83.0898">getDescription()</text><text fill="#000000" font-family="Verdana" font-size="14" font-style="italic" lengthAdjust="spacing" textLength="42" x="212.5" y="100.1045">cost()</text></g><!--MD5=[bd7e272a4a95bdce642fcc687eddedc1]
class HouseBlend--><g id="elem_HouseBlend"><rect codeLine="15" fill="#FFFFFF" height="61.0146" id="HouseBlend" rx="2.5" ry="2.5" style="stroke:#000000;stroke-width:1.0;" width="111" x="12" y="167"/><ellipse cx="25" cy="181" fill="#FFFFFF" rx="9" ry="9" style="stroke:#000000;stroke-width:1.0;"/><path d="M27.9688,186.6406 Q27.3906,186.9375 26.75,187.0781 Q26.1094,187.2344 25.4063,187.2344 Q22.9063,187.2344 21.5781,185.5938 Q20.2656,183.9375 20.2656,180.8125 Q20.2656,177.6875 21.5781,176.0313 Q22.9063,174.375 25.4063,174.375 Q26.1094,174.375 26.75,174.5313 Q27.4063,174.6875 27.9688,174.9844 L27.9688,177.7031 Q27.3438,177.125 26.75,176.8594 Q26.1563,176.5781 25.5313,176.5781 Q24.1875,176.5781 23.5,177.6563 Q22.8125,178.7188 22.8125,180.8125 Q22.8125,182.9063 23.5,183.9844 Q24.1875,185.0469 25.5313,185.0469 Q26.1563,185.0469 26.75,184.7813 Q27.3438,184.5 27.9688,183.9219 L27.9688,186.6406 Z " fill="#000000"/><text fill="#000000" font-family="Verdana" font-size="14" lengthAdjust="spacing" textLength="83" x="37" y="186.5679">HouseBlend</text><line style="stroke:#000000;stroke-width:1.0;" x1="13" x2="122" y1="195" y2="195"/><line style="stroke:#000000;stroke-width:1.0;" x1="13" x2="122" y1="203" y2="203"/><text fill="#000000" font-family="Verdana" font-size="14" lengthAdjust="spacing" textLength="42" x="18" y="221.0752">cost()</text></g><!--MD5=[ef2f5c504d6cfaf85f831bdc93bdfcbf]
class DarkRoast--><g id="elem_DarkRoast"><rect codeLine="19" fill="#FFFFFF" height="61.0146" id="DarkRoast" rx="2.5" ry="2.5" style="stroke:#000000;stroke-width:1.0;" width="102" x="158.5" y="167"/><ellipse cx="171.5" cy="181" fill="#FFFFFF" rx="9" ry="9" style="stroke:#000000;stroke-width:1.0;"/><path d="M174.4688,186.6406 Q173.8906,186.9375 173.25,187.0781 Q172.6094,187.2344 171.9063,187.2344 Q169.4063,187.2344 168.0781,185.5938 Q166.7656,183.9375 166.7656,180.8125 Q166.7656,177.6875 168.0781,176.0313 Q169.4063,174.375 171.9063,174.375 Q172.6094,174.375 173.25,174.5313 Q173.9063,174.6875 174.4688,174.9844 L174.4688,177.7031 Q173.8438,177.125 173.25,176.8594 Q172.6563,176.5781 172.0313,176.5781 Q170.6875,176.5781 170,177.6563 Q169.3125,178.7188 169.3125,180.8125 Q169.3125,182.9063 170,183.9844 Q170.6875,185.0469 172.0313,185.0469 Q172.6563,185.0469 173.25,184.7813 Q173.8438,184.5 174.4688,183.9219 L174.4688,186.6406 Z " fill="#000000"/><text fill="#000000" font-family="Verdana" font-size="14" lengthAdjust="spacing" textLength="74" x="183.5" y="186.5679">DarkRoast</text><line style="stroke:#000000;stroke-width:1.0;" x1="159.5" x2="259.5" y1="195" y2="195"/><line style="stroke:#000000;stroke-width:1.0;" x1="159.5" x2="259.5" y1="203" y2="203"/><text fill="#000000" font-family="Verdana" font-size="14" lengthAdjust="spacing" textLength="42" x="164.5" y="221.0752">cost()</text></g><!--MD5=[4188fab1d5603701389174163c352652]
class Decaf--><g id="elem_Decaf"><rect codeLine="27" fill="#FFFFFF" height="61.0146" id="Decaf" rx="2.5" ry="2.5" style="stroke:#000000;stroke-width:1.0;" width="67" x="296" y="167"/><ellipse cx="309" cy="181" fill="#FFFFFF" rx="9" ry="9" style="stroke:#000000;stroke-width:1.0;"/><path d="M311.9688,186.6406 Q311.3906,186.9375 310.75,187.0781 Q310.1094,187.2344 309.4063,187.2344 Q306.9063,187.2344 305.5781,185.5938 Q304.2656,183.9375 304.2656,180.8125 Q304.2656,177.6875 305.5781,176.0313 Q306.9063,174.375 309.4063,174.375 Q310.1094,174.375 310.75,174.5313 Q311.4063,174.6875 311.9688,174.9844 L311.9688,177.7031 Q311.3438,177.125 310.75,176.8594 Q310.1563,176.5781 309.5313,176.5781 Q308.1875,176.5781 307.5,177.6563 Q306.8125,178.7188 306.8125,180.8125 Q306.8125,182.9063 307.5,183.9844 Q308.1875,185.0469 309.5313,185.0469 Q310.1563,185.0469 310.75,184.7813 Q311.3438,184.5 311.9688,183.9219 L311.9688,186.6406 Z " fill="#000000"/><text fill="#000000" font-family="Verdana" font-size="14" lengthAdjust="spacing" textLength="39" x="321" y="186.5679">Decaf</text><line style="stroke:#000000;stroke-width:1.0;" x1="297" x2="362" y1="195" y2="195"/><line style="stroke:#000000;stroke-width:1.0;" x1="297" x2="362" y1="203" y2="203"/><text fill="#000000" font-family="Verdana" font-size="14" lengthAdjust="spacing" textLength="42" x="302" y="221.0752">cost()</text></g><!--MD5=[f5ea9ff06fc8109cace2c9440d07df67]
class Espresso--><g id="elem_Espresso"><rect codeLine="23" fill="#FFFFFF" height="61.0146" id="Espresso" rx="2.5" ry="2.5" style="stroke:#000000;stroke-width:1.0;" width="93" x="398" y="167"/><ellipse cx="411" cy="181" fill="#FFFFFF" rx="9" ry="9" style="stroke:#000000;stroke-width:1.0;"/><path d="M413.9688,186.6406 Q413.3906,186.9375 412.75,187.0781 Q412.1094,187.2344 411.4063,187.2344 Q408.9063,187.2344 407.5781,185.5938 Q406.2656,183.9375 406.2656,180.8125 Q406.2656,177.6875 407.5781,176.0313 Q408.9063,174.375 411.4063,174.375 Q412.1094,174.375 412.75,174.5313 Q413.4063,174.6875 413.9688,174.9844 L413.9688,177.7031 Q413.3438,177.125 412.75,176.8594 Q412.1563,176.5781 411.5313,176.5781 Q410.1875,176.5781 409.5,177.6563 Q408.8125,178.7188 408.8125,180.8125 Q408.8125,182.9063 409.5,183.9844 Q410.1875,185.0469 411.5313,185.0469 Q412.1563,185.0469 412.75,184.7813 Q413.3438,184.5 413.9688,183.9219 L413.9688,186.6406 Z " fill="#000000"/><text fill="#000000" font-family="Verdana" font-size="14" lengthAdjust="spacing" textLength="65" x="423" y="186.5679">Espresso</text><line style="stroke:#000000;stroke-width:1.0;" x1="399" x2="490" y1="195" y2="195"/><line style="stroke:#000000;stroke-width:1.0;" x1="399" x2="490" y1="203" y2="203"/><text fill="#000000" font-family="Verdana" font-size="14" lengthAdjust="spacing" textLength="42" x="404" y="221.0752">cost()</text></g><!--MD5=[45d306746d61aae6853d584fda6d9989]
reverse link Beverage to HouseBlend--><g id="link_Beverage_HouseBlend"><path codeLine="3" d="M189.75,114.2 C163.13,132.12 134.45,151.42 111.57,166.83 " fill="none" id="Beverage-backto-HouseBlend" style="stroke:#000000;stroke-width:1.0;"/><polygon fill="none" points="185.92,108.33,206.42,102.97,193.74,119.95,185.92,108.33" style="stroke:#000000;stroke-width:1.0;"/></g><!--MD5=[07a2fcabb36df965a4c7bf35e4d074c0]
reverse link Beverage to DarkRoast--><g id="link_Beverage_DarkRoast"><path codeLine="4" d="M240.69,125.8 C234.38,140.11 228,154.57 222.67,166.65 " fill="none" id="Beverage-backto-DarkRoast" style="stroke:#000000;stroke-width:1.0;"/><polygon fill="none" points="234.37,122.78,248.85,107.3,247.18,128.43,234.37,122.78" style="stroke:#000000;stroke-width:1.0;"/></g><!--MD5=[2043822e86ab2b7f3d53c168bf142118]
reverse link Beverage to Decaf--><g id="link_Beverage_Decaf"><path codeLine="5" d="M298.31,125.8 C304.62,140.11 311,154.57 316.33,166.65 " fill="none" id="Beverage-backto-Decaf" style="stroke:#000000;stroke-width:1.0;"/><polygon fill="none" points="291.82,128.43,290.15,107.3,304.63,122.78,291.82,128.43" style="stroke:#000000;stroke-width:1.0;"/></g><!--MD5=[9ab9d4bf547d7982b0339bff1cafba9c]
reverse link Beverage to Espresso--><g id="link_Beverage_Espresso"><path codeLine="6" d="M345.55,119.6 C366.58,135.94 388.5,152.98 406.36,166.86 " fill="none" id="Beverage-backto-Espresso" style="stroke:#000000;stroke-width:1.0;"/><polygon fill="none" points="341.22,125.1,329.73,107.3,349.81,114.05,341.22,125.1" style="stroke:#000000;stroke-width:1.0;"/></g><!--MD5=[2819ce4546bb81ff554ad247bb17b2c9]
@startuml
!theme plain

Beverage <|- - HouseBlend
Beverage <|- - DarkRoast
Beverage <|- - Decaf
Beverage <|- - Espresso

abstract class Beverage {
  description

  getDescription()
  {abstract} cost()
}

class HouseBlend {
  cost()
}

class DarkRoast {
  cost()
}

class Espresso {
  cost()
}

class Decaf {
  cost()
}

@enduml

@startuml







<style>
  root {
    BackgroundColor white
    FontColor black
    FontName Verdana
    HyperLinkColor blue
    LineColor black
    LineThickness 1
    Margin 5
  }
  caption {
    LineThickness 0
  }
  footer {
    LineThickness 0
  }
  header {
    LineThickness 0
  }
  node {
    MaximumWidth 300
  }
  title {
    FontSize 22
    LineThickness 0
  }
</style>

skinparam ArrowLollipopColor black
skinparam BackgroundColor white
skinparam DefaultFontName Verdana
skinparam DefaultMonospacedFontName Courier
skinparam LifelineStrategy nosolid
skinparam ParticipantPadding 10
skinparam SequenceLifeLineBorderColor black
skinparam Shadowing false
skinparam UseBetaStyle true

skinparam Activity {
  BackgroundColor white
  BarColor black
  BorderColor black
  FontColor black
  FontName Verdana
}
skinparam Boundary {
  FontColor black
}
skinparam Box {
  Padding 5
}
skinparam CircledCharacter {
  FontColor black
  FontName Courier
  Radius 9
}
skinparam Class {
  BackgroundColor white
  BorderColor black
  FontColor black
  FontName Verdana
}
skinparam ClassAttribute {
  FontColor black
  FontName Verdana
}
skinparam ClassStereotype {
  FontColor black
  FontName Verdana
}
skinparam Footer {
  FontColor black
  FontName Verdana
}
skinparam Header {
  FontColor black
  FontName Verdana
}
skinparam Hyperlink {
  Color blue
}
skinparam IconPackage {
  Color black
  BackgroundColor white
}
skinparam IconPrivate {
  Color black
  BackgroundColor white
}
skinparam IconProtected {
  Color black
  BackgroundColor white
}
skinparam IconPublic {
  Color black
  BackgroundColor white
}
skinparam Note {
  FontColor black
  FontName Verdana
}
skinparam Object {
  BorderColor black
}
skinparam Package {
  BorderColor black
  FontColor black
  FontName Verdana
}
skinparam State {
  BackgroundColor white
  BorderColor black
}
skinparam StereotypeA {
  BackgroundColor white
  BorderColor black
}
skinparam StereotypeC {
  BackgroundColor white
  BorderColor black
}
skinparam StereotypeE {
  BackgroundColor white
  BorderColor black
}
skinparam StereotypeI {
  BackgroundColor white
  BorderColor black
}
skinparam StereotypeN {
  BackgroundColor white
  BorderColor black
}
skinparam UseCaseStereoType {
  FontColor black
  FontName Verdana
}

Beverage <|- - HouseBlend
Beverage <|- - DarkRoast
Beverage <|- - Decaf
Beverage <|- - Espresso

abstract class Beverage {
  description

  getDescription()
  {abstract} cost()
}

class HouseBlend {
  cost()
}

class DarkRoast {
  cost()
}

class Espresso {
  cost()
}

class Decaf {
  cost()
}

@enduml

PlantUML version 1.2022.6(Wed Jun 22 01:34:49 CST 2022)
(GPL source distribution)
Java Runtime: OpenJDK Runtime Environment
JVM: OpenJDK 64-Bit Server VM
Default Encoding: UTF-8
Language: en
Country: US
--></g></svg>