<?xml version="1.0" encoding="UTF-8" standalone="no"?><svg xmlns="http://www.w3.org/2000/svg" xmlns:xlink="http://www.w3.org/1999/xlink" contentStyleType="text/css" height="269px" preserveAspectRatio="none" style="width:3094px;height:269px;background:#FFFFFF;" version="1.1" viewBox="0 0 3094 269" width="3094px" zoomAndPan="magnify"><defs/><g><!--MD5=[f45f2220b0b110c1551a8318691639c0]
class Beverage--><g id="elem_Beverage"><rect codeLine="20" fill="#FFFFFF" height="95.0439" id="Beverage" rx="2.5" ry="2.5" style="stroke:#000000;stroke-width:1.0;" width="126" x="1587.5" y="12"/><ellipse cx="1615.35" cy="26" fill="#FFFFFF" rx="9" ry="9" style="stroke:#000000;stroke-width:1.0;"/><path d="M1615.4594,21.3438 L1614.3031,26.4219 L1616.6313,26.4219 L1615.4594,21.3438 Z M1613.975,19.1094 L1616.9594,19.1094 L1620.3188,31.5 L1617.8656,31.5 L1617.1,28.4375 L1613.8188,28.4375 L1613.0688,31.5 L1610.6313,31.5 L1613.975,19.1094 Z " fill="#000000"/><text fill="#000000" font-family="Verdana" font-size="14" font-style="italic" lengthAdjust="spacing" textLength="65" x="1630.65" y="31.5679">Beverage</text><line style="stroke:#000000;stroke-width:1.0;" x1="1588.5" x2="1712.5" y1="40" y2="40"/><text fill="#000000" font-family="Verdana" font-size="14" lengthAdjust="spacing" textLength="77" x="1593.5" y="58.0752">description</text><line style="stroke:#000000;stroke-width:1.0;" x1="1588.5" x2="1712.5" y1="65.0146" y2="65.0146"/><text fill="#000000" font-family="Verdana" font-size="14" lengthAdjust="spacing" textLength="114" x="1593.5" y="83.0898">getDescription()</text><text fill="#000000" font-family="Verdana" font-size="14" font-style="italic" lengthAdjust="spacing" textLength="42" x="1593.5" y="100.1045">cost()</text></g><!--MD5=[a87989cdfa55fe89b6206876567125a2]
class HouseBlendWithMilk--><g id="elem_HouseBlendWithMilk"><rect codeLine="27" fill="#FFFFFF" height="61.0146" id="HouseBlendWithMilk" rx="2.5" ry="2.5" style="stroke:#000000;stroke-width:1.0;" width="169" x="12" y="184"/><ellipse cx="25" cy="198" fill="#FFFFFF" rx="9" ry="9" style="stroke:#000000;stroke-width:1.0;"/><path d="M27.9688,203.6406 Q27.3906,203.9375 26.75,204.0781 Q26.1094,204.2344 25.4063,204.2344 Q22.9063,204.2344 21.5781,202.5938 Q20.2656,200.9375 20.2656,197.8125 Q20.2656,194.6875 21.5781,193.0313 Q22.9063,191.375 25.4063,191.375 Q26.1094,191.375 26.75,191.5313 Q27.4063,191.6875 27.9688,191.9844 L27.9688,194.7031 Q27.3438,194.125 26.75,193.8594 Q26.1563,193.5781 25.5313,193.5781 Q24.1875,193.5781 23.5,194.6563 Q22.8125,195.7188 22.8125,197.8125 Q22.8125,199.9063 23.5,200.9844 Q24.1875,202.0469 25.5313,202.0469 Q26.1563,202.0469 26.75,201.7813 Q27.3438,201.5 27.9688,200.9219 L27.9688,203.6406 Z " fill="#000000"/><text fill="#000000" font-family="Verdana" font-size="14" lengthAdjust="spacing" textLength="141" x="37" y="203.5679">HouseBlendWithMilk</text><line style="stroke:#000000;stroke-width:1.0;" x1="13" x2="180" y1="212" y2="212"/><line style="stroke:#000000;stroke-width:1.0;" x1="13" x2="180" y1="220" y2="220"/><text fill="#000000" font-family="Verdana" font-size="14" lengthAdjust="spacing" textLength="42" x="18" y="238.0752">cost()</text></g><!--MD5=[c7d9442f243c0f191cdb743e3ab2dccb]
class HouseBlendWithSoy--><g id="elem_HouseBlendWithSoy"><rect codeLine="31" fill="#FFFFFF" height="61.0146" id="HouseBlendWithSoy" rx="2.5" ry="2.5" style="stroke:#000000;stroke-width:1.0;" width="171" x="216" y="184"/><ellipse cx="229" cy="198" fill="#FFFFFF" rx="9" ry="9" style="stroke:#000000;stroke-width:1.0;"/><path d="M231.9688,203.6406 Q231.3906,203.9375 230.75,204.0781 Q230.1094,204.2344 229.4063,204.2344 Q226.9063,204.2344 225.5781,202.5938 Q224.2656,200.9375 224.2656,197.8125 Q224.2656,194.6875 225.5781,193.0313 Q226.9063,191.375 229.4063,191.375 Q230.1094,191.375 230.75,191.5313 Q231.4063,191.6875 231.9688,191.9844 L231.9688,194.7031 Q231.3438,194.125 230.75,193.8594 Q230.1563,193.5781 229.5313,193.5781 Q228.1875,193.5781 227.5,194.6563 Q226.8125,195.7188 226.8125,197.8125 Q226.8125,199.9063 227.5,200.9844 Q228.1875,202.0469 229.5313,202.0469 Q230.1563,202.0469 230.75,201.7813 Q231.3438,201.5 231.9688,200.9219 L231.9688,203.6406 Z " fill="#000000"/><text fill="#000000" font-family="Verdana" font-size="14" lengthAdjust="spacing" textLength="143" x="241" y="203.5679">HouseBlendWithSoy</text><line style="stroke:#000000;stroke-width:1.0;" x1="217" x2="386" y1="212" y2="212"/><line style="stroke:#000000;stroke-width:1.0;" x1="217" x2="386" y1="220" y2="220"/><text fill="#000000" font-family="Verdana" font-size="14" lengthAdjust="spacing" textLength="42" x="222" y="238.0752">cost()</text></g><!--MD5=[24848f3356bd48b2c4e98eb00defbfb3]
class HouseBlendWithMocha--><g id="elem_HouseBlendWithMocha"><rect codeLine="35" fill="#FFFFFF" height="61.0146" id="HouseBlendWithMocha" rx="2.5" ry="2.5" style="stroke:#000000;stroke-width:1.0;" width="188" x="422.5" y="184"/><ellipse cx="435.5" cy="198" fill="#FFFFFF" rx="9" ry="9" style="stroke:#000000;stroke-width:1.0;"/><path d="M438.4688,203.6406 Q437.8906,203.9375 437.25,204.0781 Q436.6094,204.2344 435.9063,204.2344 Q433.4063,204.2344 432.0781,202.5938 Q430.7656,200.9375 430.7656,197.8125 Q430.7656,194.6875 432.0781,193.0313 Q433.4063,191.375 435.9063,191.375 Q436.6094,191.375 437.25,191.5313 Q437.9063,191.6875 438.4688,191.9844 L438.4688,194.7031 Q437.8438,194.125 437.25,193.8594 Q436.6563,193.5781 436.0313,193.5781 Q434.6875,193.5781 434,194.6563 Q433.3125,195.7188 433.3125,197.8125 Q433.3125,199.9063 434,200.9844 Q434.6875,202.0469 436.0313,202.0469 Q436.6563,202.0469 437.25,201.7813 Q437.8438,201.5 438.4688,200.9219 L438.4688,203.6406 Z " fill="#000000"/><text fill="#000000" font-family="Verdana" font-size="14" lengthAdjust="spacing" textLength="160" x="447.5" y="203.5679">HouseBlendWithMocha</text><line style="stroke:#000000;stroke-width:1.0;" x1="423.5" x2="609.5" y1="212" y2="212"/><line style="stroke:#000000;stroke-width:1.0;" x1="423.5" x2="609.5" y1="220" y2="220"/><text fill="#000000" font-family="Verdana" font-size="14" lengthAdjust="spacing" textLength="42" x="428.5" y="238.0752">cost()</text></g><!--MD5=[5e2cb597f91f31ce7f0fc7a7120de171]
class HouseBlendWithWhip--><g id="elem_HouseBlendWithWhip"><rect codeLine="39" fill="#FFFFFF" height="61.0146" id="HouseBlendWithWhip" rx="2.5" ry="2.5" style="stroke:#000000;stroke-width:1.0;" width="180" x="645.5" y="184"/><ellipse cx="658.5" cy="198" fill="#FFFFFF" rx="9" ry="9" style="stroke:#000000;stroke-width:1.0;"/><path d="M661.4688,203.6406 Q660.8906,203.9375 660.25,204.0781 Q659.6094,204.2344 658.9063,204.2344 Q656.4063,204.2344 655.0781,202.5938 Q653.7656,200.9375 653.7656,197.8125 Q653.7656,194.6875 655.0781,193.0313 Q656.4063,191.375 658.9063,191.375 Q659.6094,191.375 660.25,191.5313 Q660.9063,191.6875 661.4688,191.9844 L661.4688,194.7031 Q660.8438,194.125 660.25,193.8594 Q659.6563,193.5781 659.0313,193.5781 Q657.6875,193.5781 657,194.6563 Q656.3125,195.7188 656.3125,197.8125 Q656.3125,199.9063 657,200.9844 Q657.6875,202.0469 659.0313,202.0469 Q659.6563,202.0469 660.25,201.7813 Q660.8438,201.5 661.4688,200.9219 L661.4688,203.6406 Z " fill="#000000"/><text fill="#000000" font-family="Verdana" font-size="14" lengthAdjust="spacing" textLength="152" x="670.5" y="203.5679">HouseBlendWithWhip</text><line style="stroke:#000000;stroke-width:1.0;" x1="646.5" x2="824.5" y1="212" y2="212"/><line style="stroke:#000000;stroke-width:1.0;" x1="646.5" x2="824.5" y1="220" y2="220"/><text fill="#000000" font-family="Verdana" font-size="14" lengthAdjust="spacing" textLength="42" x="651.5" y="238.0752">cost()</text></g><!--MD5=[08fb7919f4c95ef9f5ea3b153adbbe6a]
class DarkRoastWithMilk--><g id="elem_DarkRoastWithMilk"><rect codeLine="43" fill="#FFFFFF" height="61.0146" id="DarkRoastWithMilk" rx="2.5" ry="2.5" style="stroke:#000000;stroke-width:1.0;" width="160" x="860.5" y="184"/><ellipse cx="873.5" cy="198" fill="#FFFFFF" rx="9" ry="9" style="stroke:#000000;stroke-width:1.0;"/><path d="M876.4688,203.6406 Q875.8906,203.9375 875.25,204.0781 Q874.6094,204.2344 873.9063,204.2344 Q871.4063,204.2344 870.0781,202.5938 Q868.7656,200.9375 868.7656,197.8125 Q868.7656,194.6875 870.0781,193.0313 Q871.4063,191.375 873.9063,191.375 Q874.6094,191.375 875.25,191.5313 Q875.9063,191.6875 876.4688,191.9844 L876.4688,194.7031 Q875.8438,194.125 875.25,193.8594 Q874.6563,193.5781 874.0313,193.5781 Q872.6875,193.5781 872,194.6563 Q871.3125,195.7188 871.3125,197.8125 Q871.3125,199.9063 872,200.9844 Q872.6875,202.0469 874.0313,202.0469 Q874.6563,202.0469 875.25,201.7813 Q875.8438,201.5 876.4688,200.9219 L876.4688,203.6406 Z " fill="#000000"/><text fill="#000000" font-family="Verdana" font-size="14" lengthAdjust="spacing" textLength="132" x="885.5" y="203.5679">DarkRoastWithMilk</text><line style="stroke:#000000;stroke-width:1.0;" x1="861.5" x2="1019.5" y1="212" y2="212"/><line style="stroke:#000000;stroke-width:1.0;" x1="861.5" x2="1019.5" y1="220" y2="220"/><text fill="#000000" font-family="Verdana" font-size="14" lengthAdjust="spacing" textLength="42" x="866.5" y="238.0752">cost()</text></g><!--MD5=[a6f4f9db35dc6305a77845cddd97e75e]
class DarkRoastWithSoy--><g id="elem_DarkRoastWithSoy"><rect codeLine="47" fill="#FFFFFF" height="61.0146" id="DarkRoastWithSoy" rx="2.5" ry="2.5" style="stroke:#000000;stroke-width:1.0;" width="162" x="1055.5" y="184"/><ellipse cx="1068.5" cy="198" fill="#FFFFFF" rx="9" ry="9" style="stroke:#000000;stroke-width:1.0;"/><path d="M1071.4688,203.6406 Q1070.8906,203.9375 1070.25,204.0781 Q1069.6094,204.2344 1068.9063,204.2344 Q1066.4063,204.2344 1065.0781,202.5938 Q1063.7656,200.9375 1063.7656,197.8125 Q1063.7656,194.6875 1065.0781,193.0313 Q1066.4063,191.375 1068.9063,191.375 Q1069.6094,191.375 1070.25,191.5313 Q1070.9063,191.6875 1071.4688,191.9844 L1071.4688,194.7031 Q1070.8438,194.125 1070.25,193.8594 Q1069.6563,193.5781 1069.0313,193.5781 Q1067.6875,193.5781 1067,194.6563 Q1066.3125,195.7188 1066.3125,197.8125 Q1066.3125,199.9063 1067,200.9844 Q1067.6875,202.0469 1069.0313,202.0469 Q1069.6563,202.0469 1070.25,201.7813 Q1070.8438,201.5 1071.4688,200.9219 L1071.4688,203.6406 Z " fill="#000000"/><text fill="#000000" font-family="Verdana" font-size="14" lengthAdjust="spacing" textLength="134" x="1080.5" y="203.5679">DarkRoastWithSoy</text><line style="stroke:#000000;stroke-width:1.0;" x1="1056.5" x2="1216.5" y1="212" y2="212"/><line style="stroke:#000000;stroke-width:1.0;" x1="1056.5" x2="1216.5" y1="220" y2="220"/><text fill="#000000" font-family="Verdana" font-size="14" lengthAdjust="spacing" textLength="42" x="1061.5" y="238.0752">cost()</text></g><!--MD5=[be006db66ed34659e194cd7bab3d80aa]
class DarkRoastWithMocha--><g id="elem_DarkRoastWithMocha"><rect codeLine="51" fill="#FFFFFF" height="61.0146" id="DarkRoastWithMocha" rx="2.5" ry="2.5" style="stroke:#000000;stroke-width:1.0;" width="179" x="1253" y="184"/><ellipse cx="1266" cy="198" fill="#FFFFFF" rx="9" ry="9" style="stroke:#000000;stroke-width:1.0;"/><path d="M1268.9688,203.6406 Q1268.3906,203.9375 1267.75,204.0781 Q1267.1094,204.2344 1266.4063,204.2344 Q1263.9063,204.2344 1262.5781,202.5938 Q1261.2656,200.9375 1261.2656,197.8125 Q1261.2656,194.6875 1262.5781,193.0313 Q1263.9063,191.375 1266.4063,191.375 Q1267.1094,191.375 1267.75,191.5313 Q1268.4063,191.6875 1268.9688,191.9844 L1268.9688,194.7031 Q1268.3438,194.125 1267.75,193.8594 Q1267.1563,193.5781 1266.5313,193.5781 Q1265.1875,193.5781 1264.5,194.6563 Q1263.8125,195.7188 1263.8125,197.8125 Q1263.8125,199.9063 1264.5,200.9844 Q1265.1875,202.0469 1266.5313,202.0469 Q1267.1563,202.0469 1267.75,201.7813 Q1268.3438,201.5 1268.9688,200.9219 L1268.9688,203.6406 Z " fill="#000000"/><text fill="#000000" font-family="Verdana" font-size="14" lengthAdjust="spacing" textLength="151" x="1278" y="203.5679">DarkRoastWithMocha</text><line style="stroke:#000000;stroke-width:1.0;" x1="1254" x2="1431" y1="212" y2="212"/><line style="stroke:#000000;stroke-width:1.0;" x1="1254" x2="1431" y1="220" y2="220"/><text fill="#000000" font-family="Verdana" font-size="14" lengthAdjust="spacing" textLength="42" x="1259" y="238.0752">cost()</text></g><!--MD5=[cc520d2bda7747ef0b2a4bcd6ca7cf37]
class DarkRoastWithWhip--><g id="elem_DarkRoastWithWhip"><rect codeLine="55" fill="#FFFFFF" height="61.0146" id="DarkRoastWithWhip" rx="2.5" ry="2.5" style="stroke:#000000;stroke-width:1.0;" width="171" x="1467" y="184"/><ellipse cx="1480" cy="198" fill="#FFFFFF" rx="9" ry="9" style="stroke:#000000;stroke-width:1.0;"/><path d="M1482.9688,203.6406 Q1482.3906,203.9375 1481.75,204.0781 Q1481.1094,204.2344 1480.4063,204.2344 Q1477.9063,204.2344 1476.5781,202.5938 Q1475.2656,200.9375 1475.2656,197.8125 Q1475.2656,194.6875 1476.5781,193.0313 Q1477.9063,191.375 1480.4063,191.375 Q1481.1094,191.375 1481.75,191.5313 Q1482.4063,191.6875 1482.9688,191.9844 L1482.9688,194.7031 Q1482.3438,194.125 1481.75,193.8594 Q1481.1563,193.5781 1480.5313,193.5781 Q1479.1875,193.5781 1478.5,194.6563 Q1477.8125,195.7188 1477.8125,197.8125 Q1477.8125,199.9063 1478.5,200.9844 Q1479.1875,202.0469 1480.5313,202.0469 Q1481.1563,202.0469 1481.75,201.7813 Q1482.3438,201.5 1482.9688,200.9219 L1482.9688,203.6406 Z " fill="#000000"/><text fill="#000000" font-family="Verdana" font-size="14" lengthAdjust="spacing" textLength="143" x="1492" y="203.5679">DarkRoastWithWhip</text><line style="stroke:#000000;stroke-width:1.0;" x1="1468" x2="1637" y1="212" y2="212"/><line style="stroke:#000000;stroke-width:1.0;" x1="1468" x2="1637" y1="220" y2="220"/><text fill="#000000" font-family="Verdana" font-size="14" lengthAdjust="spacing" textLength="42" x="1473" y="238.0752">cost()</text></g><!--MD5=[19413a84e69e945b697570218222e547]
class EspressoWithMilk--><g id="elem_EspressoWithMilk"><rect codeLine="59" fill="#FFFFFF" height="61.0146" id="EspressoWithMilk" rx="2.5" ry="2.5" style="stroke:#000000;stroke-width:1.0;" width="151" x="1673" y="184"/><ellipse cx="1686" cy="198" fill="#FFFFFF" rx="9" ry="9" style="stroke:#000000;stroke-width:1.0;"/><path d="M1688.9688,203.6406 Q1688.3906,203.9375 1687.75,204.0781 Q1687.1094,204.2344 1686.4063,204.2344 Q1683.9063,204.2344 1682.5781,202.5938 Q1681.2656,200.9375 1681.2656,197.8125 Q1681.2656,194.6875 1682.5781,193.0313 Q1683.9063,191.375 1686.4063,191.375 Q1687.1094,191.375 1687.75,191.5313 Q1688.4063,191.6875 1688.9688,191.9844 L1688.9688,194.7031 Q1688.3438,194.125 1687.75,193.8594 Q1687.1563,193.5781 1686.5313,193.5781 Q1685.1875,193.5781 1684.5,194.6563 Q1683.8125,195.7188 1683.8125,197.8125 Q1683.8125,199.9063 1684.5,200.9844 Q1685.1875,202.0469 1686.5313,202.0469 Q1687.1563,202.0469 1687.75,201.7813 Q1688.3438,201.5 1688.9688,200.9219 L1688.9688,203.6406 Z " fill="#000000"/><text fill="#000000" font-family="Verdana" font-size="14" lengthAdjust="spacing" textLength="123" x="1698" y="203.5679">EspressoWithMilk</text><line style="stroke:#000000;stroke-width:1.0;" x1="1674" x2="1823" y1="212" y2="212"/><line style="stroke:#000000;stroke-width:1.0;" x1="1674" x2="1823" y1="220" y2="220"/><text fill="#000000" font-family="Verdana" font-size="14" lengthAdjust="spacing" textLength="42" x="1679" y="238.0752">cost()</text></g><!--MD5=[caea3d694a1ade044af4fbd20478c842]
class EspressoWithSoy--><g id="elem_EspressoWithSoy"><rect codeLine="63" fill="#FFFFFF" height="61.0146" id="EspressoWithSoy" rx="2.5" ry="2.5" style="stroke:#000000;stroke-width:1.0;" width="153" x="1859" y="184"/><ellipse cx="1872" cy="198" fill="#FFFFFF" rx="9" ry="9" style="stroke:#000000;stroke-width:1.0;"/><path d="M1874.9688,203.6406 Q1874.3906,203.9375 1873.75,204.0781 Q1873.1094,204.2344 1872.4063,204.2344 Q1869.9063,204.2344 1868.5781,202.5938 Q1867.2656,200.9375 1867.2656,197.8125 Q1867.2656,194.6875 1868.5781,193.0313 Q1869.9063,191.375 1872.4063,191.375 Q1873.1094,191.375 1873.75,191.5313 Q1874.4063,191.6875 1874.9688,191.9844 L1874.9688,194.7031 Q1874.3438,194.125 1873.75,193.8594 Q1873.1563,193.5781 1872.5313,193.5781 Q1871.1875,193.5781 1870.5,194.6563 Q1869.8125,195.7188 1869.8125,197.8125 Q1869.8125,199.9063 1870.5,200.9844 Q1871.1875,202.0469 1872.5313,202.0469 Q1873.1563,202.0469 1873.75,201.7813 Q1874.3438,201.5 1874.9688,200.9219 L1874.9688,203.6406 Z " fill="#000000"/><text fill="#000000" font-family="Verdana" font-size="14" lengthAdjust="spacing" textLength="125" x="1884" y="203.5679">EspressoWithSoy</text><line style="stroke:#000000;stroke-width:1.0;" x1="1860" x2="2011" y1="212" y2="212"/><line style="stroke:#000000;stroke-width:1.0;" x1="1860" x2="2011" y1="220" y2="220"/><text fill="#000000" font-family="Verdana" font-size="14" lengthAdjust="spacing" textLength="42" x="1865" y="238.0752">cost()</text></g><!--MD5=[0e0c20e3c3296170dcd423de76eafce1]
class EspressoWithMocha--><g id="elem_EspressoWithMocha"><rect codeLine="67" fill="#FFFFFF" height="61.0146" id="EspressoWithMocha" rx="2.5" ry="2.5" style="stroke:#000000;stroke-width:1.0;" width="170" x="2047.5" y="184"/><ellipse cx="2060.5" cy="198" fill="#FFFFFF" rx="9" ry="9" style="stroke:#000000;stroke-width:1.0;"/><path d="M2063.4688,203.6406 Q2062.8906,203.9375 2062.25,204.0781 Q2061.6094,204.2344 2060.9063,204.2344 Q2058.4063,204.2344 2057.0781,202.5938 Q2055.7656,200.9375 2055.7656,197.8125 Q2055.7656,194.6875 2057.0781,193.0313 Q2058.4063,191.375 2060.9063,191.375 Q2061.6094,191.375 2062.25,191.5313 Q2062.9063,191.6875 2063.4688,191.9844 L2063.4688,194.7031 Q2062.8438,194.125 2062.25,193.8594 Q2061.6563,193.5781 2061.0313,193.5781 Q2059.6875,193.5781 2059,194.6563 Q2058.3125,195.7188 2058.3125,197.8125 Q2058.3125,199.9063 2059,200.9844 Q2059.6875,202.0469 2061.0313,202.0469 Q2061.6563,202.0469 2062.25,201.7813 Q2062.8438,201.5 2063.4688,200.9219 L2063.4688,203.6406 Z " fill="#000000"/><text fill="#000000" font-family="Verdana" font-size="14" lengthAdjust="spacing" textLength="142" x="2072.5" y="203.5679">EspressoWithMocha</text><line style="stroke:#000000;stroke-width:1.0;" x1="2048.5" x2="2216.5" y1="212" y2="212"/><line style="stroke:#000000;stroke-width:1.0;" x1="2048.5" x2="2216.5" y1="220" y2="220"/><text fill="#000000" font-family="Verdana" font-size="14" lengthAdjust="spacing" textLength="42" x="2053.5" y="238.0752">cost()</text></g><!--MD5=[6287aea022c11f97b3471e5d4506c262]
class EspressoWithWhip--><g id="elem_EspressoWithWhip"><rect codeLine="71" fill="#FFFFFF" height="61.0146" id="EspressoWithWhip" rx="2.5" ry="2.5" style="stroke:#000000;stroke-width:1.0;" width="162" x="2252.5" y="184"/><ellipse cx="2265.5" cy="198" fill="#FFFFFF" rx="9" ry="9" style="stroke:#000000;stroke-width:1.0;"/><path d="M2268.4688,203.6406 Q2267.8906,203.9375 2267.25,204.0781 Q2266.6094,204.2344 2265.9063,204.2344 Q2263.4063,204.2344 2262.0781,202.5938 Q2260.7656,200.9375 2260.7656,197.8125 Q2260.7656,194.6875 2262.0781,193.0313 Q2263.4063,191.375 2265.9063,191.375 Q2266.6094,191.375 2267.25,191.5313 Q2267.9063,191.6875 2268.4688,191.9844 L2268.4688,194.7031 Q2267.8438,194.125 2267.25,193.8594 Q2266.6563,193.5781 2266.0313,193.5781 Q2264.6875,193.5781 2264,194.6563 Q2263.3125,195.7188 2263.3125,197.8125 Q2263.3125,199.9063 2264,200.9844 Q2264.6875,202.0469 2266.0313,202.0469 Q2266.6563,202.0469 2267.25,201.7813 Q2267.8438,201.5 2268.4688,200.9219 L2268.4688,203.6406 Z " fill="#000000"/><text fill="#000000" font-family="Verdana" font-size="14" lengthAdjust="spacing" textLength="134" x="2277.5" y="203.5679">EspressoWithWhip</text><line style="stroke:#000000;stroke-width:1.0;" x1="2253.5" x2="2413.5" y1="212" y2="212"/><line style="stroke:#000000;stroke-width:1.0;" x1="2253.5" x2="2413.5" y1="220" y2="220"/><text fill="#000000" font-family="Verdana" font-size="14" lengthAdjust="spacing" textLength="42" x="2258.5" y="238.0752">cost()</text></g><!--MD5=[493b9f525115452596eff9d1db52d20c]
class DecafWithMilk--><g id="elem_DecafWithMilk"><rect codeLine="87" fill="#FFFFFF" height="95.0439" id="DecafWithMilk" rx="2.5" ry="2.5" style="stroke:#000000;stroke-width:1.0;" width="125" x="2450" y="167"/><ellipse cx="2463" cy="181" fill="#FFFFFF" rx="9" ry="9" style="stroke:#000000;stroke-width:1.0;"/><path d="M2465.9688,186.6406 Q2465.3906,186.9375 2464.75,187.0781 Q2464.1094,187.2344 2463.4063,187.2344 Q2460.9063,187.2344 2459.5781,185.5938 Q2458.2656,183.9375 2458.2656,180.8125 Q2458.2656,177.6875 2459.5781,176.0313 Q2460.9063,174.375 2463.4063,174.375 Q2464.1094,174.375 2464.75,174.5313 Q2465.4063,174.6875 2465.9688,174.9844 L2465.9688,177.7031 Q2465.3438,177.125 2464.75,176.8594 Q2464.1563,176.5781 2463.5313,176.5781 Q2462.1875,176.5781 2461.5,177.6563 Q2460.8125,178.7188 2460.8125,180.8125 Q2460.8125,182.9063 2461.5,183.9844 Q2462.1875,185.0469 2463.5313,185.0469 Q2464.1563,185.0469 2464.75,184.7813 Q2465.3438,184.5 2465.9688,183.9219 L2465.9688,186.6406 Z " fill="#000000"/><text fill="#000000" font-family="Verdana" font-size="14" lengthAdjust="spacing" textLength="97" x="2475" y="186.5679">DecafWithMilk</text><line style="stroke:#000000;stroke-width:1.0;" x1="2451" x2="2574" y1="195" y2="195"/><line style="stroke:#000000;stroke-width:1.0;" x1="2451" x2="2574" y1="203" y2="203"/><text fill="#000000" font-family="Verdana" font-size="14" lengthAdjust="spacing" textLength="42" x="2456" y="221.0752">cost()</text><text fill="#000000" font-family="Verdana" font-size="14" lengthAdjust="spacing" textLength="42" x="2456" y="238.0898">cost()</text><text fill="#000000" font-family="Verdana" font-size="14" lengthAdjust="spacing" textLength="42" x="2456" y="255.1045">cost()</text></g><!--MD5=[5c7b2deca081cb4bf2e97f7c23120dab]
class DecafWithSoy--><g id="elem_DecafWithSoy"><rect codeLine="75" fill="#FFFFFF" height="61.0146" id="DecafWithSoy" rx="2.5" ry="2.5" style="stroke:#000000;stroke-width:1.0;" width="127" x="2610" y="184"/><ellipse cx="2623" cy="198" fill="#FFFFFF" rx="9" ry="9" style="stroke:#000000;stroke-width:1.0;"/><path d="M2625.9688,203.6406 Q2625.3906,203.9375 2624.75,204.0781 Q2624.1094,204.2344 2623.4063,204.2344 Q2620.9063,204.2344 2619.5781,202.5938 Q2618.2656,200.9375 2618.2656,197.8125 Q2618.2656,194.6875 2619.5781,193.0313 Q2620.9063,191.375 2623.4063,191.375 Q2624.1094,191.375 2624.75,191.5313 Q2625.4063,191.6875 2625.9688,191.9844 L2625.9688,194.7031 Q2625.3438,194.125 2624.75,193.8594 Q2624.1563,193.5781 2623.5313,193.5781 Q2622.1875,193.5781 2621.5,194.6563 Q2620.8125,195.7188 2620.8125,197.8125 Q2620.8125,199.9063 2621.5,200.9844 Q2622.1875,202.0469 2623.5313,202.0469 Q2624.1563,202.0469 2624.75,201.7813 Q2625.3438,201.5 2625.9688,200.9219 L2625.9688,203.6406 Z " fill="#000000"/><text fill="#000000" font-family="Verdana" font-size="14" lengthAdjust="spacing" textLength="99" x="2635" y="203.5679">DecafWithSoy</text><line style="stroke:#000000;stroke-width:1.0;" x1="2611" x2="2736" y1="212" y2="212"/><line style="stroke:#000000;stroke-width:1.0;" x1="2611" x2="2736" y1="220" y2="220"/><text fill="#000000" font-family="Verdana" font-size="14" lengthAdjust="spacing" textLength="42" x="2616" y="238.0752">cost()</text></g><!--MD5=[baf9ab3fd78772c0d2d4c8a62622fead]
class DecafWithMocha--><g id="elem_DecafWithMocha"><rect fill="#FFFFFF" height="44" id="DecafWithMocha" rx="2.5" ry="2.5" style="stroke:#000000;stroke-width:1.0;" width="144" x="2772.5" y="192.5"/><ellipse cx="2785.5" cy="206.5" fill="#FFFFFF" rx="9" ry="9" style="stroke:#000000;stroke-width:1.0;"/><path d="M2788.4688,212.1406 Q2787.8906,212.4375 2787.25,212.5781 Q2786.6094,212.7344 2785.9063,212.7344 Q2783.4063,212.7344 2782.0781,211.0938 Q2780.7656,209.4375 2780.7656,206.3125 Q2780.7656,203.1875 2782.0781,201.5313 Q2783.4063,199.875 2785.9063,199.875 Q2786.6094,199.875 2787.25,200.0313 Q2787.9063,200.1875 2788.4688,200.4844 L2788.4688,203.2031 Q2787.8438,202.625 2787.25,202.3594 Q2786.6563,202.0781 2786.0313,202.0781 Q2784.6875,202.0781 2784,203.1563 Q2783.3125,204.2188 2783.3125,206.3125 Q2783.3125,208.4063 2784,209.4844 Q2784.6875,210.5469 2786.0313,210.5469 Q2786.6563,210.5469 2787.25,210.2813 Q2787.8438,210 2788.4688,209.4219 L2788.4688,212.1406 Z " fill="#000000"/><text fill="#000000" font-family="Verdana" font-size="14" lengthAdjust="spacing" textLength="116" x="2797.5" y="212.0679">DecafWithMocha</text><line style="stroke:#000000;stroke-width:1.0;" x1="2773.5" x2="2915.5" y1="220.5" y2="220.5"/><line style="stroke:#000000;stroke-width:1.0;" x1="2773.5" x2="2915.5" y1="228.5" y2="228.5"/></g><!--MD5=[8d4fb76d28b9382b910d6c14d35d7f30]
class DecafWithWhip--><g id="elem_DecafWithWhip"><rect fill="#FFFFFF" height="44" id="DecafWithWhip" rx="2.5" ry="2.5" style="stroke:#000000;stroke-width:1.0;" width="136" x="2951.5" y="192.5"/><ellipse cx="2964.5" cy="206.5" fill="#FFFFFF" rx="9" ry="9" style="stroke:#000000;stroke-width:1.0;"/><path d="M2967.4688,212.1406 Q2966.8906,212.4375 2966.25,212.5781 Q2965.6094,212.7344 2964.9063,212.7344 Q2962.4063,212.7344 2961.0781,211.0938 Q2959.7656,209.4375 2959.7656,206.3125 Q2959.7656,203.1875 2961.0781,201.5313 Q2962.4063,199.875 2964.9063,199.875 Q2965.6094,199.875 2966.25,200.0313 Q2966.9063,200.1875 2967.4688,200.4844 L2967.4688,203.2031 Q2966.8438,202.625 2966.25,202.3594 Q2965.6563,202.0781 2965.0313,202.0781 Q2963.6875,202.0781 2963,203.1563 Q2962.3125,204.2188 2962.3125,206.3125 Q2962.3125,208.4063 2963,209.4844 Q2963.6875,210.5469 2965.0313,210.5469 Q2965.6563,210.5469 2966.25,210.2813 Q2966.8438,210 2967.4688,209.4219 L2967.4688,212.1406 Z " fill="#000000"/><text fill="#000000" font-family="Verdana" font-size="14" lengthAdjust="spacing" textLength="108" x="2976.5" y="212.0679">DecafWithWhip</text><line style="stroke:#000000;stroke-width:1.0;" x1="2952.5" x2="3086.5" y1="220.5" y2="220.5"/><line style="stroke:#000000;stroke-width:1.0;" x1="2952.5" x2="3086.5" y1="228.5" y2="228.5"/></g><!--MD5=[494d6126ca6b61cefc160fc4a0d03c8e]
reverse link Beverage to HouseBlendWithMilk--><g id="link_Beverage_HouseBlendWithMilk"><path codeLine="3" d="M1567.01,62.75 C1298.66,70.6 460.44,99.98 198.5,167 C182.85,171 166.63,177.3 151.85,183.98 " fill="none" id="Beverage-backto-HouseBlendWithMilk" style="stroke:#000000;stroke-width:1.0;"/><polygon fill="none" points="1566.98,55.75,1587.17,62.17,1567.38,69.74,1566.98,55.75" style="stroke:#000000;stroke-width:1.0;"/></g><!--MD5=[7c37cd2d38a49756e71237c08d648f8a]
reverse link Beverage to HouseBlendWithSoy--><g id="link_Beverage_HouseBlendWithSoy"><path codeLine="4" d="M1566.97,63.96 C1324.78,74.57 625.52,109.47 404.5,167 C388.84,171.08 372.57,177.36 357.72,183.99 " fill="none" id="Beverage-backto-HouseBlendWithSoy" style="stroke:#000000;stroke-width:1.0;"/><polygon fill="none" points="1567,56.95,1587.29,63.08,1567.61,70.94,1567,56.95" style="stroke:#000000;stroke-width:1.0;"/></g><!--MD5=[f70161697a30f8f45ac538f835c9e6f3]
reverse link Beverage to HouseBlendWithMocha--><g id="link_Beverage_HouseBlendWithMocha"><path codeLine="5" d="M1567.14,60.98 C1390.87,63.76 968.51,79.85 627.5,167 C611.1,171.19 593.97,177.38 578.21,183.89 " fill="none" id="Beverage-backto-HouseBlendWithMocha" style="stroke:#000000;stroke-width:1.0;"/><polygon fill="none" points="1567.3,53.98,1587.4,60.7,1567.5,67.97,1567.3,53.98" style="stroke:#000000;stroke-width:1.0;"/></g><!--MD5=[5585bcdbe9724f9aa50646faf9a40a51]
reverse link Beverage to HouseBlendWithWhip--><g id="link_Beverage_HouseBlendWithWhip"><path codeLine="6" d="M1567.3,63.84 C1419.1,71.45 1100.72,95.39 842.5,167 C826.89,171.33 810.58,177.49 795.54,183.92 " fill="none" id="Beverage-backto-HouseBlendWithWhip" style="stroke:#000000;stroke-width:1.0;"/><polygon fill="none" points="1567.17,56.83,1587.48,62.85,1567.85,70.82,1567.17,56.83" style="stroke:#000000;stroke-width:1.0;"/></g><!--MD5=[7dee1f9f702f9b61a19bd53bfdd467a2]
reverse link Beverage to DarkRoastWithMilk--><g id="link_Beverage_DarkRoastWithMilk"><path codeLine="7" d="M1567.37,67.63 C1447.86,79.52 1221.61,108.12 1037.5,167 C1023.45,171.49 1008.83,177.64 995.34,184 " fill="none" id="Beverage-backto-DarkRoastWithMilk" style="stroke:#000000;stroke-width:1.0;"/><polygon fill="none" points="1566.79,60.66,1587.37,65.7,1568.13,74.59,1566.79,60.66" style="stroke:#000000;stroke-width:1.0;"/></g><!--MD5=[4d0ff962e630642ce43469f7fc11f5c1]
reverse link Beverage to DarkRoastWithSoy--><g id="link_Beverage_DarkRoastWithSoy"><path codeLine="8" d="M1567.53,76.98 C1482.75,94.93 1347.97,126.56 1235.5,167 C1222.01,171.85 1207.86,177.88 1194.63,183.98 " fill="none" id="Beverage-backto-DarkRoastWithSoy" style="stroke:#000000;stroke-width:1.0;"/><polygon fill="none" points="1566.16,70.11,1587.17,72.87,1569.03,83.82,1566.16,70.11" style="stroke:#000000;stroke-width:1.0;"/></g><!--MD5=[3781d86d2fa3e92d07520187e2e11b91]
reverse link Beverage to DarkRoastWithMocha--><g id="link_Beverage_DarkRoastWithMocha"><path codeLine="9" d="M1569.18,100.9 C1516.7,126.96 1449.63,160.29 1402.09,183.9 " fill="none" id="Beverage-backto-DarkRoastWithMocha" style="stroke:#000000;stroke-width:1.0;"/><polygon fill="none" points="1566.4,94.46,1587.43,91.83,1572.63,107,1566.4,94.46" style="stroke:#000000;stroke-width:1.0;"/></g><!--MD5=[d933081d554a9d99411d24fe360f0cf4]
reverse link Beverage to DarkRoastWithWhip--><g id="link_Beverage_DarkRoastWithWhip"><path codeLine="10" d="M1609.7,124.2 C1596.43,144.91 1582.34,166.91 1571.46,183.9 " fill="none" id="Beverage-backto-DarkRoastWithWhip" style="stroke:#000000;stroke-width:1.0;"/><polygon fill="none" points="1603.88,120.3,1620.56,107.24,1615.67,127.85,1603.88,120.3" style="stroke:#000000;stroke-width:1.0;"/></g><!--MD5=[55d0efacecb533f849e75e27fbbd367b]
reverse link Beverage to EspressoWithMilk--><g id="link_Beverage_EspressoWithMilk"><path codeLine="11" d="M1691.3,124.2 C1704.57,144.91 1718.66,166.91 1729.54,183.9 " fill="none" id="Beverage-backto-EspressoWithMilk" style="stroke:#000000;stroke-width:1.0;"/><polygon fill="none" points="1685.33,127.85,1680.44,107.24,1697.12,120.3,1685.33,127.85" style="stroke:#000000;stroke-width:1.0;"/></g><!--MD5=[461c1dde86404c4640ae4f5e0f239b7a]
reverse link Beverage to EspressoWithSoy--><g id="link_Beverage_EspressoWithSoy"><path codeLine="12" d="M1731.68,104.08 C1779.19,129.58 1837.93,161.12 1880.13,183.77 " fill="none" id="Beverage-backto-EspressoWithSoy" style="stroke:#000000;stroke-width:1.0;"/><polygon fill="none" points="1728.06,110.08,1713.75,94.46,1734.68,97.75,1728.06,110.08" style="stroke:#000000;stroke-width:1.0;"/></g><!--MD5=[887f1b67ed4f384506288ce19de839ab]
reverse link Beverage to EspressoWithMocha--><g id="link_Beverage_EspressoWithMocha"><path codeLine="13" d="M1733.55,80.01 C1811.1,99.13 1929.57,130.63 2029.5,167 C2043.14,171.96 2057.51,177.94 2071.03,183.94 " fill="none" id="Beverage-backto-EspressoWithMocha" style="stroke:#000000;stroke-width:1.0;"/><polygon fill="none" points="1731.55,86.73,1713.78,75.19,1734.87,73.13,1731.55,86.73" style="stroke:#000000;stroke-width:1.0;"/></g><!--MD5=[bbff4c195f996722942870919aa93e69]
reverse link Beverage to EspressoWithWhip--><g id="link_Beverage_EspressoWithWhip"><path codeLine="14" d="M1733.69,68.68 C1848.66,81.54 2061.64,111.01 2235.5,167 C2249.57,171.53 2264.23,177.66 2277.79,183.97 " fill="none" id="Beverage-backto-EspressoWithWhip" style="stroke:#000000;stroke-width:1.0;"/><polygon fill="none" points="1732.85,75.63,1713.73,66.5,1734.37,61.71,1732.85,75.63" style="stroke:#000000;stroke-width:1.0;"/></g><!--MD5=[95fe8bd2f9e1fa7caa985415e21ef911]
reverse link Beverage to DecafWithMilk--><g id="link_Beverage_DecafWithMilk"><path codeLine="15" d="M1734.03,61.31 C1879.77,65.01 2188.26,83.09 2432.5,167 C2438.27,168.98 2444.1,171.4 2449.82,174.08 " fill="none" id="Beverage-backto-DecafWithMilk" style="stroke:#000000;stroke-width:1.0;"/><polygon fill="none" points="1733.58,68.3,1713.74,60.86,1733.89,54.3,1733.58,68.3" style="stroke:#000000;stroke-width:1.0;"/></g><!--MD5=[2971239181807619c375c4bd6cebb190]
reverse link Beverage to DecafWithSoy--><g id="link_Beverage_DecafWithSoy"><path codeLine="16" d="M1733.6,65.55 C1932.94,78.37 2433.53,114.87 2592.5,167 C2605.13,171.14 2617.99,177.4 2629.62,184 " fill="none" id="Beverage-backto-DecafWithSoy" style="stroke:#000000;stroke-width:1.0;"/><polygon fill="none" points="1733.11,72.54,1713.6,64.28,1734,58.56,1733.11,72.54" style="stroke:#000000;stroke-width:1.0;"/></g><!--MD5=[a11e2be8552bba06199c88ececc49423]
reverse link Beverage to DecafWithMocha--><g id="link_Beverage_DecafWithMocha"><path codeLine="17" d="M1733.6,64.43 C1956.35,75.62 2562.83,110.53 2754.5,167 C2774.24,172.82 2794.73,183.03 2811.17,192.4 " fill="none" id="Beverage-backto-DecafWithMocha" style="stroke:#000000;stroke-width:1.0;"/><polygon fill="none" points="1733.21,71.42,1713.58,63.44,1733.9,57.44,1733.21,71.42" style="stroke:#000000;stroke-width:1.0;"/></g><!--MD5=[74d76386d044fcb86bb8f105226178f9]
reverse link Beverage to DecafWithWhip--><g id="link_Beverage_DecafWithWhip"><path codeLine="18" d="M1733.91,62.9 C1981.37,70.74 2708.26,99.08 2934.5,167 C2953.35,172.66 2972.72,182.86 2988.21,192.27 " fill="none" id="Beverage-backto-DecafWithWhip" style="stroke:#000000;stroke-width:1.0;"/><polygon fill="none" points="1733.63,69.9,1713.86,62.28,1734.06,55.9,1733.63,69.9" style="stroke:#000000;stroke-width:1.0;"/></g><!--MD5=[ee03934155613cc88d3845f9d1322937]
@startuml
!theme plain

Beverage <|- - HouseBlendWithMilk
Beverage <|- - HouseBlendWithSoy
Beverage <|- - HouseBlendWithMocha
Beverage <|- - HouseBlendWithWhip
Beverage <|- - DarkRoastWithMilk
Beverage <|- - DarkRoastWithSoy
Beverage <|- - DarkRoastWithMocha
Beverage <|- - DarkRoastWithWhip
Beverage <|- - EspressoWithMilk
Beverage <|- - EspressoWithSoy
Beverage <|- - EspressoWithMocha
Beverage <|- - EspressoWithWhip
Beverage <|- - DecafWithMilk
Beverage <|- - DecafWithSoy
Beverage <|- - DecafWithMocha
Beverage <|- - DecafWithWhip

abstract class Beverage {
  description

  getDescription()
  {abstract} cost()
}

class HouseBlendWithMilk {
  cost()
}

class HouseBlendWithSoy {
  cost()
}

class HouseBlendWithMocha {
  cost()
}

class HouseBlendWithWhip {
  cost()
}

class DarkRoastWithMilk {
  cost()
}

class DarkRoastWithSoy {
  cost()
}

class DarkRoastWithMocha {
  cost()
}

class DarkRoastWithWhip {
  cost()
}

class EspressoWithMilk {
  cost()
}

class EspressoWithSoy {
  cost()
}

class EspressoWithMocha {
  cost()
}

class EspressoWithWhip {
  cost()
}

class DecafWithSoy {
  cost()
}

class DecafWithMilk {
  cost()
}

class DecafWithMilk {
  cost()
}

class DecafWithMilk {
  cost()
}
@enduml

@startuml







<style>
  root {
    BackgroundColor white
    FontColor black
    FontName Verdana
    HyperLinkColor blue
    LineColor black
    LineThickness 1
    Margin 5
  }
  caption {
    LineThickness 0
  }
  footer {
    LineThickness 0
  }
  header {
    LineThickness 0
  }
  node {
    MaximumWidth 300
  }
  title {
    FontSize 22
    LineThickness 0
  }
</style>

skinparam ArrowLollipopColor black
skinparam BackgroundColor white
skinparam DefaultFontName Verdana
skinparam DefaultMonospacedFontName Courier
skinparam LifelineStrategy nosolid
skinparam ParticipantPadding 10
skinparam SequenceLifeLineBorderColor black
skinparam Shadowing false
skinparam UseBetaStyle true

skinparam Activity {
  BackgroundColor white
  BarColor black
  BorderColor black
  FontColor black
  FontName Verdana
}
skinparam Boundary {
  FontColor black
}
skinparam Box {
  Padding 5
}
skinparam CircledCharacter {
  FontColor black
  FontName Courier
  Radius 9
}
skinparam Class {
  BackgroundColor white
  BorderColor black
  FontColor black
  FontName Verdana
}
skinparam ClassAttribute {
  FontColor black
  FontName Verdana
}
skinparam ClassStereotype {
  FontColor black
  FontName Verdana
}
skinparam Footer {
  FontColor black
  FontName Verdana
}
skinparam Header {
  FontColor black
  FontName Verdana
}
skinparam Hyperlink {
  Color blue
}
skinparam IconPackage {
  Color black
  BackgroundColor white
}
skinparam IconPrivate {
  Color black
  BackgroundColor white
}
skinparam IconProtected {
  Color black
  BackgroundColor white
}
skinparam IconPublic {
  Color black
  BackgroundColor white
}
skinparam Note {
  FontColor black
  FontName Verdana
}
skinparam Object {
  BorderColor black
}
skinparam Package {
  BorderColor black
  FontColor black
  FontName Verdana
}
skinparam State {
  BackgroundColor white
  BorderColor black
}
skinparam StereotypeA {
  BackgroundColor white
  BorderColor black
}
skinparam StereotypeC {
  BackgroundColor white
  BorderColor black
}
skinparam StereotypeE {
  BackgroundColor white
  BorderColor black
}
skinparam StereotypeI {
  BackgroundColor white
  BorderColor black
}
skinparam StereotypeN {
  BackgroundColor white
  BorderColor black
}
skinparam UseCaseStereoType {
  FontColor black
  FontName Verdana
}

Beverage <|- - HouseBlendWithMilk
Beverage <|- - HouseBlendWithSoy
Beverage <|- - HouseBlendWithMocha
Beverage <|- - HouseBlendWithWhip
Beverage <|- - DarkRoastWithMilk
Beverage <|- - DarkRoastWithSoy
Beverage <|- - DarkRoastWithMocha
Beverage <|- - DarkRoastWithWhip
Beverage <|- - EspressoWithMilk
Beverage <|- - EspressoWithSoy
Beverage <|- - EspressoWithMocha
Beverage <|- - EspressoWithWhip
Beverage <|- - DecafWithMilk
Beverage <|- - DecafWithSoy
Beverage <|- - DecafWithMocha
Beverage <|- - DecafWithWhip

abstract class Beverage {
  description

  getDescription()
  {abstract} cost()
}

class HouseBlendWithMilk {
  cost()
}

class HouseBlendWithSoy {
  cost()
}

class HouseBlendWithMocha {
  cost()
}

class HouseBlendWithWhip {
  cost()
}

class DarkRoastWithMilk {
  cost()
}

class DarkRoastWithSoy {
  cost()
}

class DarkRoastWithMocha {
  cost()
}

class DarkRoastWithWhip {
  cost()
}

class EspressoWithMilk {
  cost()
}

class EspressoWithSoy {
  cost()
}

class EspressoWithMocha {
  cost()
}

class EspressoWithWhip {
  cost()
}

class DecafWithSoy {
  cost()
}

class DecafWithMilk {
  cost()
}

class DecafWithMilk {
  cost()
}

class DecafWithMilk {
  cost()
}
@enduml

PlantUML version 1.2022.6(Wed Jun 22 01:34:49 CST 2022)
(GPL source distribution)
Java Runtime: OpenJDK Runtime Environment
JVM: OpenJDK 64-Bit Server VM
Default Encoding: UTF-8
Language: en
Country: US
--></g></svg>