<?xml version="1.0" encoding="UTF-8" standalone="no"?><svg xmlns="http://www.w3.org/2000/svg" xmlns:xlink="http://www.w3.org/1999/xlink" contentStyleType="text/css" height="541px" preserveAspectRatio="none" style="width:429px;height:541px;background:#FFFFFF;" version="1.1" viewBox="0 0 429 541" width="429px" zoomAndPan="magnify"><defs/><g><rect fill="#FFFFFF" height="36.7373" id="_title" style="stroke:#FFFFFF;stroke-width:0.0;" width="142" x="139.25" y="10"/><text fill="#000000" font-family="Verdana" font-size="22" font-weight="bold" lengthAdjust="spacing" textLength="132" x="144.25" y="37.1182">迭代器的使用</text><!--MD5=[023ecf6702e3ca2ce47ae747eafb20f1]
class Iterator--><g id="elem_Iterator"><rect codeLine="4" fill="#FFFFFF" height="78.0293" id="Iterator" rx="2.5" ry="2.5" style="stroke:#000000;stroke-width:1.0;" width="84" x="196.5" y="318.7373"/><ellipse cx="209.5" cy="332.7373" fill="#FFFFFF" rx="9" ry="9" style="stroke:#000000;stroke-width:1.0;"/><path d="M205.4219,328.5029 L205.4219,326.3467 L212.8125,326.3467 L212.8125,328.5029 L210.3438,328.5029 L210.3438,336.5811 L212.8125,336.5811 L212.8125,338.7373 L205.4219,338.7373 L205.4219,336.5811 L207.8906,336.5811 L207.8906,328.5029 L205.4219,328.5029 Z " fill="#000000"/><text fill="#000000" font-family="Verdana" font-size="14" font-style="italic" lengthAdjust="spacing" textLength="56" x="221.5" y="338.3052">Iterator</text><line style="stroke:#000000;stroke-width:1.0;" x1="197.5" x2="279.5" y1="346.7373" y2="346.7373"/><line style="stroke:#000000;stroke-width:1.0;" x1="197.5" x2="279.5" y1="354.7373" y2="354.7373"/><text fill="#000000" font-family="Verdana" font-size="14" lengthAdjust="spacing" textLength="70" x="202.5" y="372.8125">hasNext()</text><text fill="#000000" font-family="Verdana" font-size="14" lengthAdjust="spacing" textLength="44" x="202.5" y="389.8271">next()</text></g><!--MD5=[2b5bf27e2bd79edb2813bef399e67858]
class PancakeHouseMenu--><g id="elem_PancakeHouseMenu"><rect codeLine="9" fill="#FFFFFF" height="78.0293" id="PancakeHouseMenu" rx="2.5" ry="2.5" style="stroke:#000000;stroke-width:1.0;" width="165" x="61" y="59.7373"/><ellipse cx="74" cy="73.7373" fill="#FFFFFF" rx="9" ry="9" style="stroke:#000000;stroke-width:1.0;"/><path d="M76.9688,79.3779 Q76.3906,79.6748 75.75,79.8154 Q75.1094,79.9717 74.4063,79.9717 Q71.9063,79.9717 70.5781,78.3311 Q69.2656,76.6748 69.2656,73.5498 Q69.2656,70.4248 70.5781,68.7686 Q71.9063,67.1123 74.4063,67.1123 Q75.1094,67.1123 75.75,67.2686 Q76.4063,67.4248 76.9688,67.7217 L76.9688,70.4404 Q76.3438,69.8623 75.75,69.5967 Q75.1563,69.3154 74.5313,69.3154 Q73.1875,69.3154 72.5,70.3936 Q71.8125,71.4561 71.8125,73.5498 Q71.8125,75.6436 72.5,76.7217 Q73.1875,77.7842 74.5313,77.7842 Q75.1563,77.7842 75.75,77.5186 Q76.3438,77.2373 76.9688,76.6592 L76.9688,79.3779 Z " fill="#000000"/><text fill="#000000" font-family="Verdana" font-size="14" lengthAdjust="spacing" textLength="137" x="86" y="79.3052">PancakeHouseMenu</text><line style="stroke:#000000;stroke-width:1.0;" x1="62" x2="225" y1="87.7373" y2="87.7373"/><text fill="#000000" font-family="Verdana" font-size="14" lengthAdjust="spacing" textLength="79" x="67" y="105.8125">menuItems</text><line style="stroke:#000000;stroke-width:1.0;" x1="62" x2="225" y1="112.752" y2="112.752"/><text fill="#000000" font-family="Verdana" font-size="14" lengthAdjust="spacing" textLength="109" x="67" y="130.8271">createIterator()</text></g><!--MD5=[0321b0ee8154714e00d0c54547efbb35]
class DinerMenu--><g id="elem_DinerMenu"><rect codeLine="14" fill="#FFFFFF" height="78.0293" id="DinerMenu" rx="2.5" ry="2.5" style="stroke:#000000;stroke-width:1.0;" width="121" x="266" y="59.7373"/><ellipse cx="287.55" cy="73.7373" fill="#FFFFFF" rx="9" ry="9" style="stroke:#000000;stroke-width:1.0;"/><path d="M290.5188,79.3779 Q289.9406,79.6748 289.3,79.8154 Q288.6594,79.9717 287.9563,79.9717 Q285.4563,79.9717 284.1281,78.3311 Q282.8156,76.6748 282.8156,73.5498 Q282.8156,70.4248 284.1281,68.7686 Q285.4563,67.1123 287.9563,67.1123 Q288.6594,67.1123 289.3,67.2686 Q289.9563,67.4248 290.5188,67.7217 L290.5188,70.4404 Q289.8938,69.8623 289.3,69.5967 Q288.7063,69.3154 288.0813,69.3154 Q286.7375,69.3154 286.05,70.3936 Q285.3625,71.4561 285.3625,73.5498 Q285.3625,75.6436 286.05,76.7217 Q286.7375,77.7842 288.0813,77.7842 Q288.7063,77.7842 289.3,77.5186 Q289.8938,77.2373 290.5188,76.6592 L290.5188,79.3779 Z " fill="#000000"/><text fill="#000000" font-family="Verdana" font-size="14" lengthAdjust="spacing" textLength="74" x="301.45" y="79.3052">DinerMenu</text><line style="stroke:#000000;stroke-width:1.0;" x1="267" x2="386" y1="87.7373" y2="87.7373"/><text fill="#000000" font-family="Verdana" font-size="14" lengthAdjust="spacing" textLength="79" x="272" y="105.8125">menuItems</text><line style="stroke:#000000;stroke-width:1.0;" x1="267" x2="386" y1="112.752" y2="112.752"/><text fill="#000000" font-family="Verdana" font-size="14" lengthAdjust="spacing" textLength="109" x="272" y="130.8271">createIterator()</text></g><!--MD5=[f4e843451c33ab6738cd05e6a39b4d42]
class Waitress--><g id="elem_Waitress"><rect codeLine="19" fill="#FFFFFF" height="61.0146" id="Waitress" rx="2.5" ry="2.5" style="stroke:#000000;stroke-width:1.0;" width="94" x="191.5" y="197.7373"/><ellipse cx="206.3" cy="211.7373" fill="#FFFFFF" rx="9" ry="9" style="stroke:#000000;stroke-width:1.0;"/><path d="M209.2688,217.3779 Q208.6906,217.6748 208.05,217.8154 Q207.4094,217.9717 206.7063,217.9717 Q204.2063,217.9717 202.8781,216.3311 Q201.5656,214.6748 201.5656,211.5498 Q201.5656,208.4248 202.8781,206.7686 Q204.2063,205.1123 206.7063,205.1123 Q207.4094,205.1123 208.05,205.2686 Q208.7063,205.4248 209.2688,205.7217 L209.2688,208.4404 Q208.6438,207.8623 208.05,207.5967 Q207.4563,207.3154 206.8313,207.3154 Q205.4875,207.3154 204.8,208.3936 Q204.1125,209.4561 204.1125,211.5498 Q204.1125,213.6436 204.8,214.7217 Q205.4875,215.7842 206.8313,215.7842 Q207.4563,215.7842 208.05,215.5186 Q208.6438,215.2373 209.2688,214.6592 L209.2688,217.3779 Z " fill="#000000"/><text fill="#000000" font-family="Verdana" font-size="14" lengthAdjust="spacing" textLength="62" x="218.7" y="217.3052">Waitress</text><line style="stroke:#000000;stroke-width:1.0;" x1="192.5" x2="284.5" y1="225.7373" y2="225.7373"/><line style="stroke:#000000;stroke-width:1.0;" x1="192.5" x2="284.5" y1="233.7373" y2="233.7373"/><text fill="#000000" font-family="Verdana" font-size="14" lengthAdjust="spacing" textLength="82" x="197.5" y="251.8125">printMenu()</text></g><!--MD5=[b9f2cde6e63fea0e067b2c8f71153e8c]
class PancakeHouseMenuIterator--><g id="elem_PancakeHouseMenuIterator"><rect codeLine="23" fill="#FFFFFF" height="78.0293" id="PancakeHouseMenuIterator" rx="2.5" ry="2.5" style="stroke:#000000;stroke-width:1.0;" width="219" x="12" y="456.7373"/><ellipse cx="25" cy="470.7373" fill="#FFFFFF" rx="9" ry="9" style="stroke:#000000;stroke-width:1.0;"/><path d="M27.9688,476.3779 Q27.3906,476.6748 26.75,476.8154 Q26.1094,476.9717 25.4063,476.9717 Q22.9063,476.9717 21.5781,475.3311 Q20.2656,473.6748 20.2656,470.5498 Q20.2656,467.4248 21.5781,465.7686 Q22.9063,464.1123 25.4063,464.1123 Q26.1094,464.1123 26.75,464.2686 Q27.4063,464.4248 27.9688,464.7217 L27.9688,467.4404 Q27.3438,466.8623 26.75,466.5967 Q26.1563,466.3154 25.5313,466.3154 Q24.1875,466.3154 23.5,467.3936 Q22.8125,468.4561 22.8125,470.5498 Q22.8125,472.6436 23.5,473.7217 Q24.1875,474.7842 25.5313,474.7842 Q26.1563,474.7842 26.75,474.5186 Q27.3438,474.2373 27.9688,473.6592 L27.9688,476.3779 Z " fill="#000000"/><text fill="#000000" font-family="Verdana" font-size="14" lengthAdjust="spacing" textLength="191" x="37" y="476.3052">PancakeHouseMenuIterator</text><line style="stroke:#000000;stroke-width:1.0;" x1="13" x2="230" y1="484.7373" y2="484.7373"/><line style="stroke:#000000;stroke-width:1.0;" x1="13" x2="230" y1="492.7373" y2="492.7373"/><text fill="#000000" font-family="Verdana" font-size="14" lengthAdjust="spacing" textLength="70" x="18" y="510.8125">hasNext()</text><text fill="#000000" font-family="Verdana" font-size="14" lengthAdjust="spacing" textLength="44" x="18" y="527.8271">next()</text></g><!--MD5=[77053efc788c0778d05a4d27be908146]
class DinerMenuIterator--><g id="elem_DinerMenuIterator"><rect codeLine="28" fill="#FFFFFF" height="78.0293" id="DinerMenuIterator" rx="2.5" ry="2.5" style="stroke:#000000;stroke-width:1.0;" width="156" x="266.5" y="456.7373"/><ellipse cx="279.5" cy="470.7373" fill="#FFFFFF" rx="9" ry="9" style="stroke:#000000;stroke-width:1.0;"/><path d="M282.4688,476.3779 Q281.8906,476.6748 281.25,476.8154 Q280.6094,476.9717 279.9063,476.9717 Q277.4063,476.9717 276.0781,475.3311 Q274.7656,473.6748 274.7656,470.5498 Q274.7656,467.4248 276.0781,465.7686 Q277.4063,464.1123 279.9063,464.1123 Q280.6094,464.1123 281.25,464.2686 Q281.9063,464.4248 282.4688,464.7217 L282.4688,467.4404 Q281.8438,466.8623 281.25,466.5967 Q280.6563,466.3154 280.0313,466.3154 Q278.6875,466.3154 278,467.3936 Q277.3125,468.4561 277.3125,470.5498 Q277.3125,472.6436 278,473.7217 Q278.6875,474.7842 280.0313,474.7842 Q280.6563,474.7842 281.25,474.5186 Q281.8438,474.2373 282.4688,473.6592 L282.4688,476.3779 Z " fill="#000000"/><text fill="#000000" font-family="Verdana" font-size="14" lengthAdjust="spacing" textLength="128" x="291.5" y="476.3052">DinerMenuIterator</text><line style="stroke:#000000;stroke-width:1.0;" x1="267.5" x2="421.5" y1="484.7373" y2="484.7373"/><line style="stroke:#000000;stroke-width:1.0;" x1="267.5" x2="421.5" y1="492.7373" y2="492.7373"/><text fill="#000000" font-family="Verdana" font-size="14" lengthAdjust="spacing" textLength="70" x="272.5" y="510.8125">hasNext()</text><text fill="#000000" font-family="Verdana" font-size="14" lengthAdjust="spacing" textLength="44" x="272.5" y="527.8271">next()</text></g><!--MD5=[f900e52e7358e38f413412bc12dfa101]
reverse link Iterator to PancakeHouseMenuIterator--><g id="link_Iterator_PancakeHouseMenuIterator"><path codeLine="33" d="M191.93,412.8673 C179.43,427.3973 166.17,442.8173 154.56,456.3073 " fill="none" id="Iterator-backto-PancakeHouseMenuIterator" style="stroke:#000000;stroke-width:1.0;"/><polygon fill="none" points="186.26,408.7273,204.61,398.1273,196.87,417.8573,186.26,408.7273" style="stroke:#000000;stroke-width:1.0;"/></g><!--MD5=[ab5bb8a73804a35b54dcd34254292dd9]
reverse link Iterator to DinerMenuIterator--><g id="link_Iterator_DinerMenuIterator"><path codeLine="34" d="M281.42,413.8073 C292.53,428.0673 304.26,443.1073 314.55,456.3073 " fill="none" id="Iterator-backto-DinerMenuIterator" style="stroke:#000000;stroke-width:1.0;"/><polygon fill="none" points="276.01,418.2573,269.24,398.1773,287.06,409.6473,276.01,418.2573" style="stroke:#000000;stroke-width:1.0;"/></g><!--MD5=[c547e6632ca48e3a2e38895d1fc5aa64]
reverse link PancakeHouseMenu to Waitress--><g id="link_PancakeHouseMenu_Waitress"><path codeLine="36" d="M175.72,142.9873 C189.09,160.9273 204.27,181.3073 216.36,197.5173 " fill="none" id="PancakeHouseMenu-backto-Waitress" style="stroke:#000000;stroke-width:1.0;"/><polygon fill="#000000" points="172.91,139.2073,175.0716,148.816,175.894,143.2193,181.4907,144.0416,172.91,139.2073" style="stroke:#000000;stroke-width:1.0;"/></g><!--MD5=[1a8a61357a280f0c0730002323969fc1]
reverse link DinerMenu to Waitress--><g id="link_DinerMenu_Waitress"><path codeLine="37" d="M296.65,142.9873 C284.26,160.9273 270.2,181.3073 259.01,197.5173 " fill="none" id="DinerMenu-backto-Waitress" style="stroke:#000000;stroke-width:1.0;"/><polygon fill="#000000" points="299.24,139.2373,290.833,144.3678,296.3977,143.3508,297.4146,148.9155,299.24,139.2373" style="stroke:#000000;stroke-width:1.0;"/></g><!--MD5=[a6e1bd66cfa96a19601040fce52e6335]
link Waitress to Iterator--><g id="link_Waitress_Iterator"><path codeLine="38" d="M238.5,259.1273 C238.5,274.8673 238.5,294.4673 238.5,311.9773 " fill="none" id="Waitress-to-Iterator" style="stroke:#000000;stroke-width:1.0;"/><polygon fill="#000000" points="238.5,316.8073,242.5,307.8073,238.5,311.8073,234.5,307.8073,238.5,316.8073" style="stroke:#000000;stroke-width:1.0;"/></g><!--MD5=[992f407f9bc0cf40b07c33dbb45d0023]
link PancakeHouseMenu to PancakeHouseMenuIterator--><g id="link_PancakeHouseMenu_PancakeHouseMenuIterator"><path codeLine="40" d="M141.37,137.9673 C137.28,211.4173 128.34,371.8673 123.99,450.0873 " fill="none" id="PancakeHouseMenu-to-PancakeHouseMenuIterator" style="stroke:#000000;stroke-width:1.0;"/><polygon fill="#000000" points="123.71,454.9673,128.2184,446.2109,123.9961,449.9755,120.2315,445.7532,123.71,454.9673" style="stroke:#000000;stroke-width:1.0;"/></g><!--MD5=[026e3d1726c38b1ac8414dbb4c734f26]
link DinerMenu to DinerMenuIterator--><g id="link_DinerMenu_DinerMenuIterator"><path codeLine="41" d="M328.24,137.9673 C331.59,211.4173 338.9,371.8673 342.47,450.0873 " fill="none" id="DinerMenu-to-DinerMenuIterator" style="stroke:#000000;stroke-width:1.0;"/><polygon fill="#000000" points="342.69,454.9673,346.2748,445.794,342.4617,449.9725,338.2832,446.1594,342.69,454.9673" style="stroke:#000000;stroke-width:1.0;"/></g><!--MD5=[322a860b5cab86b54c58063573e36db1]
@startuml
!theme plain
title 迭代器的使用

interface Iterator {
  hasNext()
  next()
}

class PancakeHouseMenu {
  menuItems
  createIterator()
}

class DinerMenu {
  menuItems
  createIterator()
}

class Waitress {
  printMenu()
}

class PancakeHouseMenuIterator {
  hasNext()
  next()
}

class DinerMenuIterator {
  hasNext()
  next()
}

Iterator <|- - PancakeHouseMenuIterator
Iterator <|- - DinerMenuIterator

PancakeHouseMenu <- - Waitress
DinerMenu <- - Waitress
Waitress - -> Iterator

PancakeHouseMenu - -> PancakeHouseMenuIterator
DinerMenu - -> DinerMenuIterator

@enduml

@startuml







<style>
  root {
    BackgroundColor white
    FontColor black
    FontName Verdana
    HyperLinkColor blue
    LineColor black
    LineThickness 1
    Margin 5
  }
  caption {
    LineThickness 0
  }
  footer {
    LineThickness 0
  }
  header {
    LineThickness 0
  }
  node {
    MaximumWidth 300
  }
  title {
    FontSize 22
    LineThickness 0
  }
</style>

skinparam ArrowLollipopColor black
skinparam BackgroundColor white
skinparam DefaultFontName Verdana
skinparam DefaultMonospacedFontName Courier
skinparam LifelineStrategy nosolid
skinparam ParticipantPadding 10
skinparam SequenceLifeLineBorderColor black
skinparam Shadowing false
skinparam UseBetaStyle true

skinparam Activity {
  BackgroundColor white
  BarColor black
  BorderColor black
  FontColor black
  FontName Verdana
}
skinparam Boundary {
  FontColor black
}
skinparam Box {
  Padding 5
}
skinparam CircledCharacter {
  FontColor black
  FontName Courier
  Radius 9
}
skinparam Class {
  BackgroundColor white
  BorderColor black
  FontColor black
  FontName Verdana
}
skinparam ClassAttribute {
  FontColor black
  FontName Verdana
}
skinparam ClassStereotype {
  FontColor black
  FontName Verdana
}
skinparam Footer {
  FontColor black
  FontName Verdana
}
skinparam Header {
  FontColor black
  FontName Verdana
}
skinparam Hyperlink {
  Color blue
}
skinparam IconPackage {
  Color black
  BackgroundColor white
}
skinparam IconPrivate {
  Color black
  BackgroundColor white
}
skinparam IconProtected {
  Color black
  BackgroundColor white
}
skinparam IconPublic {
  Color black
  BackgroundColor white
}
skinparam Note {
  FontColor black
  FontName Verdana
}
skinparam Object {
  BorderColor black
}
skinparam Package {
  BorderColor black
  FontColor black
  FontName Verdana
}
skinparam State {
  BackgroundColor white
  BorderColor black
}
skinparam StereotypeA {
  BackgroundColor white
  BorderColor black
}
skinparam StereotypeC {
  BackgroundColor white
  BorderColor black
}
skinparam StereotypeE {
  BackgroundColor white
  BorderColor black
}
skinparam StereotypeI {
  BackgroundColor white
  BorderColor black
}
skinparam StereotypeN {
  BackgroundColor white
  BorderColor black
}
skinparam UseCaseStereoType {
  FontColor black
  FontName Verdana
}
title 迭代器的使用

interface Iterator {
  hasNext()
  next()
}

class PancakeHouseMenu {
  menuItems
  createIterator()
}

class DinerMenu {
  menuItems
  createIterator()
}

class Waitress {
  printMenu()
}

class PancakeHouseMenuIterator {
  hasNext()
  next()
}

class DinerMenuIterator {
  hasNext()
  next()
}

Iterator <|- - PancakeHouseMenuIterator
Iterator <|- - DinerMenuIterator

PancakeHouseMenu <- - Waitress
DinerMenu <- - Waitress
Waitress - -> Iterator

PancakeHouseMenu - -> PancakeHouseMenuIterator
DinerMenu - -> DinerMenuIterator

@enduml

PlantUML version 1.2022.7(Tue Aug 23 01:01:30 CST 2022)
(GPL source distribution)
Java Runtime: OpenJDK Runtime Environment
JVM: OpenJDK 64-Bit Server VM
Default Encoding: UTF-8
Language: en
Country: US
--></g></svg>