<?xml version="1.0" encoding="UTF-8" standalone="no"?><svg xmlns="http://www.w3.org/2000/svg" xmlns:xlink="http://www.w3.org/1999/xlink" contentStyleType="text/css" height="456px" preserveAspectRatio="none" style="width:396px;height:456px;background:#FFFFFF;" version="1.1" viewBox="0 0 396 456" width="396px" zoomAndPan="magnify"><defs/><g><!--MD5=[f45f2220b0b110c1551a8318691639c0]
class Beverage--><g id="elem_Beverage"><rect codeLine="7" fill="#FFFFFF" height="316.2344" id="Beverage" rx="2.5" ry="2.5" style="stroke:#000000;stroke-width:1.0;" width="174" x="122.5" y="12"/><ellipse cx="173.25" cy="26" fill="#FFFFFF" rx="9" ry="9" style="stroke:#000000;stroke-width:1.0;"/><path d="M173.3594,21.3438 L172.2031,26.4219 L174.5313,26.4219 L173.3594,21.3438 Z M171.875,19.1094 L174.8594,19.1094 L178.2188,31.5 L175.7656,31.5 L175,28.4375 L171.7188,28.4375 L170.9688,31.5 L168.5313,31.5 L171.875,19.1094 Z " fill="#000000"/><text fill="#000000" font-family="Verdana" font-size="14" font-style="italic" lengthAdjust="spacing" textLength="65" x="190.75" y="31.5679">Beverage</text><line style="stroke:#000000;stroke-width:1.0;" x1="123.5" x2="295.5" y1="40" y2="40"/><text fill="#000000" font-family="Verdana" font-size="14" lengthAdjust="spacing" textLength="125" x="128.5" y="58.0752">String description</text><text fill="#000000" font-family="Verdana" font-size="14" lengthAdjust="spacing" textLength="88" x="128.5" y="75.0898">Boolean milk</text><text fill="#000000" font-family="Verdana" font-size="14" lengthAdjust="spacing" textLength="86" x="128.5" y="92.1045">Boolean soy</text><text fill="#000000" font-family="Verdana" font-size="14" lengthAdjust="spacing" textLength="107" x="128.5" y="109.1191">Boolean mocha</text><text fill="#000000" font-family="Verdana" font-size="14" lengthAdjust="spacing" textLength="93" x="128.5" y="126.1338">Boolean whip</text><line style="stroke:#000000;stroke-width:1.0;" x1="123.5" x2="295.5" y1="133.0732" y2="133.0732"/><text fill="#000000" font-family="Verdana" font-size="14" lengthAdjust="spacing" textLength="162" x="128.5" y="151.1484">String getDescription()</text><text fill="#000000" font-family="Verdana" font-size="14" lengthAdjust="spacing" textLength="96" x="128.5" y="168.1631">Double cost()</text><text fill="#000000" font-family="Verdana" font-size="14" lengthAdjust="spacing" textLength="5" x="128.5" y="185.1777"> </text><text fill="#000000" font-family="Verdana" font-size="14" lengthAdjust="spacing" textLength="60" x="128.5" y="202.1924">getMilk()</text><text fill="#000000" font-family="Verdana" font-size="14" lengthAdjust="spacing" textLength="59" x="128.5" y="219.207">setMilk()</text><text fill="#000000" font-family="Verdana" font-size="14" lengthAdjust="spacing" textLength="62" x="128.5" y="236.2217">getSoy()</text><text fill="#000000" font-family="Verdana" font-size="14" lengthAdjust="spacing" textLength="61" x="128.5" y="253.2363">setSoy()</text><text fill="#000000" font-family="Verdana" font-size="14" lengthAdjust="spacing" textLength="79" x="128.5" y="270.251">getMocha()</text><text fill="#000000" font-family="Verdana" font-size="14" lengthAdjust="spacing" textLength="78" x="128.5" y="287.2656">setMocha()</text><text fill="#000000" font-family="Verdana" font-size="14" lengthAdjust="spacing" textLength="71" x="128.5" y="304.2803">getWhip()</text><text fill="#000000" font-family="Verdana" font-size="14" lengthAdjust="spacing" textLength="70" x="128.5" y="321.2949">setWhip()</text></g><!--MD5=[bd7e272a4a95bdce642fcc687eddedc1]
class HouseBlend--><g id="elem_HouseBlend"><rect codeLine="27" fill="#FFFFFF" height="61.0146" id="HouseBlend" rx="2.5" ry="2.5" style="stroke:#000000;stroke-width:1.0;" width="111" x="12" y="388"/><ellipse cx="25" cy="402" fill="#FFFFFF" rx="9" ry="9" style="stroke:#000000;stroke-width:1.0;"/><path d="M27.9688,407.6406 Q27.3906,407.9375 26.75,408.0781 Q26.1094,408.2344 25.4063,408.2344 Q22.9063,408.2344 21.5781,406.5938 Q20.2656,404.9375 20.2656,401.8125 Q20.2656,398.6875 21.5781,397.0313 Q22.9063,395.375 25.4063,395.375 Q26.1094,395.375 26.75,395.5313 Q27.4063,395.6875 27.9688,395.9844 L27.9688,398.7031 Q27.3438,398.125 26.75,397.8594 Q26.1563,397.5781 25.5313,397.5781 Q24.1875,397.5781 23.5,398.6563 Q22.8125,399.7188 22.8125,401.8125 Q22.8125,403.9063 23.5,404.9844 Q24.1875,406.0469 25.5313,406.0469 Q26.1563,406.0469 26.75,405.7813 Q27.3438,405.5 27.9688,404.9219 L27.9688,407.6406 Z " fill="#000000"/><text fill="#000000" font-family="Verdana" font-size="14" lengthAdjust="spacing" textLength="83" x="37" y="407.5679">HouseBlend</text><line style="stroke:#000000;stroke-width:1.0;" x1="13" x2="122" y1="416" y2="416"/><line style="stroke:#000000;stroke-width:1.0;" x1="13" x2="122" y1="424" y2="424"/><text fill="#000000" font-family="Verdana" font-size="14" lengthAdjust="spacing" textLength="42" x="18" y="442.0752">cost()</text></g><!--MD5=[ef2f5c504d6cfaf85f831bdc93bdfcbf]
class DarkRoast--><g id="elem_DarkRoast"><rect codeLine="31" fill="#FFFFFF" height="61.0146" id="DarkRoast" rx="2.5" ry="2.5" style="stroke:#000000;stroke-width:1.0;" width="102" x="158.5" y="388"/><ellipse cx="171.5" cy="402" fill="#FFFFFF" rx="9" ry="9" style="stroke:#000000;stroke-width:1.0;"/><path d="M174.4688,407.6406 Q173.8906,407.9375 173.25,408.0781 Q172.6094,408.2344 171.9063,408.2344 Q169.4063,408.2344 168.0781,406.5938 Q166.7656,404.9375 166.7656,401.8125 Q166.7656,398.6875 168.0781,397.0313 Q169.4063,395.375 171.9063,395.375 Q172.6094,395.375 173.25,395.5313 Q173.9063,395.6875 174.4688,395.9844 L174.4688,398.7031 Q173.8438,398.125 173.25,397.8594 Q172.6563,397.5781 172.0313,397.5781 Q170.6875,397.5781 170,398.6563 Q169.3125,399.7188 169.3125,401.8125 Q169.3125,403.9063 170,404.9844 Q170.6875,406.0469 172.0313,406.0469 Q172.6563,406.0469 173.25,405.7813 Q173.8438,405.5 174.4688,404.9219 L174.4688,407.6406 Z " fill="#000000"/><text fill="#000000" font-family="Verdana" font-size="14" lengthAdjust="spacing" textLength="74" x="183.5" y="407.5679">DarkRoast</text><line style="stroke:#000000;stroke-width:1.0;" x1="159.5" x2="259.5" y1="416" y2="416"/><line style="stroke:#000000;stroke-width:1.0;" x1="159.5" x2="259.5" y1="424" y2="424"/><text fill="#000000" font-family="Verdana" font-size="14" lengthAdjust="spacing" textLength="42" x="164.5" y="442.0752">cost()</text></g><!--MD5=[f5ea9ff06fc8109cace2c9440d07df67]
class Espresso--><g id="elem_Espresso"><rect codeLine="35" fill="#FFFFFF" height="61.0146" id="Espresso" rx="2.5" ry="2.5" style="stroke:#000000;stroke-width:1.0;" width="93" x="296" y="388"/><ellipse cx="309" cy="402" fill="#FFFFFF" rx="9" ry="9" style="stroke:#000000;stroke-width:1.0;"/><path d="M311.9688,407.6406 Q311.3906,407.9375 310.75,408.0781 Q310.1094,408.2344 309.4063,408.2344 Q306.9063,408.2344 305.5781,406.5938 Q304.2656,404.9375 304.2656,401.8125 Q304.2656,398.6875 305.5781,397.0313 Q306.9063,395.375 309.4063,395.375 Q310.1094,395.375 310.75,395.5313 Q311.4063,395.6875 311.9688,395.9844 L311.9688,398.7031 Q311.3438,398.125 310.75,397.8594 Q310.1563,397.5781 309.5313,397.5781 Q308.1875,397.5781 307.5,398.6563 Q306.8125,399.7188 306.8125,401.8125 Q306.8125,403.9063 307.5,404.9844 Q308.1875,406.0469 309.5313,406.0469 Q310.1563,406.0469 310.75,405.7813 Q311.3438,405.5 311.9688,404.9219 L311.9688,407.6406 Z " fill="#000000"/><text fill="#000000" font-family="Verdana" font-size="14" lengthAdjust="spacing" textLength="65" x="321" y="407.5679">Espresso</text><line style="stroke:#000000;stroke-width:1.0;" x1="297" x2="388" y1="416" y2="416"/><line style="stroke:#000000;stroke-width:1.0;" x1="297" x2="388" y1="424" y2="424"/><text fill="#000000" font-family="Verdana" font-size="14" lengthAdjust="spacing" textLength="42" x="302" y="442.0752">cost()</text></g><!--MD5=[45d306746d61aae6853d584fda6d9989]
reverse link Beverage to HouseBlend--><g id="link_Beverage_HouseBlend"><path codeLine="3" d="M112.33,339.67 C101.85,357.88 92.24,374.55 84.64,387.75 " fill="none" id="Beverage-backto-HouseBlend" style="stroke:#000000;stroke-width:1.0;"/><polygon fill="none" points="106.35,336.03,122.4,322.2,118.48,343.02,106.35,336.03" style="stroke:#000000;stroke-width:1.0;"/></g><!--MD5=[07a2fcabb36df965a4c7bf35e4d074c0]
reverse link Beverage to DarkRoast--><g id="link_Beverage_DarkRoast"><path codeLine="4" d="M209.5,348.36 C209.5,363.23 209.5,376.79 209.5,387.88 " fill="none" id="Beverage-backto-DarkRoast" style="stroke:#000000;stroke-width:1.0;"/><polygon fill="none" points="202.5,348.16,209.5,328.16,216.5,348.16,202.5,348.16" style="stroke:#000000;stroke-width:1.0;"/></g><!--MD5=[9ab9d4bf547d7982b0339bff1cafba9c]
reverse link Beverage to Espresso--><g id="link_Beverage_Espresso"><path codeLine="5" d="M303.84,345.84 C312.39,361.7 320.2,376.16 326.52,387.88 " fill="none" id="Beverage-backto-Espresso" style="stroke:#000000;stroke-width:1.0;"/><polygon fill="none" points="297.63,349.08,294.3,328.16,309.95,342.44,297.63,349.08" style="stroke:#000000;stroke-width:1.0;"/></g><!--MD5=[c9e8e3669dbf88faa36ac758afac1491]
@startuml
!theme plain

Beverage <|- - HouseBlend
Beverage <|- - DarkRoast
Beverage <|- - Espresso

abstract class Beverage {
  String description
  Boolean milk
  Boolean soy
  Boolean mocha
  Boolean whip

  String getDescription()
  Double cost()

  getMilk()
  setMilk()
  getSoy()
  setSoy()
  getMocha()
  setMocha()
  getWhip()
  setWhip()
}

class HouseBlend {
  cost()
}

class DarkRoast {
  cost()
}

class Espresso {
  cost()
}

@enduml

@startuml







<style>
  root {
    BackgroundColor white
    FontColor black
    FontName Verdana
    HyperLinkColor blue
    LineColor black
    LineThickness 1
    Margin 5
  }
  caption {
    LineThickness 0
  }
  footer {
    LineThickness 0
  }
  header {
    LineThickness 0
  }
  node {
    MaximumWidth 300
  }
  title {
    FontSize 22
    LineThickness 0
  }
</style>

skinparam ArrowLollipopColor black
skinparam BackgroundColor white
skinparam DefaultFontName Verdana
skinparam DefaultMonospacedFontName Courier
skinparam LifelineStrategy nosolid
skinparam ParticipantPadding 10
skinparam SequenceLifeLineBorderColor black
skinparam Shadowing false
skinparam UseBetaStyle true

skinparam Activity {
  BackgroundColor white
  BarColor black
  BorderColor black
  FontColor black
  FontName Verdana
}
skinparam Boundary {
  FontColor black
}
skinparam Box {
  Padding 5
}
skinparam CircledCharacter {
  FontColor black
  FontName Courier
  Radius 9
}
skinparam Class {
  BackgroundColor white
  BorderColor black
  FontColor black
  FontName Verdana
}
skinparam ClassAttribute {
  FontColor black
  FontName Verdana
}
skinparam ClassStereotype {
  FontColor black
  FontName Verdana
}
skinparam Footer {
  FontColor black
  FontName Verdana
}
skinparam Header {
  FontColor black
  FontName Verdana
}
skinparam Hyperlink {
  Color blue
}
skinparam IconPackage {
  Color black
  BackgroundColor white
}
skinparam IconPrivate {
  Color black
  BackgroundColor white
}
skinparam IconProtected {
  Color black
  BackgroundColor white
}
skinparam IconPublic {
  Color black
  BackgroundColor white
}
skinparam Note {
  FontColor black
  FontName Verdana
}
skinparam Object {
  BorderColor black
}
skinparam Package {
  BorderColor black
  FontColor black
  FontName Verdana
}
skinparam State {
  BackgroundColor white
  BorderColor black
}
skinparam StereotypeA {
  BackgroundColor white
  BorderColor black
}
skinparam StereotypeC {
  BackgroundColor white
  BorderColor black
}
skinparam StereotypeE {
  BackgroundColor white
  BorderColor black
}
skinparam StereotypeI {
  BackgroundColor white
  BorderColor black
}
skinparam StereotypeN {
  BackgroundColor white
  BorderColor black
}
skinparam UseCaseStereoType {
  FontColor black
  FontName Verdana
}

Beverage <|- - HouseBlend
Beverage <|- - DarkRoast
Beverage <|- - Espresso

abstract class Beverage {
  String description
  Boolean milk
  Boolean soy
  Boolean mocha
  Boolean whip

  String getDescription()
  Double cost()

  getMilk()
  setMilk()
  getSoy()
  setSoy()
  getMocha()
  setMocha()
  getWhip()
  setWhip()
}

class HouseBlend {
  cost()
}

class DarkRoast {
  cost()
}

class Espresso {
  cost()
}

@enduml

PlantUML version 1.2022.6(Wed Jun 22 01:34:49 CST 2022)
(GPL source distribution)
Java Runtime: OpenJDK Runtime Environment
JVM: OpenJDK 64-Bit Server VM
Default Encoding: UTF-8
Language: en
Country: US
--></g></svg>