<?xml version="1.0" encoding="UTF-8" standalone="no"?><svg xmlns="http://www.w3.org/2000/svg" xmlns:xlink="http://www.w3.org/1999/xlink" contentStyleType="text/css" height="218px" preserveAspectRatio="none" style="width:2096px;height:218px;background:#FFFFFF;" version="1.1" viewBox="0 0 2096 218" width="2096px" zoomAndPan="magnify"><defs/><g><!--MD5=[26f5c61a402468dcc7e4daedc2568d01]
class PizzaStore--><g id="elem_PizzaStore"><rect codeLine="2" fill="#FFFFFF" height="78.0293" id="PizzaStore" rx="2.5" ry="2.5" style="stroke:#000000;stroke-width:1.0;" width="102" x="108.5" y="12"/><ellipse cx="122.4" cy="26" fill="#FFFFFF" rx="9" ry="9" style="stroke:#000000;stroke-width:1.0;"/><path d="M122.5094,21.3438 L121.3531,26.4219 L123.6813,26.4219 L122.5094,21.3438 Z M121.025,19.1094 L124.0094,19.1094 L127.3688,31.5 L124.9156,31.5 L124.15,28.4375 L120.8688,28.4375 L120.1188,31.5 L117.6813,31.5 L121.025,19.1094 Z " fill="#000000"/><text fill="#000000" font-family="Verdana" font-size="14" font-style="italic" lengthAdjust="spacing" textLength="72" x="134.6" y="31.5679">PizzaStore</text><line style="stroke:#000000;stroke-width:1.0;" x1="109.5" x2="209.5" y1="40" y2="40"/><line style="stroke:#000000;stroke-width:1.0;" x1="109.5" x2="209.5" y1="48" y2="48"/><text fill="#000000" font-family="Verdana" font-size="14" font-style="italic" lengthAdjust="spacing" textLength="90" x="114.5" y="66.0752">createPizza()</text><text fill="#000000" font-family="Verdana" font-size="14" lengthAdjust="spacing" textLength="85" x="114.5" y="83.0898">orderPizza()</text></g><!--MD5=[8c04977af96283d87084f008fe3725f3]
class NYPizzaStore--><g id="elem_NYPizzaStore"><rect codeLine="7" fill="#FFFFFF" height="61.0146" id="NYPizzaStore" rx="2.5" ry="2.5" style="stroke:#000000;stroke-width:1.0;" width="121" x="12" y="150"/><ellipse cx="25" cy="164" fill="#FFFFFF" rx="9" ry="9" style="stroke:#000000;stroke-width:1.0;"/><path d="M27.9688,169.6406 Q27.3906,169.9375 26.75,170.0781 Q26.1094,170.2344 25.4063,170.2344 Q22.9063,170.2344 21.5781,168.5938 Q20.2656,166.9375 20.2656,163.8125 Q20.2656,160.6875 21.5781,159.0313 Q22.9063,157.375 25.4063,157.375 Q26.1094,157.375 26.75,157.5313 Q27.4063,157.6875 27.9688,157.9844 L27.9688,160.7031 Q27.3438,160.125 26.75,159.8594 Q26.1563,159.5781 25.5313,159.5781 Q24.1875,159.5781 23.5,160.6563 Q22.8125,161.7188 22.8125,163.8125 Q22.8125,165.9063 23.5,166.9844 Q24.1875,168.0469 25.5313,168.0469 Q26.1563,168.0469 26.75,167.7813 Q27.3438,167.5 27.9688,166.9219 L27.9688,169.6406 Z " fill="#000000"/><text fill="#000000" font-family="Verdana" font-size="14" lengthAdjust="spacing" textLength="93" x="37" y="169.5679">NYPizzaStore</text><line style="stroke:#000000;stroke-width:1.0;" x1="13" x2="132" y1="178" y2="178"/><line style="stroke:#000000;stroke-width:1.0;" x1="13" x2="132" y1="186" y2="186"/><text fill="#000000" font-family="Verdana" font-size="14" lengthAdjust="spacing" textLength="90" x="18" y="204.0752">createPizza()</text></g><!--MD5=[7dfaa3cdae4bc038d1f67fa8678eb5d0]
class ChicagoPizzaStore--><g id="elem_ChicagoPizzaStore"><rect codeLine="11" fill="#FFFFFF" height="61.0146" id="ChicagoPizzaStore" rx="2.5" ry="2.5" style="stroke:#000000;stroke-width:1.0;" width="157" x="168" y="150"/><ellipse cx="181" cy="164" fill="#FFFFFF" rx="9" ry="9" style="stroke:#000000;stroke-width:1.0;"/><path d="M183.9688,169.6406 Q183.3906,169.9375 182.75,170.0781 Q182.1094,170.2344 181.4063,170.2344 Q178.9063,170.2344 177.5781,168.5938 Q176.2656,166.9375 176.2656,163.8125 Q176.2656,160.6875 177.5781,159.0313 Q178.9063,157.375 181.4063,157.375 Q182.1094,157.375 182.75,157.5313 Q183.4063,157.6875 183.9688,157.9844 L183.9688,160.7031 Q183.3438,160.125 182.75,159.8594 Q182.1563,159.5781 181.5313,159.5781 Q180.1875,159.5781 179.5,160.6563 Q178.8125,161.7188 178.8125,163.8125 Q178.8125,165.9063 179.5,166.9844 Q180.1875,168.0469 181.5313,168.0469 Q182.1563,168.0469 182.75,167.7813 Q183.3438,167.5 183.9688,166.9219 L183.9688,169.6406 Z " fill="#000000"/><text fill="#000000" font-family="Verdana" font-size="14" lengthAdjust="spacing" textLength="129" x="193" y="169.5679">ChicagoPizzaStore</text><line style="stroke:#000000;stroke-width:1.0;" x1="169" x2="324" y1="178" y2="178"/><line style="stroke:#000000;stroke-width:1.0;" x1="169" x2="324" y1="186" y2="186"/><text fill="#000000" font-family="Verdana" font-size="14" lengthAdjust="spacing" textLength="90" x="174" y="204.0752">createPizza()</text></g><!--MD5=[5c5a2dd8ed299478ae091ad6bda6d6bd]
class Pizza--><g id="elem_Pizza"><rect codeLine="18" fill="#FFFFFF" height="44" id="Pizza" rx="2.5" ry="2.5" style="stroke:#000000;stroke-width:1.0;" width="62" x="1131.5" y="29"/><ellipse cx="1144.5" cy="43" fill="#FFFFFF" rx="9" ry="9" style="stroke:#000000;stroke-width:1.0;"/><path d="M1144.6094,38.3438 L1143.4531,43.4219 L1145.7813,43.4219 L1144.6094,38.3438 Z M1143.125,36.1094 L1146.1094,36.1094 L1149.4688,48.5 L1147.0156,48.5 L1146.25,45.4375 L1142.9688,45.4375 L1142.2188,48.5 L1139.7813,48.5 L1143.125,36.1094 Z " fill="#000000"/><text fill="#000000" font-family="Verdana" font-size="14" font-style="italic" lengthAdjust="spacing" textLength="34" x="1156.5" y="48.5679">Pizza</text><line style="stroke:#000000;stroke-width:1.0;" x1="1132.5" x2="1192.5" y1="57" y2="57"/><line style="stroke:#000000;stroke-width:1.0;" x1="1132.5" x2="1192.5" y1="65" y2="65"/></g><!--MD5=[466c7a54d14799a3d082976584b7eea7]
class NYStyleCheesePizza--><g id="elem_NYStyleCheesePizza"><rect codeLine="19" fill="#FFFFFF" height="44" id="NYStyleCheesePizza" rx="2.5" ry="2.5" style="stroke:#000000;stroke-width:1.0;" width="168" x="360.5" y="158.5"/><ellipse cx="373.5" cy="172.5" fill="#FFFFFF" rx="9" ry="9" style="stroke:#000000;stroke-width:1.0;"/><path d="M376.4688,178.1406 Q375.8906,178.4375 375.25,178.5781 Q374.6094,178.7344 373.9063,178.7344 Q371.4063,178.7344 370.0781,177.0938 Q368.7656,175.4375 368.7656,172.3125 Q368.7656,169.1875 370.0781,167.5313 Q371.4063,165.875 373.9063,165.875 Q374.6094,165.875 375.25,166.0313 Q375.9063,166.1875 376.4688,166.4844 L376.4688,169.2031 Q375.8438,168.625 375.25,168.3594 Q374.6563,168.0781 374.0313,168.0781 Q372.6875,168.0781 372,169.1563 Q371.3125,170.2188 371.3125,172.3125 Q371.3125,174.4063 372,175.4844 Q372.6875,176.5469 374.0313,176.5469 Q374.6563,176.5469 375.25,176.2813 Q375.8438,176 376.4688,175.4219 L376.4688,178.1406 Z " fill="#000000"/><text fill="#000000" font-family="Verdana" font-size="14" lengthAdjust="spacing" textLength="140" x="385.5" y="178.0679">NYStyleCheesePizza</text><line style="stroke:#000000;stroke-width:1.0;" x1="361.5" x2="527.5" y1="186.5" y2="186.5"/><line style="stroke:#000000;stroke-width:1.0;" x1="361.5" x2="527.5" y1="194.5" y2="194.5"/></g><!--MD5=[a76d7a67a0c82c2545579483790fd264]
class NYStylePepperoniPizza--><g id="elem_NYStylePepperoniPizza"><rect codeLine="20" fill="#FFFFFF" height="44" id="NYStylePepperoniPizza" rx="2.5" ry="2.5" style="stroke:#000000;stroke-width:1.0;" width="186" x="563.5" y="158.5"/><ellipse cx="576.5" cy="172.5" fill="#FFFFFF" rx="9" ry="9" style="stroke:#000000;stroke-width:1.0;"/><path d="M579.4688,178.1406 Q578.8906,178.4375 578.25,178.5781 Q577.6094,178.7344 576.9063,178.7344 Q574.4063,178.7344 573.0781,177.0938 Q571.7656,175.4375 571.7656,172.3125 Q571.7656,169.1875 573.0781,167.5313 Q574.4063,165.875 576.9063,165.875 Q577.6094,165.875 578.25,166.0313 Q578.9063,166.1875 579.4688,166.4844 L579.4688,169.2031 Q578.8438,168.625 578.25,168.3594 Q577.6563,168.0781 577.0313,168.0781 Q575.6875,168.0781 575,169.1563 Q574.3125,170.2188 574.3125,172.3125 Q574.3125,174.4063 575,175.4844 Q575.6875,176.5469 577.0313,176.5469 Q577.6563,176.5469 578.25,176.2813 Q578.8438,176 579.4688,175.4219 L579.4688,178.1406 Z " fill="#000000"/><text fill="#000000" font-family="Verdana" font-size="14" lengthAdjust="spacing" textLength="158" x="588.5" y="178.0679">NYStylePepperoniPizza</text><line style="stroke:#000000;stroke-width:1.0;" x1="564.5" x2="748.5" y1="186.5" y2="186.5"/><line style="stroke:#000000;stroke-width:1.0;" x1="564.5" x2="748.5" y1="194.5" y2="194.5"/></g><!--MD5=[7012c540a7210c10f466863e915e20e1]
class NYStyleClamPizza--><g id="elem_NYStyleClamPizza"><rect codeLine="21" fill="#FFFFFF" height="44" id="NYStyleClamPizza" rx="2.5" ry="2.5" style="stroke:#000000;stroke-width:1.0;" width="151" x="785" y="158.5"/><ellipse cx="798" cy="172.5" fill="#FFFFFF" rx="9" ry="9" style="stroke:#000000;stroke-width:1.0;"/><path d="M800.9688,178.1406 Q800.3906,178.4375 799.75,178.5781 Q799.1094,178.7344 798.4063,178.7344 Q795.9063,178.7344 794.5781,177.0938 Q793.2656,175.4375 793.2656,172.3125 Q793.2656,169.1875 794.5781,167.5313 Q795.9063,165.875 798.4063,165.875 Q799.1094,165.875 799.75,166.0313 Q800.4063,166.1875 800.9688,166.4844 L800.9688,169.2031 Q800.3438,168.625 799.75,168.3594 Q799.1563,168.0781 798.5313,168.0781 Q797.1875,168.0781 796.5,169.1563 Q795.8125,170.2188 795.8125,172.3125 Q795.8125,174.4063 796.5,175.4844 Q797.1875,176.5469 798.5313,176.5469 Q799.1563,176.5469 799.75,176.2813 Q800.3438,176 800.9688,175.4219 L800.9688,178.1406 Z " fill="#000000"/><text fill="#000000" font-family="Verdana" font-size="14" lengthAdjust="spacing" textLength="123" x="810" y="178.0679">NYStyleClamPizza</text><line style="stroke:#000000;stroke-width:1.0;" x1="786" x2="935" y1="186.5" y2="186.5"/><line style="stroke:#000000;stroke-width:1.0;" x1="786" x2="935" y1="194.5" y2="194.5"/></g><!--MD5=[73957a9e78ae293c4461ec423c525419]
class NYStyleVeggiePizza--><g id="elem_NYStyleVeggiePizza"><rect codeLine="22" fill="#FFFFFF" height="44" id="NYStyleVeggiePizza" rx="2.5" ry="2.5" style="stroke:#000000;stroke-width:1.0;" width="164" x="971.5" y="158.5"/><ellipse cx="984.5" cy="172.5" fill="#FFFFFF" rx="9" ry="9" style="stroke:#000000;stroke-width:1.0;"/><path d="M987.4688,178.1406 Q986.8906,178.4375 986.25,178.5781 Q985.6094,178.7344 984.9063,178.7344 Q982.4063,178.7344 981.0781,177.0938 Q979.7656,175.4375 979.7656,172.3125 Q979.7656,169.1875 981.0781,167.5313 Q982.4063,165.875 984.9063,165.875 Q985.6094,165.875 986.25,166.0313 Q986.9063,166.1875 987.4688,166.4844 L987.4688,169.2031 Q986.8438,168.625 986.25,168.3594 Q985.6563,168.0781 985.0313,168.0781 Q983.6875,168.0781 983,169.1563 Q982.3125,170.2188 982.3125,172.3125 Q982.3125,174.4063 983,175.4844 Q983.6875,176.5469 985.0313,176.5469 Q985.6563,176.5469 986.25,176.2813 Q986.8438,176 987.4688,175.4219 L987.4688,178.1406 Z " fill="#000000"/><text fill="#000000" font-family="Verdana" font-size="14" lengthAdjust="spacing" textLength="136" x="996.5" y="178.0679">NYStyleVeggiePizza</text><line style="stroke:#000000;stroke-width:1.0;" x1="972.5" x2="1134.5" y1="186.5" y2="186.5"/><line style="stroke:#000000;stroke-width:1.0;" x1="972.5" x2="1134.5" y1="194.5" y2="194.5"/></g><!--MD5=[196bfe110504d7625f5213f09b3256f5]
class ChicagoStyleCheesePizza--><g id="elem_ChicagoStyleCheesePizza"><rect codeLine="24" fill="#FFFFFF" height="44" id="ChicagoStyleCheesePizza" rx="2.5" ry="2.5" style="stroke:#000000;stroke-width:1.0;" width="204" x="1170.5" y="158.5"/><ellipse cx="1183.5" cy="172.5" fill="#FFFFFF" rx="9" ry="9" style="stroke:#000000;stroke-width:1.0;"/><path d="M1186.4688,178.1406 Q1185.8906,178.4375 1185.25,178.5781 Q1184.6094,178.7344 1183.9063,178.7344 Q1181.4063,178.7344 1180.0781,177.0938 Q1178.7656,175.4375 1178.7656,172.3125 Q1178.7656,169.1875 1180.0781,167.5313 Q1181.4063,165.875 1183.9063,165.875 Q1184.6094,165.875 1185.25,166.0313 Q1185.9063,166.1875 1186.4688,166.4844 L1186.4688,169.2031 Q1185.8438,168.625 1185.25,168.3594 Q1184.6563,168.0781 1184.0313,168.0781 Q1182.6875,168.0781 1182,169.1563 Q1181.3125,170.2188 1181.3125,172.3125 Q1181.3125,174.4063 1182,175.4844 Q1182.6875,176.5469 1184.0313,176.5469 Q1184.6563,176.5469 1185.25,176.2813 Q1185.8438,176 1186.4688,175.4219 L1186.4688,178.1406 Z " fill="#000000"/><text fill="#000000" font-family="Verdana" font-size="14" lengthAdjust="spacing" textLength="176" x="1195.5" y="178.0679">ChicagoStyleCheesePizza</text><line style="stroke:#000000;stroke-width:1.0;" x1="1171.5" x2="1373.5" y1="186.5" y2="186.5"/><line style="stroke:#000000;stroke-width:1.0;" x1="1171.5" x2="1373.5" y1="194.5" y2="194.5"/></g><!--MD5=[956b8774d23b982f6fecf659c7199e41]
class ChicagoStylePepperoniPizza--><g id="elem_ChicagoStylePepperoniPizza"><rect codeLine="25" fill="#FFFFFF" height="44" id="ChicagoStylePepperoniPizza" rx="2.5" ry="2.5" style="stroke:#000000;stroke-width:1.0;" width="222" x="1409.5" y="158.5"/><ellipse cx="1422.5" cy="172.5" fill="#FFFFFF" rx="9" ry="9" style="stroke:#000000;stroke-width:1.0;"/><path d="M1425.4688,178.1406 Q1424.8906,178.4375 1424.25,178.5781 Q1423.6094,178.7344 1422.9063,178.7344 Q1420.4063,178.7344 1419.0781,177.0938 Q1417.7656,175.4375 1417.7656,172.3125 Q1417.7656,169.1875 1419.0781,167.5313 Q1420.4063,165.875 1422.9063,165.875 Q1423.6094,165.875 1424.25,166.0313 Q1424.9063,166.1875 1425.4688,166.4844 L1425.4688,169.2031 Q1424.8438,168.625 1424.25,168.3594 Q1423.6563,168.0781 1423.0313,168.0781 Q1421.6875,168.0781 1421,169.1563 Q1420.3125,170.2188 1420.3125,172.3125 Q1420.3125,174.4063 1421,175.4844 Q1421.6875,176.5469 1423.0313,176.5469 Q1423.6563,176.5469 1424.25,176.2813 Q1424.8438,176 1425.4688,175.4219 L1425.4688,178.1406 Z " fill="#000000"/><text fill="#000000" font-family="Verdana" font-size="14" lengthAdjust="spacing" textLength="194" x="1434.5" y="178.0679">ChicagoStylePepperoniPizza</text><line style="stroke:#000000;stroke-width:1.0;" x1="1410.5" x2="1630.5" y1="186.5" y2="186.5"/><line style="stroke:#000000;stroke-width:1.0;" x1="1410.5" x2="1630.5" y1="194.5" y2="194.5"/></g><!--MD5=[e3e33bd8811654e2666d3e467e04487a]
class ChicagoStyleClamPizza--><g id="elem_ChicagoStyleClamPizza"><rect codeLine="26" fill="#FFFFFF" height="44" id="ChicagoStyleClamPizza" rx="2.5" ry="2.5" style="stroke:#000000;stroke-width:1.0;" width="187" x="1667" y="158.5"/><ellipse cx="1680" cy="172.5" fill="#FFFFFF" rx="9" ry="9" style="stroke:#000000;stroke-width:1.0;"/><path d="M1682.9688,178.1406 Q1682.3906,178.4375 1681.75,178.5781 Q1681.1094,178.7344 1680.4063,178.7344 Q1677.9063,178.7344 1676.5781,177.0938 Q1675.2656,175.4375 1675.2656,172.3125 Q1675.2656,169.1875 1676.5781,167.5313 Q1677.9063,165.875 1680.4063,165.875 Q1681.1094,165.875 1681.75,166.0313 Q1682.4063,166.1875 1682.9688,166.4844 L1682.9688,169.2031 Q1682.3438,168.625 1681.75,168.3594 Q1681.1563,168.0781 1680.5313,168.0781 Q1679.1875,168.0781 1678.5,169.1563 Q1677.8125,170.2188 1677.8125,172.3125 Q1677.8125,174.4063 1678.5,175.4844 Q1679.1875,176.5469 1680.5313,176.5469 Q1681.1563,176.5469 1681.75,176.2813 Q1682.3438,176 1682.9688,175.4219 L1682.9688,178.1406 Z " fill="#000000"/><text fill="#000000" font-family="Verdana" font-size="14" lengthAdjust="spacing" textLength="159" x="1692" y="178.0679">ChicagoStyleClamPizza</text><line style="stroke:#000000;stroke-width:1.0;" x1="1668" x2="1853" y1="186.5" y2="186.5"/><line style="stroke:#000000;stroke-width:1.0;" x1="1668" x2="1853" y1="194.5" y2="194.5"/></g><!--MD5=[df9b188da0ac1e08e9bd094812d0dd4c]
class ChicagoStyleVeggiePizza--><g id="elem_ChicagoStyleVeggiePizza"><rect codeLine="27" fill="#FFFFFF" height="44" id="ChicagoStyleVeggiePizza" rx="2.5" ry="2.5" style="stroke:#000000;stroke-width:1.0;" width="200" x="1889.5" y="158.5"/><ellipse cx="1902.5" cy="172.5" fill="#FFFFFF" rx="9" ry="9" style="stroke:#000000;stroke-width:1.0;"/><path d="M1905.4688,178.1406 Q1904.8906,178.4375 1904.25,178.5781 Q1903.6094,178.7344 1902.9063,178.7344 Q1900.4063,178.7344 1899.0781,177.0938 Q1897.7656,175.4375 1897.7656,172.3125 Q1897.7656,169.1875 1899.0781,167.5313 Q1900.4063,165.875 1902.9063,165.875 Q1903.6094,165.875 1904.25,166.0313 Q1904.9063,166.1875 1905.4688,166.4844 L1905.4688,169.2031 Q1904.8438,168.625 1904.25,168.3594 Q1903.6563,168.0781 1903.0313,168.0781 Q1901.6875,168.0781 1901,169.1563 Q1900.3125,170.2188 1900.3125,172.3125 Q1900.3125,174.4063 1901,175.4844 Q1901.6875,176.5469 1903.0313,176.5469 Q1903.6563,176.5469 1904.25,176.2813 Q1904.8438,176 1905.4688,175.4219 L1905.4688,178.1406 Z " fill="#000000"/><text fill="#000000" font-family="Verdana" font-size="14" lengthAdjust="spacing" textLength="172" x="1914.5" y="178.0679">ChicagoStyleVeggiePizza</text><line style="stroke:#000000;stroke-width:1.0;" x1="1890.5" x2="2088.5" y1="186.5" y2="186.5"/><line style="stroke:#000000;stroke-width:1.0;" x1="1890.5" x2="2088.5" y1="194.5" y2="194.5"/></g><!--MD5=[3b945ed581789e1a054b639c7e4c6f90]
reverse link PizzaStore to NYPizzaStore--><g id="link_PizzaStore_NYPizzaStore"><path codeLine="15" d="M121.96,107.02 C111.93,121.71 101.48,137.03 92.78,149.78 " fill="none" id="PizzaStore-backto-NYPizzaStore" style="stroke:#000000;stroke-width:1.0;"/><polygon fill="none" points="116.34,102.83,133.4,90.25,127.91,110.72,116.34,102.83" style="stroke:#000000;stroke-width:1.0;"/></g><!--MD5=[85f8c6a5276f9ec62453b4c43cc67357]
reverse link PizzaStore to ChicagoPizzaStore--><g id="link_PizzaStore_ChicagoPizzaStore"><path codeLine="16" d="M197.04,107.02 C207.07,121.71 217.52,137.03 226.22,149.78 " fill="none" id="PizzaStore-backto-ChicagoPizzaStore" style="stroke:#000000;stroke-width:1.0;"/><polygon fill="none" points="191.09,110.72,185.6,90.25,202.66,102.83,191.09,110.72" style="stroke:#000000;stroke-width:1.0;"/></g><!--MD5=[0efd7702098c42da1bce89da961e9029]
reverse link Pizza to NYStyleCheesePizza--><g id="link_Pizza_NYStyleCheesePizza"><path codeLine="30" d="M1111.31,57.9 C1005.07,70.64 753.2,103.37 545.5,150 C534.63,152.44 523.2,155.39 512.1,158.48 " fill="none" id="Pizza-backto-NYStyleCheesePizza" style="stroke:#000000;stroke-width:1.0;"/><polygon fill="none" points="1110.74,50.92,1131.42,55.52,1112.38,64.82,1110.74,50.92" style="stroke:#000000;stroke-width:1.0;"/></g><!--MD5=[fcda66341131a87a54095913d2a3a6bc]
reverse link Pizza to NYStylePepperoniPizza--><g id="link_Pizza_NYStylePepperoniPizza"><path codeLine="31" d="M1111.76,64.3 C1036.52,82.61 890.93,118.29 767.5,150 C756.97,152.7 745.9,155.59 734.99,158.47 " fill="none" id="Pizza-backto-NYStylePepperoniPizza" style="stroke:#000000;stroke-width:1.0;"/><polygon fill="none" points="1110.39,57.43,1131.47,59.51,1113.69,71.04,1110.39,57.43" style="stroke:#000000;stroke-width:1.0;"/></g><!--MD5=[03f019dfcaaa8508490ee741e3e3247a]
reverse link Pizza to NYStyleClamPizza--><g id="link_Pizza_NYStyleClamPizza"><path codeLine="32" d="M1112.73,73.01 C1056.79,96.63 966.48,134.76 910.46,158.41 " fill="none" id="Pizza-backto-NYStyleClamPizza" style="stroke:#000000;stroke-width:1.0;"/><polygon fill="none" points="1110.17,66.49,1131.32,65.16,1115.62,79.39,1110.17,66.49" style="stroke:#000000;stroke-width:1.0;"/></g><!--MD5=[2876ebdfbba06d55af9bfdea2bb9aa32]
reverse link Pizza to NYStyleVeggiePizza--><g id="link_Pizza_NYStyleVeggiePizza"><path codeLine="33" d="M1131.44,88.34 C1112.05,111.01 1087.79,139.39 1071.53,158.41 " fill="none" id="Pizza-backto-NYStyleVeggiePizza" style="stroke:#000000;stroke-width:1.0;"/><polygon fill="none" points="1126.18,83.71,1144.5,73.05,1136.83,92.8,1126.18,83.71" style="stroke:#000000;stroke-width:1.0;"/></g><!--MD5=[d87649b01ab7b35444e71ab5454722f6]
reverse link Pizza to ChicagoStyleCheesePizza--><g id="link_Pizza_ChicagoStyleCheesePizza"><path codeLine="34" d="M1193.85,88.34 C1213.41,111.01 1237.9,139.39 1254.31,158.41 " fill="none" id="Pizza-backto-ChicagoStyleCheesePizza" style="stroke:#000000;stroke-width:1.0;"/><polygon fill="none" points="1188.43,92.77,1180.66,73.05,1199.03,83.62,1188.43,92.77" style="stroke:#000000;stroke-width:1.0;"/></g><!--MD5=[da921a65583c3b334e0d75ee7d1e2540]
reverse link Pizza to ChicagoStylePepperoniPizza--><g id="link_Pizza_ChicagoStylePepperoniPizza"><path codeLine="35" d="M1212.62,69.85 C1277.88,93.09 1391.79,133.66 1461.25,158.4 " fill="none" id="Pizza-backto-ChicagoStylePepperoniPizza" style="stroke:#000000;stroke-width:1.0;"/><polygon fill="none" points="1210.14,76.4,1193.64,63.09,1214.83,63.21,1210.14,76.4" style="stroke:#000000;stroke-width:1.0;"/></g><!--MD5=[aa965f1fbad6674c5f5e2cab4ead1677]
reverse link Pizza to ChicagoStyleClamPizza--><g id="link_Pizza_ChicagoStyleClamPizza"><path codeLine="36" d="M1213.58,61.21 C1302.51,77.49 1491.41,113.12 1649.5,150 C1660.67,152.6 1672.42,155.53 1683.92,158.49 " fill="none" id="Pizza-backto-ChicagoStyleClamPizza" style="stroke:#000000;stroke-width:1.0;"/><polygon fill="none" points="1212.12,68.06,1193.69,57.59,1214.62,54.29,1212.12,68.06" style="stroke:#000000;stroke-width:1.0;"/></g><!--MD5=[6ef183418e243ceae1838534a545e941]
reverse link Pizza to ChicagoStyleVeggiePizza--><g id="link_Pizza_ChicagoStyleVeggiePizza"><path codeLine="37" d="M1213.86,57.18 C1331.09,69.42 1627.13,102.71 1871.5,150 C1884.15,152.45 1897.47,155.4 1910.42,158.49 " fill="none" id="Pizza-backto-ChicagoStyleVeggiePizza" style="stroke:#000000;stroke-width:1.0;"/><polygon fill="none" points="1212.97,64.13,1193.8,55.11,1214.41,50.2,1212.97,64.13" style="stroke:#000000;stroke-width:1.0;"/></g><!--MD5=[d17ddf83ed9792e9ea36fcab55a64fa5]
@startuml
!theme plain
abstract class PizzaStore {
  {abstract} createPizza()
  orderPizza()
}

class NYPizzaStore {
  createPizza()
}

class ChicagoPizzaStore {
  createPizza()
}

PizzaStore <|- - NYPizzaStore
PizzaStore <|- - ChicagoPizzaStore

abstract class Pizza {}
class NYStyleCheesePizza {}
class NYStylePepperoniPizza {}
class NYStyleClamPizza {}
class NYStyleVeggiePizza {}

class ChicagoStyleCheesePizza {}
class ChicagoStylePepperoniPizza {}
class ChicagoStyleClamPizza {}
class ChicagoStyleVeggiePizza {}


Pizza <|- - NYStyleCheesePizza
Pizza <|- - NYStylePepperoniPizza
Pizza <|- - NYStyleClamPizza
Pizza <|- - NYStyleVeggiePizza
Pizza <|- - ChicagoStyleCheesePizza
Pizza <|- - ChicagoStylePepperoniPizza
Pizza <|- - ChicagoStyleClamPizza
Pizza <|- - ChicagoStyleVeggiePizza

@enduml

@startuml







<style>
  root {
    BackgroundColor white
    FontColor black
    FontName Verdana
    HyperLinkColor blue
    LineColor black
    LineThickness 1
    Margin 5
  }
  caption {
    LineThickness 0
  }
  footer {
    LineThickness 0
  }
  header {
    LineThickness 0
  }
  node {
    MaximumWidth 300
  }
  title {
    FontSize 22
    LineThickness 0
  }
</style>

skinparam ArrowLollipopColor black
skinparam BackgroundColor white
skinparam DefaultFontName Verdana
skinparam DefaultMonospacedFontName Courier
skinparam LifelineStrategy nosolid
skinparam ParticipantPadding 10
skinparam SequenceLifeLineBorderColor black
skinparam Shadowing false
skinparam UseBetaStyle true

skinparam Activity {
  BackgroundColor white
  BarColor black
  BorderColor black
  FontColor black
  FontName Verdana
}
skinparam Boundary {
  FontColor black
}
skinparam Box {
  Padding 5
}
skinparam CircledCharacter {
  FontColor black
  FontName Courier
  Radius 9
}
skinparam Class {
  BackgroundColor white
  BorderColor black
  FontColor black
  FontName Verdana
}
skinparam ClassAttribute {
  FontColor black
  FontName Verdana
}
skinparam ClassStereotype {
  FontColor black
  FontName Verdana
}
skinparam Footer {
  FontColor black
  FontName Verdana
}
skinparam Header {
  FontColor black
  FontName Verdana
}
skinparam Hyperlink {
  Color blue
}
skinparam IconPackage {
  Color black
  BackgroundColor white
}
skinparam IconPrivate {
  Color black
  BackgroundColor white
}
skinparam IconProtected {
  Color black
  BackgroundColor white
}
skinparam IconPublic {
  Color black
  BackgroundColor white
}
skinparam Note {
  FontColor black
  FontName Verdana
}
skinparam Object {
  BorderColor black
}
skinparam Package {
  BorderColor black
  FontColor black
  FontName Verdana
}
skinparam State {
  BackgroundColor white
  BorderColor black
}
skinparam StereotypeA {
  BackgroundColor white
  BorderColor black
}
skinparam StereotypeC {
  BackgroundColor white
  BorderColor black
}
skinparam StereotypeE {
  BackgroundColor white
  BorderColor black
}
skinparam StereotypeI {
  BackgroundColor white
  BorderColor black
}
skinparam StereotypeN {
  BackgroundColor white
  BorderColor black
}
skinparam UseCaseStereoType {
  FontColor black
  FontName Verdana
}
abstract class PizzaStore {
  {abstract} createPizza()
  orderPizza()
}

class NYPizzaStore {
  createPizza()
}

class ChicagoPizzaStore {
  createPizza()
}

PizzaStore <|- - NYPizzaStore
PizzaStore <|- - ChicagoPizzaStore

abstract class Pizza {}
class NYStyleCheesePizza {}
class NYStylePepperoniPizza {}
class NYStyleClamPizza {}
class NYStyleVeggiePizza {}

class ChicagoStyleCheesePizza {}
class ChicagoStylePepperoniPizza {}
class ChicagoStyleClamPizza {}
class ChicagoStyleVeggiePizza {}


Pizza <|- - NYStyleCheesePizza
Pizza <|- - NYStylePepperoniPizza
Pizza <|- - NYStyleClamPizza
Pizza <|- - NYStyleVeggiePizza
Pizza <|- - ChicagoStyleCheesePizza
Pizza <|- - ChicagoStylePepperoniPizza
Pizza <|- - ChicagoStyleClamPizza
Pizza <|- - ChicagoStyleVeggiePizza

@enduml

PlantUML version 1.2022.7(Tue Aug 23 01:01:30 CST 2022)
(GPL source distribution)
Java Runtime: OpenJDK Runtime Environment
JVM: OpenJDK 64-Bit Server VM
Default Encoding: UTF-8
Language: en
Country: US
--></g></svg>