<?xml version="1.0" encoding="UTF-8" standalone="no"?><svg xmlns="http://www.w3.org/2000/svg" xmlns:xlink="http://www.w3.org/1999/xlink" contentStyleType="text/css" height="401px" preserveAspectRatio="none" style="width:988px;height:401px;background:#FFFFFF;" version="1.1" viewBox="0 0 988 401" width="988px" zoomAndPan="magnify"><defs/><g><!--MD5=[d0da0a299942266ebd64acf2b2e95fa4]
class Subject--><g id="elem_Subject"><rect codeLine="14" fill="#FFFFFF" height="95.0439" id="Subject" rx="2.5" ry="2.5" style="stroke:#000000;stroke-width:1.0;" width="142" x="219" y="58.2295"/><ellipse cx="259.25" cy="72.2295" fill="#FFFFFF" rx="9" ry="9" style="stroke:#000000;stroke-width:1.0;"/><path d="M255.1719,67.9951 L255.1719,65.8389 L262.5625,65.8389 L262.5625,67.9951 L260.0938,67.9951 L260.0938,76.0732 L262.5625,76.0732 L262.5625,78.2295 L255.1719,78.2295 L255.1719,76.0732 L257.6406,76.0732 L257.6406,67.9951 L255.1719,67.9951 Z " fill="#000000"/><text fill="#000000" font-family="Verdana" font-size="14" font-style="italic" lengthAdjust="spacing" textLength="54" x="276.75" y="77.7974">Subject</text><line style="stroke:#000000;stroke-width:1.0;" x1="220" x2="360" y1="86.2295" y2="86.2295"/><line style="stroke:#000000;stroke-width:1.0;" x1="220" x2="360" y1="94.2295" y2="94.2295"/><text fill="#000000" font-family="Verdana" font-size="14" lengthAdjust="spacing" textLength="130" x="225" y="112.3047">registerObserver()</text><text fill="#000000" font-family="Verdana" font-size="14" lengthAdjust="spacing" textLength="128" x="225" y="129.3193">removeObserver()</text><text fill="#000000" font-family="Verdana" font-size="14" lengthAdjust="spacing" textLength="116" x="225" y="146.334">notifyObserver()</text></g><!--MD5=[dd430b671f247037c3d3af64e9fb01da]
class WeatherData--><g id="elem_WeatherData"><rect codeLine="20" fill="#FFFFFF" height="180.1172" id="WeatherData" rx="2.5" ry="2.5" style="stroke:#000000;stroke-width:1.0;" width="190" x="12" y="214.2295"/><ellipse cx="56.75" cy="228.2295" fill="#FFFFFF" rx="9" ry="9" style="stroke:#000000;stroke-width:1.0;"/><path d="M59.7188,233.8701 Q59.1406,234.167 58.5,234.3076 Q57.8594,234.4639 57.1563,234.4639 Q54.6563,234.4639 53.3281,232.8232 Q52.0156,231.167 52.0156,228.042 Q52.0156,224.917 53.3281,223.2607 Q54.6563,221.6045 57.1563,221.6045 Q57.8594,221.6045 58.5,221.7607 Q59.1563,221.917 59.7188,222.2139 L59.7188,224.9326 Q59.0938,224.3545 58.5,224.0889 Q57.9063,223.8076 57.2813,223.8076 Q55.9375,223.8076 55.25,224.8857 Q54.5625,225.9482 54.5625,228.042 Q54.5625,230.1357 55.25,231.2139 Q55.9375,232.2764 57.2813,232.2764 Q57.9063,232.2764 58.5,232.0107 Q59.0938,231.7295 59.7188,231.1514 L59.7188,233.8701 Z " fill="#000000"/><text fill="#000000" font-family="Verdana" font-size="14" lengthAdjust="spacing" textLength="93" x="74.25" y="233.7974">WeatherData</text><line style="stroke:#000000;stroke-width:1.0;" x1="13" x2="201" y1="242.2295" y2="242.2295"/><line style="stroke:#000000;stroke-width:1.0;" x1="13" x2="201" y1="250.2295" y2="250.2295"/><text fill="#000000" font-family="Verdana" font-size="14" lengthAdjust="spacing" textLength="130" x="18" y="268.3047">registerObserver()</text><text fill="#000000" font-family="Verdana" font-size="14" lengthAdjust="spacing" textLength="128" x="18" y="285.3193">removeObserver()</text><text fill="#000000" font-family="Verdana" font-size="14" lengthAdjust="spacing" textLength="116" x="18" y="302.334">notifyObserver()</text><text fill="#000000" font-family="Verdana" font-size="14" lengthAdjust="spacing" textLength="5" x="18" y="319.3486"> </text><text fill="#000000" font-family="Verdana" font-size="14" lengthAdjust="spacing" textLength="125" x="18" y="336.3633">getTemperature()</text><text fill="#000000" font-family="Verdana" font-size="14" lengthAdjust="spacing" textLength="96" x="18" y="353.3779">getHumidity()</text><text fill="#000000" font-family="Verdana" font-size="14" lengthAdjust="spacing" textLength="96" x="18" y="370.3926">getPressure()</text><text fill="#000000" font-family="Verdana" font-size="14" lengthAdjust="spacing" textLength="178" x="18" y="387.4072">measurementsChanged()</text></g><!--MD5=[d40932010816485ec57b44b6eea2392a]
class Observer--><g id="elem_Observer"><rect codeLine="31" fill="#FFFFFF" height="61.0146" id="Observer" rx="2.5" ry="2.5" style="stroke:#000000;stroke-width:1.0;" width="91" x="569.5" y="75.2295"/><ellipse cx="582.5" cy="89.2295" fill="#FFFFFF" rx="9" ry="9" style="stroke:#000000;stroke-width:1.0;"/><path d="M578.4219,84.9951 L578.4219,82.8389 L585.8125,82.8389 L585.8125,84.9951 L583.3438,84.9951 L583.3438,93.0732 L585.8125,93.0732 L585.8125,95.2295 L578.4219,95.2295 L578.4219,93.0732 L580.8906,93.0732 L580.8906,84.9951 L578.4219,84.9951 Z " fill="#000000"/><text fill="#000000" font-family="Verdana" font-size="14" font-style="italic" lengthAdjust="spacing" textLength="63" x="594.5" y="94.7974">Observer</text><line style="stroke:#000000;stroke-width:1.0;" x1="570.5" x2="659.5" y1="103.2295" y2="103.2295"/><line style="stroke:#000000;stroke-width:1.0;" x1="570.5" x2="659.5" y1="111.2295" y2="111.2295"/><text fill="#000000" font-family="Verdana" font-size="14" lengthAdjust="spacing" textLength="61" x="575.5" y="129.3047">update()</text></g><!--MD5=[21ee70214d070d545642beb8c75f25d8]
class CurrentConditionsDisplay--><g id="elem_CurrentConditionsDisplay"><rect codeLine="39" fill="#FFFFFF" height="78.0293" id="CurrentConditionsDisplay" rx="2.5" ry="2.5" style="stroke:#000000;stroke-width:1.0;" width="207" x="774.5" y="265.2295"/><ellipse cx="787.5" cy="279.2295" fill="#FFFFFF" rx="9" ry="9" style="stroke:#000000;stroke-width:1.0;"/><path d="M790.4688,284.8701 Q789.8906,285.167 789.25,285.3076 Q788.6094,285.4639 787.9063,285.4639 Q785.4063,285.4639 784.0781,283.8232 Q782.7656,282.167 782.7656,279.042 Q782.7656,275.917 784.0781,274.2607 Q785.4063,272.6045 787.9063,272.6045 Q788.6094,272.6045 789.25,272.7607 Q789.9063,272.917 790.4688,273.2139 L790.4688,275.9326 Q789.8438,275.3545 789.25,275.0889 Q788.6563,274.8076 788.0313,274.8076 Q786.6875,274.8076 786,275.8857 Q785.3125,276.9482 785.3125,279.042 Q785.3125,281.1357 786,282.2139 Q786.6875,283.2764 788.0313,283.2764 Q788.6563,283.2764 789.25,283.0107 Q789.8438,282.7295 790.4688,282.1514 L790.4688,284.8701 Z " fill="#000000"/><text fill="#000000" font-family="Verdana" font-size="14" lengthAdjust="spacing" textLength="179" x="799.5" y="284.7974">CurrentConditionsDisplay</text><line style="stroke:#000000;stroke-width:1.0;" x1="775.5" x2="980.5" y1="293.2295" y2="293.2295"/><line style="stroke:#000000;stroke-width:1.0;" x1="775.5" x2="980.5" y1="301.2295" y2="301.2295"/><text fill="#000000" font-family="Verdana" font-size="14" lengthAdjust="spacing" textLength="61" x="780.5" y="319.3047">update()</text><text fill="#000000" font-family="Verdana" font-size="14" lengthAdjust="spacing" textLength="60" x="780.5" y="336.3193">display()</text></g><!--MD5=[eec51a66d6ef8c9d6fcb15493d697f85]
class StatisticsDisplay--><g id="elem_StatisticsDisplay"><rect codeLine="44" fill="#FFFFFF" height="78.0293" id="StatisticsDisplay" rx="2.5" ry="2.5" style="stroke:#000000;stroke-width:1.0;" width="143" x="237.5" y="265.2295"/><ellipse cx="250.5" cy="279.2295" fill="#FFFFFF" rx="9" ry="9" style="stroke:#000000;stroke-width:1.0;"/><path d="M253.4688,284.8701 Q252.8906,285.167 252.25,285.3076 Q251.6094,285.4639 250.9063,285.4639 Q248.4063,285.4639 247.0781,283.8232 Q245.7656,282.167 245.7656,279.042 Q245.7656,275.917 247.0781,274.2607 Q248.4063,272.6045 250.9063,272.6045 Q251.6094,272.6045 252.25,272.7607 Q252.9063,272.917 253.4688,273.2139 L253.4688,275.9326 Q252.8438,275.3545 252.25,275.0889 Q251.6563,274.8076 251.0313,274.8076 Q249.6875,274.8076 249,275.8857 Q248.3125,276.9482 248.3125,279.042 Q248.3125,281.1357 249,282.2139 Q249.6875,283.2764 251.0313,283.2764 Q251.6563,283.2764 252.25,283.0107 Q252.8438,282.7295 253.4688,282.1514 L253.4688,284.8701 Z " fill="#000000"/><text fill="#000000" font-family="Verdana" font-size="14" lengthAdjust="spacing" textLength="115" x="262.5" y="284.7974">StatisticsDisplay</text><line style="stroke:#000000;stroke-width:1.0;" x1="238.5" x2="379.5" y1="293.2295" y2="293.2295"/><line style="stroke:#000000;stroke-width:1.0;" x1="238.5" x2="379.5" y1="301.2295" y2="301.2295"/><text fill="#000000" font-family="Verdana" font-size="14" lengthAdjust="spacing" textLength="61" x="243.5" y="319.3047">update()</text><text fill="#000000" font-family="Verdana" font-size="14" lengthAdjust="spacing" textLength="60" x="243.5" y="336.3193">display()</text></g><!--MD5=[0c5b86180f045f00e8d5f9a51a584ce2]
class ForecastDisplay--><g id="elem_ForecastDisplay"><rect codeLine="49" fill="#FFFFFF" height="78.0293" id="ForecastDisplay" rx="2.5" ry="2.5" style="stroke:#000000;stroke-width:1.0;" width="138" x="601" y="265.2295"/><ellipse cx="614" cy="279.2295" fill="#FFFFFF" rx="9" ry="9" style="stroke:#000000;stroke-width:1.0;"/><path d="M616.9688,284.8701 Q616.3906,285.167 615.75,285.3076 Q615.1094,285.4639 614.4063,285.4639 Q611.9063,285.4639 610.5781,283.8232 Q609.2656,282.167 609.2656,279.042 Q609.2656,275.917 610.5781,274.2607 Q611.9063,272.6045 614.4063,272.6045 Q615.1094,272.6045 615.75,272.7607 Q616.4063,272.917 616.9688,273.2139 L616.9688,275.9326 Q616.3438,275.3545 615.75,275.0889 Q615.1563,274.8076 614.5313,274.8076 Q613.1875,274.8076 612.5,275.8857 Q611.8125,276.9482 611.8125,279.042 Q611.8125,281.1357 612.5,282.2139 Q613.1875,283.2764 614.5313,283.2764 Q615.1563,283.2764 615.75,283.0107 Q616.3438,282.7295 616.9688,282.1514 L616.9688,284.8701 Z " fill="#000000"/><text fill="#000000" font-family="Verdana" font-size="14" lengthAdjust="spacing" textLength="110" x="626" y="284.7974">ForecastDisplay</text><line style="stroke:#000000;stroke-width:1.0;" x1="602" x2="738" y1="293.2295" y2="293.2295"/><line style="stroke:#000000;stroke-width:1.0;" x1="602" x2="738" y1="301.2295" y2="301.2295"/><text fill="#000000" font-family="Verdana" font-size="14" lengthAdjust="spacing" textLength="61" x="607" y="319.3047">update()</text><text fill="#000000" font-family="Verdana" font-size="14" lengthAdjust="spacing" textLength="60" x="607" y="336.3193">display()</text></g><!--MD5=[bc07ab1af7d1149f6f107f733b75e9b5]
class ThirdPartyDisplay--><g id="elem_ThirdPartyDisplay"><rect codeLine="54" fill="#FFFFFF" height="78.0293" id="ThirdPartyDisplay" rx="2.5" ry="2.5" style="stroke:#000000;stroke-width:1.0;" width="150" x="416" y="265.2295"/><ellipse cx="429" cy="279.2295" fill="#FFFFFF" rx="9" ry="9" style="stroke:#000000;stroke-width:1.0;"/><path d="M431.9688,284.8701 Q431.3906,285.167 430.75,285.3076 Q430.1094,285.4639 429.4063,285.4639 Q426.9063,285.4639 425.5781,283.8232 Q424.2656,282.167 424.2656,279.042 Q424.2656,275.917 425.5781,274.2607 Q426.9063,272.6045 429.4063,272.6045 Q430.1094,272.6045 430.75,272.7607 Q431.4063,272.917 431.9688,273.2139 L431.9688,275.9326 Q431.3438,275.3545 430.75,275.0889 Q430.1563,274.8076 429.5313,274.8076 Q428.1875,274.8076 427.5,275.8857 Q426.8125,276.9482 426.8125,279.042 Q426.8125,281.1357 427.5,282.2139 Q428.1875,283.2764 429.5313,283.2764 Q430.1563,283.2764 430.75,283.0107 Q431.3438,282.7295 431.9688,282.1514 L431.9688,284.8701 Z " fill="#000000"/><text fill="#000000" font-family="Verdana" font-size="14" lengthAdjust="spacing" textLength="122" x="441" y="284.7974">ThirdPartyDisplay</text><line style="stroke:#000000;stroke-width:1.0;" x1="417" x2="565" y1="293.2295" y2="293.2295"/><line style="stroke:#000000;stroke-width:1.0;" x1="417" x2="565" y1="301.2295" y2="301.2295"/><text fill="#000000" font-family="Verdana" font-size="14" lengthAdjust="spacing" textLength="61" x="422" y="319.3047">update()</text><text fill="#000000" font-family="Verdana" font-size="14" lengthAdjust="spacing" textLength="60" x="422" y="336.3193">display()</text></g><!--MD5=[297a0fef87b4e1353b7422f9b4d8cc2e]
class DisplayElement--><g id="elem_DisplayElement"><rect codeLine="35" fill="#FFFFFF" height="61.0146" id="DisplayElement" rx="2.5" ry="2.5" style="stroke:#000000;stroke-width:1.0;" width="138" x="396" y="75.2295"/><ellipse cx="409" cy="89.2295" fill="#FFFFFF" rx="9" ry="9" style="stroke:#000000;stroke-width:1.0;"/><path d="M404.9219,84.9951 L404.9219,82.8389 L412.3125,82.8389 L412.3125,84.9951 L409.8438,84.9951 L409.8438,93.0732 L412.3125,93.0732 L412.3125,95.2295 L404.9219,95.2295 L404.9219,93.0732 L407.3906,93.0732 L407.3906,84.9951 L404.9219,84.9951 Z " fill="#000000"/><text fill="#000000" font-family="Verdana" font-size="14" font-style="italic" lengthAdjust="spacing" textLength="110" x="421" y="94.7974">DisplayElement</text><line style="stroke:#000000;stroke-width:1.0;" x1="397" x2="533" y1="103.2295" y2="103.2295"/><line style="stroke:#000000;stroke-width:1.0;" x1="397" x2="533" y1="111.2295" y2="111.2295"/><text fill="#000000" font-family="Verdana" font-size="14" lengthAdjust="spacing" textLength="60" x="402" y="129.3047">display()</text></g><!--MD5=[4d145dea50b85159b1ac157b12c5ef9a]
reverse link Subject to WeatherData--><g id="link_Subject_WeatherData"><path codeLine="3" d="M232.91,168.0295 C219.27,182.6695 204.44,198.5995 189.9,214.2095 " fill="none" id="Subject-backto-WeatherData" style="stroke:#000000;stroke-width:1.0;stroke-dasharray:7.0,7.0;"/><polygon fill="none" points="227.88,163.1595,246.63,153.2995,238.12,172.6995,227.88,163.1595" style="stroke:#000000;stroke-width:1.0;"/></g><!--MD5=[17985df0d7710a982d77374bbb28b463]
link Subject to Observer--><g id="link_Subject_Observer"><path codeLine="4" d="M352.57,57.9695 C390.12,34.9495 439.4,14.4195 485.5,25.2295 C518.88,33.0595 551.63,53.5695 575.84,71.9195 " fill="none" id="Subject-to-Observer" style="stroke:#000000;stroke-width:1.0;"/><polygon fill="#000000" points="579.96,75.0895,575.2487,66.4406,575.991,72.0485,570.3831,72.7909,579.96,75.0895" style="stroke:#000000;stroke-width:1.0;"/><text fill="#000000" font-family="Verdana" font-size="13" lengthAdjust="spacing" textLength="39" x="445.5" y="25.2993">观察者</text></g><!--MD5=[71c5a4510c64614cacd0040bacfc7544]
reverse link Observer to CurrentConditionsDisplay--><g id="link_Observer_CurrentConditionsDisplay"><path codeLine="5" d="M670.72,148.3595 C716.85,182.8295 781.85,231.3895 826.71,264.9095 " fill="none" id="Observer-backto-CurrentConditionsDisplay" style="stroke:#000000;stroke-width:1.0;stroke-dasharray:7.0,7.0;"/><polygon fill="none" points="666.49,153.9395,654.66,136.3595,674.87,142.7195,666.49,153.9395" style="stroke:#000000;stroke-width:1.0;"/></g><!--MD5=[2bcb0a47cf608b713d9071c9a2849b0b]
reverse link Observer to StatisticsDisplay--><g id="link_Observer_StatisticsDisplay"><path codeLine="6" d="M561.1,147.8495 C558.07,149.7395 555.02,151.5495 552,153.2295 C488.03,188.8095 460.25,174.1395 399,214.2295 C377.67,228.1895 357.19,247.7695 341.17,265.0195 " fill="none" id="Observer-backto-StatisticsDisplay" style="stroke:#000000;stroke-width:1.0;stroke-dasharray:7.0,7.0;"/><polygon fill="none" points="557.58,141.7795,578.08,136.4095,565.41,153.3895,557.58,141.7795" style="stroke:#000000;stroke-width:1.0;"/></g><!--MD5=[7ecb7c8e0148d76c0abeb0d63a045250]
reverse link Observer to ForecastDisplay--><g id="link_Observer_ForecastDisplay"><path codeLine="7" d="M628.8,156.0395 C638.25,189.7995 650.59,233.8995 659.3,264.9895 " fill="none" id="Observer-backto-ForecastDisplay" style="stroke:#000000;stroke-width:1.0;stroke-dasharray:7.0,7.0;"/><polygon fill="none" points="622,157.7195,623.35,136.5695,635.49,153.9495,622,157.7195" style="stroke:#000000;stroke-width:1.0;"/></g><!--MD5=[8c72b0978d3bc940fd66a76d6b2599aa]
reverse link Observer to ThirdPartyDisplay--><g id="link_Observer_ThirdPartyDisplay"><path codeLine="8" d="M585.38,153.6695 C563.9,187.7095 535.22,233.1595 515.13,264.9895 " fill="none" id="Observer-backto-ThirdPartyDisplay" style="stroke:#000000;stroke-width:1.0;stroke-dasharray:7.0,7.0;"/><polygon fill="none" points="579.57,149.7495,596.17,136.5695,591.41,157.2195,579.57,149.7495" style="stroke:#000000;stroke-width:1.0;"/></g><!--MD5=[b13bdce0f597f37136d2bd8d4a46acc3]
reverse link DisplayElement to CurrentConditionsDisplay--><g id="link_DisplayElement_CurrentConditionsDisplay"><path codeLine="9" d="M534.25,145.3295 C540.18,148.1495 546.15,150.8295 552,153.2295 C639.92,189.3695 671.89,171.8795 757,214.2295 C784.32,227.8195 811.94,247.5795 833.88,265.0295 " fill="none" id="DisplayElement-backto-CurrentConditionsDisplay" style="stroke:#000000;stroke-width:1.0;stroke-dasharray:7.0,7.0;"/><polygon fill="none" points="530.91,151.4795,516.16,136.2695,537.18,138.9595,530.91,151.4795" style="stroke:#000000;stroke-width:1.0;"/></g><!--MD5=[d17cc8ea90d6a1d7054f18666455591b]
reverse link DisplayElement to StatisticsDisplay--><g id="link_DisplayElement_StatisticsDisplay"><path codeLine="10" d="M428.85,152.2695 C401.71,186.4495 364.98,232.7195 339.36,264.9895 " fill="none" id="DisplayElement-backto-StatisticsDisplay" style="stroke:#000000;stroke-width:1.0;stroke-dasharray:7.0,7.0;"/><polygon fill="none" points="423.39,147.8895,441.31,136.5695,434.35,156.5895,423.39,147.8895" style="stroke:#000000;stroke-width:1.0;"/></g><!--MD5=[114179d18ae80a3a67e94fb1923de588]
reverse link DisplayElement to ForecastDisplay--><g id="link_DisplayElement_ForecastDisplay"><path codeLine="11" d="M513.94,149.5895 C535.7,168.9995 561.45,192.4295 584,214.2295 C600.84,230.5095 618.93,249.0595 634.15,264.9995 " fill="none" id="DisplayElement-backto-ForecastDisplay" style="stroke:#000000;stroke-width:1.0;stroke-dasharray:7.0,7.0;"/><polygon fill="none" points="509.22,154.7595,498.9,136.2495,518.51,144.2895,509.22,154.7595" style="stroke:#000000;stroke-width:1.0;"/></g><!--MD5=[2bcb0c1489444680d87edc4925d68a71]
reverse link DisplayElement to ThirdPartyDisplay--><g id="link_DisplayElement_ThirdPartyDisplay"><path codeLine="12" d="M471.59,156.5195 C476.05,190.2095 481.85,234.0395 485.94,264.9895 " fill="none" id="DisplayElement-backto-ThirdPartyDisplay" style="stroke:#000000;stroke-width:1.0;stroke-dasharray:7.0,7.0;"/><polygon fill="none" points="464.63,157.3195,468.95,136.5695,478.51,155.4795,464.63,157.3195" style="stroke:#000000;stroke-width:1.0;"/></g><!--MD5=[423b2499ef480b01063dc72fd43dddd9]
@startuml
!theme plain

Subject <|.. WeatherData
Subject -> Observer : 观察者
Observer <|.. CurrentConditionsDisplay
Observer <|.. StatisticsDisplay
Observer <|.. ForecastDisplay
Observer <|.. ThirdPartyDisplay
DisplayElement <|.. CurrentConditionsDisplay
DisplayElement <|.. StatisticsDisplay
DisplayElement <|.. ForecastDisplay
DisplayElement <|.. ThirdPartyDisplay

interface Subject {
  registerObserver()
  removeObserver()
  notifyObserver()
}

class WeatherData {
  registerObserver()
  removeObserver()
  notifyObserver()

  getTemperature()
  getHumidity()
  getPressure()
  measurementsChanged()
}

interface Observer {
  update()
}

interface DisplayElement {
  display()
}

class CurrentConditionsDisplay {
  update()
  display()
}

class StatisticsDisplay {
  update()
  display()
}

class ForecastDisplay {
  update()
  display()
}

class ThirdPartyDisplay {
  update()
  display()
}
@enduml

@startuml







<style>
  root {
    BackgroundColor white
    FontColor black
    FontName Verdana
    HyperLinkColor blue
    LineColor black
    LineThickness 1
    Margin 5
  }
  caption {
    LineThickness 0
  }
  footer {
    LineThickness 0
  }
  header {
    LineThickness 0
  }
  node {
    MaximumWidth 300
  }
  title {
    FontSize 22
    LineThickness 0
  }
</style>

skinparam ArrowLollipopColor black
skinparam BackgroundColor white
skinparam DefaultFontName Verdana
skinparam DefaultMonospacedFontName Courier
skinparam LifelineStrategy nosolid
skinparam ParticipantPadding 10
skinparam SequenceLifeLineBorderColor black
skinparam Shadowing false
skinparam UseBetaStyle true

skinparam Activity {
  BackgroundColor white
  BarColor black
  BorderColor black
  FontColor black
  FontName Verdana
}
skinparam Boundary {
  FontColor black
}
skinparam Box {
  Padding 5
}
skinparam CircledCharacter {
  FontColor black
  FontName Courier
  Radius 9
}
skinparam Class {
  BackgroundColor white
  BorderColor black
  FontColor black
  FontName Verdana
}
skinparam ClassAttribute {
  FontColor black
  FontName Verdana
}
skinparam ClassStereotype {
  FontColor black
  FontName Verdana
}
skinparam Footer {
  FontColor black
  FontName Verdana
}
skinparam Header {
  FontColor black
  FontName Verdana
}
skinparam Hyperlink {
  Color blue
}
skinparam IconPackage {
  Color black
  BackgroundColor white
}
skinparam IconPrivate {
  Color black
  BackgroundColor white
}
skinparam IconProtected {
  Color black
  BackgroundColor white
}
skinparam IconPublic {
  Color black
  BackgroundColor white
}
skinparam Note {
  FontColor black
  FontName Verdana
}
skinparam Object {
  BorderColor black
}
skinparam Package {
  BorderColor black
  FontColor black
  FontName Verdana
}
skinparam State {
  BackgroundColor white
  BorderColor black
}
skinparam StereotypeA {
  BackgroundColor white
  BorderColor black
}
skinparam StereotypeC {
  BackgroundColor white
  BorderColor black
}
skinparam StereotypeE {
  BackgroundColor white
  BorderColor black
}
skinparam StereotypeI {
  BackgroundColor white
  BorderColor black
}
skinparam StereotypeN {
  BackgroundColor white
  BorderColor black
}
skinparam UseCaseStereoType {
  FontColor black
  FontName Verdana
}

Subject <|.. WeatherData
Subject -> Observer : 观察者
Observer <|.. CurrentConditionsDisplay
Observer <|.. StatisticsDisplay
Observer <|.. ForecastDisplay
Observer <|.. ThirdPartyDisplay
DisplayElement <|.. CurrentConditionsDisplay
DisplayElement <|.. StatisticsDisplay
DisplayElement <|.. ForecastDisplay
DisplayElement <|.. ThirdPartyDisplay

interface Subject {
  registerObserver()
  removeObserver()
  notifyObserver()
}

class WeatherData {
  registerObserver()
  removeObserver()
  notifyObserver()

  getTemperature()
  getHumidity()
  getPressure()
  measurementsChanged()
}

interface Observer {
  update()
}

interface DisplayElement {
  display()
}

class CurrentConditionsDisplay {
  update()
  display()
}

class StatisticsDisplay {
  update()
  display()
}

class ForecastDisplay {
  update()
  display()
}

class ThirdPartyDisplay {
  update()
  display()
}
@enduml

PlantUML version 1.2022.6(Wed Jun 22 01:34:49 CST 2022)
(GPL source distribution)
Java Runtime: OpenJDK Runtime Environment
JVM: OpenJDK 64-Bit Server VM
Default Encoding: UTF-8
Language: en
Country: US
--></g></svg>