<?xml version="1.0" encoding="UTF-8" standalone="no"?><svg xmlns="http://www.w3.org/2000/svg" xmlns:xlink="http://www.w3.org/1999/xlink" contentStyleType="text/css" height="320px" preserveAspectRatio="none" style="width:1225px;height:320px;background:#FFFFFF;" version="1.1" viewBox="0 0 1225 320" width="1225px" zoomAndPan="magnify"><defs/><g><!--MD5=[ee80f128756adf0e95ba2af8ad3ecb8c]
class Duck--><g id="elem_Duck"><rect codeLine="14" fill="#FFFFFF" height="180.1172" id="Duck" rx="2.5" ry="2.5" style="stroke:#000000;stroke-width:1.0;" width="223" x="178.5" y="12"/><ellipse cx="268.25" cy="26" fill="#FFFFFF" rx="9" ry="9" style="stroke:#000000;stroke-width:1.0;"/><path d="M268.3594,21.3438 L267.2031,26.4219 L269.5313,26.4219 L268.3594,21.3438 Z M266.875,19.1094 L269.8594,19.1094 L273.2188,31.5 L270.7656,31.5 L270,28.4375 L266.7188,28.4375 L265.9688,31.5 L263.5313,31.5 L266.875,19.1094 Z " fill="#000000"/><text fill="#000000" font-family="Verdana" font-size="14" font-style="italic" lengthAdjust="spacing" textLength="36" x="285.75" y="31.5679">Duck</text><line style="stroke:#000000;stroke-width:1.0;" x1="179.5" x2="400.5" y1="40" y2="40"/><text fill="#000000" font-family="Verdana" font-size="14" lengthAdjust="spacing" textLength="162" x="184.5" y="58.0752">FlyBehavior flyBehavior</text><text fill="#000000" font-family="Verdana" font-size="14" lengthAdjust="spacing" textLength="211" x="184.5" y="75.0898">QuackBehavior quackBehavior</text><line style="stroke:#000000;stroke-width:1.0;" x1="179.5" x2="400.5" y1="82.0293" y2="82.0293"/><text fill="#000000" font-family="Verdana" font-size="14" lengthAdjust="spacing" textLength="47" x="184.5" y="100.1045">swim()</text><text fill="#000000" font-family="Verdana" font-size="14" font-style="italic" lengthAdjust="spacing" textLength="61" x="184.5" y="117.1191">display()</text><text fill="#000000" font-family="Verdana" font-size="14" lengthAdjust="spacing" textLength="111" x="184.5" y="134.1338">performQuack()</text><text fill="#000000" font-family="Verdana" font-size="14" lengthAdjust="spacing" textLength="87" x="184.5" y="151.1484">performFly()</text><text fill="#000000" font-family="Verdana" font-size="14" lengthAdjust="spacing" textLength="114" x="184.5" y="168.1631">setFlyBehavior()</text><text fill="#000000" font-family="Verdana" font-size="14" lengthAdjust="spacing" textLength="138" x="184.5" y="185.1777">setQuackBehavior()</text></g><!--MD5=[6b7aa2b48f699f84e43038c6d40cb339]
class MallarDuck--><g id="elem_MallarDuck"><rect codeLine="26" fill="#FFFFFF" height="61.0146" id="MallarDuck" rx="2.5" ry="2.5" style="stroke:#000000;stroke-width:1.0;" width="102" x="12" y="252"/><ellipse cx="25" cy="266" fill="#FFFFFF" rx="9" ry="9" style="stroke:#000000;stroke-width:1.0;"/><path d="M27.9688,271.6406 Q27.3906,271.9375 26.75,272.0781 Q26.1094,272.2344 25.4063,272.2344 Q22.9063,272.2344 21.5781,270.5938 Q20.2656,268.9375 20.2656,265.8125 Q20.2656,262.6875 21.5781,261.0313 Q22.9063,259.375 25.4063,259.375 Q26.1094,259.375 26.75,259.5313 Q27.4063,259.6875 27.9688,259.9844 L27.9688,262.7031 Q27.3438,262.125 26.75,261.8594 Q26.1563,261.5781 25.5313,261.5781 Q24.1875,261.5781 23.5,262.6563 Q22.8125,263.7188 22.8125,265.8125 Q22.8125,267.9063 23.5,268.9844 Q24.1875,270.0469 25.5313,270.0469 Q26.1563,270.0469 26.75,269.7813 Q27.3438,269.5 27.9688,268.9219 L27.9688,271.6406 Z " fill="#000000"/><text fill="#000000" font-family="Verdana" font-size="14" lengthAdjust="spacing" textLength="74" x="37" y="271.5679">MallarDuck</text><line style="stroke:#000000;stroke-width:1.0;" x1="13" x2="113" y1="280" y2="280"/><line style="stroke:#000000;stroke-width:1.0;" x1="13" x2="113" y1="288" y2="288"/><text fill="#000000" font-family="Verdana" font-size="14" lengthAdjust="spacing" textLength="60" x="18" y="306.0752">display()</text></g><!--MD5=[8c1b804012081e866bad5a3663c31c62]
class RedHeadDuck--><g id="elem_RedHeadDuck"><rect codeLine="30" fill="#FFFFFF" height="61.0146" id="RedHeadDuck" rx="2.5" ry="2.5" style="stroke:#000000;stroke-width:1.0;" width="125" x="149.5" y="252"/><ellipse cx="162.5" cy="266" fill="#FFFFFF" rx="9" ry="9" style="stroke:#000000;stroke-width:1.0;"/><path d="M165.4688,271.6406 Q164.8906,271.9375 164.25,272.0781 Q163.6094,272.2344 162.9063,272.2344 Q160.4063,272.2344 159.0781,270.5938 Q157.7656,268.9375 157.7656,265.8125 Q157.7656,262.6875 159.0781,261.0313 Q160.4063,259.375 162.9063,259.375 Q163.6094,259.375 164.25,259.5313 Q164.9063,259.6875 165.4688,259.9844 L165.4688,262.7031 Q164.8438,262.125 164.25,261.8594 Q163.6563,261.5781 163.0313,261.5781 Q161.6875,261.5781 161,262.6563 Q160.3125,263.7188 160.3125,265.8125 Q160.3125,267.9063 161,268.9844 Q161.6875,270.0469 163.0313,270.0469 Q163.6563,270.0469 164.25,269.7813 Q164.8438,269.5 165.4688,268.9219 L165.4688,271.6406 Z " fill="#000000"/><text fill="#000000" font-family="Verdana" font-size="14" lengthAdjust="spacing" textLength="97" x="174.5" y="271.5679">RedHeadDuck</text><line style="stroke:#000000;stroke-width:1.0;" x1="150.5" x2="273.5" y1="280" y2="280"/><line style="stroke:#000000;stroke-width:1.0;" x1="150.5" x2="273.5" y1="288" y2="288"/><text fill="#000000" font-family="Verdana" font-size="14" lengthAdjust="spacing" textLength="60" x="155.5" y="306.0752">dispaly()</text></g><!--MD5=[63d6d3b89924d904df1c14c4e399b513]
class RubberDuck--><g id="elem_RubberDuck"><rect codeLine="34" fill="#FFFFFF" height="61.0146" id="RubberDuck" rx="2.5" ry="2.5" style="stroke:#000000;stroke-width:1.0;" width="114" x="310" y="252"/><ellipse cx="323" cy="266" fill="#FFFFFF" rx="9" ry="9" style="stroke:#000000;stroke-width:1.0;"/><path d="M325.9688,271.6406 Q325.3906,271.9375 324.75,272.0781 Q324.1094,272.2344 323.4063,272.2344 Q320.9063,272.2344 319.5781,270.5938 Q318.2656,268.9375 318.2656,265.8125 Q318.2656,262.6875 319.5781,261.0313 Q320.9063,259.375 323.4063,259.375 Q324.1094,259.375 324.75,259.5313 Q325.4063,259.6875 325.9688,259.9844 L325.9688,262.7031 Q325.3438,262.125 324.75,261.8594 Q324.1563,261.5781 323.5313,261.5781 Q322.1875,261.5781 321.5,262.6563 Q320.8125,263.7188 320.8125,265.8125 Q320.8125,267.9063 321.5,268.9844 Q322.1875,270.0469 323.5313,270.0469 Q324.1563,270.0469 324.75,269.7813 Q325.3438,269.5 325.9688,268.9219 L325.9688,271.6406 Z " fill="#000000"/><text fill="#000000" font-family="Verdana" font-size="14" lengthAdjust="spacing" textLength="86" x="335" y="271.5679">RubberDuck</text><line style="stroke:#000000;stroke-width:1.0;" x1="311" x2="423" y1="280" y2="280"/><line style="stroke:#000000;stroke-width:1.0;" x1="311" x2="423" y1="288" y2="288"/><text fill="#000000" font-family="Verdana" font-size="14" lengthAdjust="spacing" textLength="60" x="316" y="306.0752">dispaly()</text></g><!--MD5=[ef9b5a201887c81df51e991b951971f6]
class DecoyDuck--><g id="elem_DecoyDuck"><rect codeLine="38" fill="#FFFFFF" height="61.0146" id="DecoyDuck" rx="2.5" ry="2.5" style="stroke:#000000;stroke-width:1.0;" width="106" x="459" y="252"/><ellipse cx="472" cy="266" fill="#FFFFFF" rx="9" ry="9" style="stroke:#000000;stroke-width:1.0;"/><path d="M474.9688,271.6406 Q474.3906,271.9375 473.75,272.0781 Q473.1094,272.2344 472.4063,272.2344 Q469.9063,272.2344 468.5781,270.5938 Q467.2656,268.9375 467.2656,265.8125 Q467.2656,262.6875 468.5781,261.0313 Q469.9063,259.375 472.4063,259.375 Q473.1094,259.375 473.75,259.5313 Q474.4063,259.6875 474.9688,259.9844 L474.9688,262.7031 Q474.3438,262.125 473.75,261.8594 Q473.1563,261.5781 472.5313,261.5781 Q471.1875,261.5781 470.5,262.6563 Q469.8125,263.7188 469.8125,265.8125 Q469.8125,267.9063 470.5,268.9844 Q471.1875,270.0469 472.5313,270.0469 Q473.1563,270.0469 473.75,269.7813 Q474.3438,269.5 474.9688,268.9219 L474.9688,271.6406 Z " fill="#000000"/><text fill="#000000" font-family="Verdana" font-size="14" lengthAdjust="spacing" textLength="78" x="484" y="271.5679">DecoyDuck</text><line style="stroke:#000000;stroke-width:1.0;" x1="460" x2="564" y1="280" y2="280"/><line style="stroke:#000000;stroke-width:1.0;" x1="460" x2="564" y1="288" y2="288"/><text fill="#000000" font-family="Verdana" font-size="14" lengthAdjust="spacing" textLength="60" x="465" y="306.0752">dispaly()</text></g><!--MD5=[af677bcdc2bb09b4f404821b519a80a1]
class FlyBehavior--><g id="elem_FlyBehavior"><rect codeLine="42" fill="#FFFFFF" height="61.0146" id="FlyBehavior" rx="2.5" ry="2.5" style="stroke:#000000;stroke-width:1.0;" width="110" x="680" y="71.5"/><ellipse cx="693" cy="85.5" fill="#FFFFFF" rx="9" ry="9" style="stroke:#000000;stroke-width:1.0;"/><path d="M688.9219,81.2656 L688.9219,79.1094 L696.3125,79.1094 L696.3125,81.2656 L693.8438,81.2656 L693.8438,89.3438 L696.3125,89.3438 L696.3125,91.5 L688.9219,91.5 L688.9219,89.3438 L691.3906,89.3438 L691.3906,81.2656 L688.9219,81.2656 Z " fill="#000000"/><text fill="#000000" font-family="Verdana" font-size="14" font-style="italic" lengthAdjust="spacing" textLength="82" x="705" y="91.0679">FlyBehavior</text><line style="stroke:#000000;stroke-width:1.0;" x1="681" x2="789" y1="99.5" y2="99.5"/><line style="stroke:#000000;stroke-width:1.0;" x1="681" x2="789" y1="107.5" y2="107.5"/><text fill="#000000" font-family="Verdana" font-size="14" font-style="italic" lengthAdjust="spacing" textLength="29" x="686" y="125.5752">fly()</text></g><!--MD5=[4b23d2805c144888dfba661554d654ab]
class FlyWithWings--><g id="elem_FlyWithWings"><rect codeLine="46" fill="#FFFFFF" height="61.0146" id="FlyWithWings" rx="2.5" ry="2.5" style="stroke:#000000;stroke-width:1.0;" width="124" x="600" y="252"/><ellipse cx="613" cy="266" fill="#FFFFFF" rx="9" ry="9" style="stroke:#000000;stroke-width:1.0;"/><path d="M615.9688,271.6406 Q615.3906,271.9375 614.75,272.0781 Q614.1094,272.2344 613.4063,272.2344 Q610.9063,272.2344 609.5781,270.5938 Q608.2656,268.9375 608.2656,265.8125 Q608.2656,262.6875 609.5781,261.0313 Q610.9063,259.375 613.4063,259.375 Q614.1094,259.375 614.75,259.5313 Q615.4063,259.6875 615.9688,259.9844 L615.9688,262.7031 Q615.3438,262.125 614.75,261.8594 Q614.1563,261.5781 613.5313,261.5781 Q612.1875,261.5781 611.5,262.6563 Q610.8125,263.7188 610.8125,265.8125 Q610.8125,267.9063 611.5,268.9844 Q612.1875,270.0469 613.5313,270.0469 Q614.1563,270.0469 614.75,269.7813 Q615.3438,269.5 615.9688,268.9219 L615.9688,271.6406 Z " fill="#000000"/><text fill="#000000" font-family="Verdana" font-size="14" lengthAdjust="spacing" textLength="96" x="625" y="271.5679">FlyWithWings</text><line style="stroke:#000000;stroke-width:1.0;" x1="601" x2="723" y1="280" y2="280"/><line style="stroke:#000000;stroke-width:1.0;" x1="601" x2="723" y1="288" y2="288"/><text fill="#000000" font-family="Verdana" font-size="14" lengthAdjust="spacing" textLength="28" x="606" y="306.0752">fly()</text></g><!--MD5=[6410b8339a4cc9c91c8268e1c245baa7]
class FlyNoWay--><g id="elem_FlyNoWay"><rect codeLine="50" fill="#FFFFFF" height="61.0146" id="FlyNoWay" rx="2.5" ry="2.5" style="stroke:#000000;stroke-width:1.0;" width="97" x="759.5" y="252"/><ellipse cx="772.5" cy="266" fill="#FFFFFF" rx="9" ry="9" style="stroke:#000000;stroke-width:1.0;"/><path d="M775.4688,271.6406 Q774.8906,271.9375 774.25,272.0781 Q773.6094,272.2344 772.9063,272.2344 Q770.4063,272.2344 769.0781,270.5938 Q767.7656,268.9375 767.7656,265.8125 Q767.7656,262.6875 769.0781,261.0313 Q770.4063,259.375 772.9063,259.375 Q773.6094,259.375 774.25,259.5313 Q774.9063,259.6875 775.4688,259.9844 L775.4688,262.7031 Q774.8438,262.125 774.25,261.8594 Q773.6563,261.5781 773.0313,261.5781 Q771.6875,261.5781 771,262.6563 Q770.3125,263.7188 770.3125,265.8125 Q770.3125,267.9063 771,268.9844 Q771.6875,270.0469 773.0313,270.0469 Q773.6563,270.0469 774.25,269.7813 Q774.8438,269.5 775.4688,268.9219 L775.4688,271.6406 Z " fill="#000000"/><text fill="#000000" font-family="Verdana" font-size="14" lengthAdjust="spacing" textLength="69" x="784.5" y="271.5679">FlyNoWay</text><line style="stroke:#000000;stroke-width:1.0;" x1="760.5" x2="855.5" y1="280" y2="280"/><line style="stroke:#000000;stroke-width:1.0;" x1="760.5" x2="855.5" y1="288" y2="288"/><text fill="#000000" font-family="Verdana" font-size="14" lengthAdjust="spacing" textLength="28" x="765.5" y="306.0752">fly()</text></g><!--MD5=[bfa3cda608d0a5fb34213275021c73a4]
class QuackBehavior--><g id="elem_QuackBehavior"><rect codeLine="54" fill="#FFFFFF" height="61.0146" id="QuackBehavior" rx="2.5" ry="2.5" style="stroke:#000000;stroke-width:1.0;" width="134" x="971" y="71.5"/><ellipse cx="984" cy="85.5" fill="#FFFFFF" rx="9" ry="9" style="stroke:#000000;stroke-width:1.0;"/><path d="M979.9219,81.2656 L979.9219,79.1094 L987.3125,79.1094 L987.3125,81.2656 L984.8438,81.2656 L984.8438,89.3438 L987.3125,89.3438 L987.3125,91.5 L979.9219,91.5 L979.9219,89.3438 L982.3906,89.3438 L982.3906,81.2656 L979.9219,81.2656 Z " fill="#000000"/><text fill="#000000" font-family="Verdana" font-size="14" font-style="italic" lengthAdjust="spacing" textLength="106" x="996" y="91.0679">QuackBehavior</text><line style="stroke:#000000;stroke-width:1.0;" x1="972" x2="1104" y1="99.5" y2="99.5"/><line style="stroke:#000000;stroke-width:1.0;" x1="972" x2="1104" y1="107.5" y2="107.5"/><text fill="#000000" font-family="Verdana" font-size="14" font-style="italic" lengthAdjust="spacing" textLength="54" x="977" y="125.5752">quack()</text></g><!--MD5=[12f74b7f21fbdaaa4e00aa09d95ebc8d]
class Quack--><g id="elem_Quack"><rect codeLine="58" fill="#FFFFFF" height="61.0146" id="Quack" rx="2.5" ry="2.5" style="stroke:#000000;stroke-width:1.0;" width="71" x="891.5" y="252"/><ellipse cx="904.5" cy="266" fill="#FFFFFF" rx="9" ry="9" style="stroke:#000000;stroke-width:1.0;"/><path d="M907.4688,271.6406 Q906.8906,271.9375 906.25,272.0781 Q905.6094,272.2344 904.9063,272.2344 Q902.4063,272.2344 901.0781,270.5938 Q899.7656,268.9375 899.7656,265.8125 Q899.7656,262.6875 901.0781,261.0313 Q902.4063,259.375 904.9063,259.375 Q905.6094,259.375 906.25,259.5313 Q906.9063,259.6875 907.4688,259.9844 L907.4688,262.7031 Q906.8438,262.125 906.25,261.8594 Q905.6563,261.5781 905.0313,261.5781 Q903.6875,261.5781 903,262.6563 Q902.3125,263.7188 902.3125,265.8125 Q902.3125,267.9063 903,268.9844 Q903.6875,270.0469 905.0313,270.0469 Q905.6563,270.0469 906.25,269.7813 Q906.8438,269.5 907.4688,268.9219 L907.4688,271.6406 Z " fill="#000000"/><text fill="#000000" font-family="Verdana" font-size="14" lengthAdjust="spacing" textLength="43" x="916.5" y="271.5679">Quack</text><line style="stroke:#000000;stroke-width:1.0;" x1="892.5" x2="961.5" y1="280" y2="280"/><line style="stroke:#000000;stroke-width:1.0;" x1="892.5" x2="961.5" y1="288" y2="288"/><text fill="#000000" font-family="Verdana" font-size="14" lengthAdjust="spacing" textLength="53" x="897.5" y="306.0752">quack()</text></g><!--MD5=[68875e4d113dd0341b461c1461159522]
class Squeak--><g id="elem_Squeak"><rect codeLine="62" fill="#FFFFFF" height="61.0146" id="Squeak" rx="2.5" ry="2.5" style="stroke:#000000;stroke-width:1.0;" width="80" x="998" y="252"/><ellipse cx="1011" cy="266" fill="#FFFFFF" rx="9" ry="9" style="stroke:#000000;stroke-width:1.0;"/><path d="M1013.9688,271.6406 Q1013.3906,271.9375 1012.75,272.0781 Q1012.1094,272.2344 1011.4063,272.2344 Q1008.9063,272.2344 1007.5781,270.5938 Q1006.2656,268.9375 1006.2656,265.8125 Q1006.2656,262.6875 1007.5781,261.0313 Q1008.9063,259.375 1011.4063,259.375 Q1012.1094,259.375 1012.75,259.5313 Q1013.4063,259.6875 1013.9688,259.9844 L1013.9688,262.7031 Q1013.3438,262.125 1012.75,261.8594 Q1012.1563,261.5781 1011.5313,261.5781 Q1010.1875,261.5781 1009.5,262.6563 Q1008.8125,263.7188 1008.8125,265.8125 Q1008.8125,267.9063 1009.5,268.9844 Q1010.1875,270.0469 1011.5313,270.0469 Q1012.1563,270.0469 1012.75,269.7813 Q1013.3438,269.5 1013.9688,268.9219 L1013.9688,271.6406 Z " fill="#000000"/><text fill="#000000" font-family="Verdana" font-size="14" lengthAdjust="spacing" textLength="52" x="1023" y="271.5679">Squeak</text><line style="stroke:#000000;stroke-width:1.0;" x1="999" x2="1077" y1="280" y2="280"/><line style="stroke:#000000;stroke-width:1.0;" x1="999" x2="1077" y1="288" y2="288"/><text fill="#000000" font-family="Verdana" font-size="14" lengthAdjust="spacing" textLength="53" x="1004" y="306.0752">quack()</text></g><!--MD5=[432568b0773d3e78a5ae34e34696d249]
class MuteQuack--><g id="elem_MuteQuack"><rect codeLine="66" fill="#FFFFFF" height="61.0146" id="MuteQuack" rx="2.5" ry="2.5" style="stroke:#000000;stroke-width:1.0;" width="105" x="1113.5" y="252"/><ellipse cx="1126.5" cy="266" fill="#FFFFFF" rx="9" ry="9" style="stroke:#000000;stroke-width:1.0;"/><path d="M1129.4688,271.6406 Q1128.8906,271.9375 1128.25,272.0781 Q1127.6094,272.2344 1126.9063,272.2344 Q1124.4063,272.2344 1123.0781,270.5938 Q1121.7656,268.9375 1121.7656,265.8125 Q1121.7656,262.6875 1123.0781,261.0313 Q1124.4063,259.375 1126.9063,259.375 Q1127.6094,259.375 1128.25,259.5313 Q1128.9063,259.6875 1129.4688,259.9844 L1129.4688,262.7031 Q1128.8438,262.125 1128.25,261.8594 Q1127.6563,261.5781 1127.0313,261.5781 Q1125.6875,261.5781 1125,262.6563 Q1124.3125,263.7188 1124.3125,265.8125 Q1124.3125,267.9063 1125,268.9844 Q1125.6875,270.0469 1127.0313,270.0469 Q1127.6563,270.0469 1128.25,269.7813 Q1128.8438,269.5 1129.4688,268.9219 L1129.4688,271.6406 Z " fill="#000000"/><text fill="#000000" font-family="Verdana" font-size="14" lengthAdjust="spacing" textLength="77" x="1138.5" y="271.5679">MuteQuack</text><line style="stroke:#000000;stroke-width:1.0;" x1="1114.5" x2="1217.5" y1="280" y2="280"/><line style="stroke:#000000;stroke-width:1.0;" x1="1114.5" x2="1217.5" y1="288" y2="288"/><text fill="#000000" font-family="Verdana" font-size="14" lengthAdjust="spacing" textLength="53" x="1119.5" y="306.0752">quack()</text></g><!--MD5=[1775a266fce6dd61e422d78ff7eaf2f9]
reverse link Duck to MallarDuck--><g id="link_Duck_MallarDuck"><path codeLine="2" d="M162.76,203.06 C140.13,220.85 118.24,238.06 100.76,251.81 " fill="none" id="Duck-backto-MallarDuck" style="stroke:#000000;stroke-width:1.0;"/><polygon fill="none" points="158.45,197.54,178.5,190.68,167.1,208.55,158.45,197.54" style="stroke:#000000;stroke-width:1.0;"/></g><!--MD5=[01da43fa0165d7798d3533e9d981b537]
reverse link Duck to RedHeadDuck--><g id="link_Duck_RedHeadDuck"><path codeLine="3" d="M242.93,210.72 C236.4,225.67 230.18,239.9 225.06,251.62 " fill="none" id="Duck-backto-RedHeadDuck" style="stroke:#000000;stroke-width:1.0;"/><polygon fill="none" points="236.58,207.77,251,192.25,249.41,213.38,236.58,207.77" style="stroke:#000000;stroke-width:1.0;"/></g><!--MD5=[4fa56e32ebb0bad05c9f28ed45ec70ee]
reverse link Duck to RubberDuck--><g id="link_Duck_RubberDuck"><path codeLine="4" d="M336.47,210.72 C342.92,225.67 349.05,239.9 354.11,251.62 " fill="none" id="Duck-backto-RubberDuck" style="stroke:#000000;stroke-width:1.0;"/><polygon fill="none" points="329.99,213.39,328.5,192.25,342.85,207.84,329.99,213.39" style="stroke:#000000;stroke-width:1.0;"/></g><!--MD5=[229e783130190a934baefe35706d52a5]
reverse link Duck to DecoyDuck--><g id="link_Duck_DecoyDuck"><path codeLine="5" d="M416.64,204.83 C438,222 458.56,238.53 475.09,251.82 " fill="none" id="Duck-backto-DecoyDuck" style="stroke:#000000;stroke-width:1.0;"/><polygon fill="none" points="412.2,210.24,401,192.25,420.97,199.33,412.2,210.24" style="stroke:#000000;stroke-width:1.0;"/></g><!--MD5=[7b9ca3f548166b0df550cb500f51b1ea]
reverse link FlyBehavior to FlyWithWings--><g id="link_FlyBehavior_FlyWithWings"><path codeLine="7" d="M715.17,151.48 C702.07,183.53 685.3,224.52 674.14,251.82 " fill="none" id="FlyBehavior-backto-FlyWithWings" style="stroke:#000000;stroke-width:1.0;stroke-dasharray:7.0,7.0;"/><polygon fill="none" points="708.73,148.74,722.78,132.88,721.69,154.04,708.73,148.74" style="stroke:#000000;stroke-width:1.0;"/></g><!--MD5=[53e7f5881092792bc8176dd5d8b30cdf]
reverse link FlyBehavior to FlyNoWay--><g id="link_FlyBehavior_FlyNoWay"><path codeLine="8" d="M754.83,151.48 C767.93,183.53 784.7,224.52 795.86,251.82 " fill="none" id="FlyBehavior-backto-FlyNoWay" style="stroke:#000000;stroke-width:1.0;stroke-dasharray:7.0,7.0;"/><polygon fill="none" points="748.31,154.04,747.22,132.88,761.27,148.74,748.31,154.04" style="stroke:#000000;stroke-width:1.0;"/></g><!--MD5=[01c90da2bc64604ecacbeeddf2144a3c]
reverse link QuackBehavior to Quack--><g id="link_QuackBehavior_Quack"><path codeLine="10" d="M1008.7,150.12 C988.65,182.37 962.67,224.13 945.45,251.82 " fill="none" id="QuackBehavior-backto-Quack" style="stroke:#000000;stroke-width:1.0;stroke-dasharray:7.0,7.0;"/><polygon fill="none" points="1002.92,146.16,1019.42,132.88,1014.8,153.56,1002.92,146.16" style="stroke:#000000;stroke-width:1.0;"/></g><!--MD5=[18a62fce590314fe2943d358430f6ee1]
reverse link QuackBehavior to Squeak--><g id="link_QuackBehavior_Squeak"><path codeLine="11" d="M1038,153.3 C1038,185.07 1038,225.04 1038,251.82 " fill="none" id="QuackBehavior-backto-Squeak" style="stroke:#000000;stroke-width:1.0;stroke-dasharray:7.0,7.0;"/><polygon fill="none" points="1031,152.88,1038,132.88,1045,152.88,1031,152.88" style="stroke:#000000;stroke-width:1.0;"/></g><!--MD5=[23f42304ecdb2b0cc8730a9be7f75a88]
reverse link QuackBehavior to MuteQuack--><g id="link_QuackBehavior_MuteQuack"><path codeLine="12" d="M1071.15,149.22 C1094.36,181.59 1124.68,223.88 1144.72,251.82 " fill="none" id="QuackBehavior-backto-MuteQuack" style="stroke:#000000;stroke-width:1.0;stroke-dasharray:7.0,7.0;"/><polygon fill="none" points="1065.39,153.21,1059.42,132.88,1076.77,145.05,1065.39,153.21" style="stroke:#000000;stroke-width:1.0;"/></g><!--MD5=[9ad9e1ee5e88d0fcf0637c1eec95787f]
@startuml
!theme plain
Duck <|- - MallarDuck
Duck <|- - RedHeadDuck
Duck <|- - RubberDuck
Duck <|- - DecoyDuck

FlyBehavior <|.. FlyWithWings
FlyBehavior <|.. FlyNoWay

QuackBehavior <|.. Quack
QuackBehavior <|.. Squeak
QuackBehavior <|.. MuteQuack

abstract class Duck {
  FlyBehavior flyBehavior
  QuackBehavior quackBehavior

  swim()
  {abstract} display()
  performQuack()
  performFly()
  setFlyBehavior()
  setQuackBehavior()
}

class MallarDuck {
  display()
}

class RedHeadDuck {
  dispaly()
}

class RubberDuck {
  dispaly()
}

class DecoyDuck {
  dispaly()
}

interface FlyBehavior {
  {abstract} fly()
}

class FlyWithWings {
  fly()
}

class FlyNoWay {
  fly()
}

interface QuackBehavior {
  {abstract} quack()
}

class Quack {
  quack()
}

class Squeak {
  quack()
}

class MuteQuack {
  quack()
}

@enduml

@startuml







<style>
  root {
    BackgroundColor white
    FontColor black
    FontName Verdana
    HyperLinkColor blue
    LineColor black
    LineThickness 1
    Margin 5
  }
  caption {
    LineThickness 0
  }
  footer {
    LineThickness 0
  }
  header {
    LineThickness 0
  }
  node {
    MaximumWidth 300
  }
  title {
    FontSize 22
    LineThickness 0
  }
</style>

skinparam ArrowLollipopColor black
skinparam BackgroundColor white
skinparam DefaultFontName Verdana
skinparam DefaultMonospacedFontName Courier
skinparam LifelineStrategy nosolid
skinparam ParticipantPadding 10
skinparam SequenceLifeLineBorderColor black
skinparam Shadowing false
skinparam UseBetaStyle true

skinparam Activity {
  BackgroundColor white
  BarColor black
  BorderColor black
  FontColor black
  FontName Verdana
}
skinparam Boundary {
  FontColor black
}
skinparam Box {
  Padding 5
}
skinparam CircledCharacter {
  FontColor black
  FontName Courier
  Radius 9
}
skinparam Class {
  BackgroundColor white
  BorderColor black
  FontColor black
  FontName Verdana
}
skinparam ClassAttribute {
  FontColor black
  FontName Verdana
}
skinparam ClassStereotype {
  FontColor black
  FontName Verdana
}
skinparam Footer {
  FontColor black
  FontName Verdana
}
skinparam Header {
  FontColor black
  FontName Verdana
}
skinparam Hyperlink {
  Color blue
}
skinparam IconPackage {
  Color black
  BackgroundColor white
}
skinparam IconPrivate {
  Color black
  BackgroundColor white
}
skinparam IconProtected {
  Color black
  BackgroundColor white
}
skinparam IconPublic {
  Color black
  BackgroundColor white
}
skinparam Note {
  FontColor black
  FontName Verdana
}
skinparam Object {
  BorderColor black
}
skinparam Package {
  BorderColor black
  FontColor black
  FontName Verdana
}
skinparam State {
  BackgroundColor white
  BorderColor black
}
skinparam StereotypeA {
  BackgroundColor white
  BorderColor black
}
skinparam StereotypeC {
  BackgroundColor white
  BorderColor black
}
skinparam StereotypeE {
  BackgroundColor white
  BorderColor black
}
skinparam StereotypeI {
  BackgroundColor white
  BorderColor black
}
skinparam StereotypeN {
  BackgroundColor white
  BorderColor black
}
skinparam UseCaseStereoType {
  FontColor black
  FontName Verdana
}
Duck <|- - MallarDuck
Duck <|- - RedHeadDuck
Duck <|- - RubberDuck
Duck <|- - DecoyDuck

FlyBehavior <|.. FlyWithWings
FlyBehavior <|.. FlyNoWay

QuackBehavior <|.. Quack
QuackBehavior <|.. Squeak
QuackBehavior <|.. MuteQuack

abstract class Duck {
  FlyBehavior flyBehavior
  QuackBehavior quackBehavior

  swim()
  {abstract} display()
  performQuack()
  performFly()
  setFlyBehavior()
  setQuackBehavior()
}

class MallarDuck {
  display()
}

class RedHeadDuck {
  dispaly()
}

class RubberDuck {
  dispaly()
}

class DecoyDuck {
  dispaly()
}

interface FlyBehavior {
  {abstract} fly()
}

class FlyWithWings {
  fly()
}

class FlyNoWay {
  fly()
}

interface QuackBehavior {
  {abstract} quack()
}

class Quack {
  quack()
}

class Squeak {
  quack()
}

class MuteQuack {
  quack()
}

@enduml

PlantUML version 1.2022.6(Wed Jun 22 01:34:49 CST 2022)
(GPL source distribution)
Java Runtime: OpenJDK Runtime Environment
JVM: OpenJDK 64-Bit Server VM
Default Encoding: UTF-8
Language: en
Country: US
--></g></svg>