<?xml version="1.0" encoding="UTF-8" standalone="no"?><svg xmlns="http://www.w3.org/2000/svg" xmlns:xlink="http://www.w3.org/1999/xlink" contentStyleType="text/css" height="320px" preserveAspectRatio="none" style="width:1223px;height:320px;background:#FFFFFF;" version="1.1" viewBox="0 0 1223 320" width="1223px" zoomAndPan="magnify"><defs/><g><!--MD5=[ee80f128756adf0e95ba2af8ad3ecb8c]
class Duck--><g id="elem_Duck"><rect codeLine="14" fill="#FFFFFF" height="146.0879" id="Duck" rx="2.5" ry="2.5" style="stroke:#000000;stroke-width:1.0;" width="223" x="178.5" y="12"/><ellipse cx="268.75" cy="26" fill="#FFFFFF" rx="9" ry="9" style="stroke:#000000;stroke-width:1.0;"/><path d="M271.7188,31.6406 Q271.1406,31.9375 270.5,32.0781 Q269.8594,32.2344 269.1563,32.2344 Q266.6563,32.2344 265.3281,30.5938 Q264.0156,28.9375 264.0156,25.8125 Q264.0156,22.6875 265.3281,21.0313 Q266.6563,19.375 269.1563,19.375 Q269.8594,19.375 270.5,19.5313 Q271.1563,19.6875 271.7188,19.9844 L271.7188,22.7031 Q271.0938,22.125 270.5,21.8594 Q269.9063,21.5781 269.2813,21.5781 Q267.9375,21.5781 267.25,22.6563 Q266.5625,23.7188 266.5625,25.8125 Q266.5625,27.9063 267.25,28.9844 Q267.9375,30.0469 269.2813,30.0469 Q269.9063,30.0469 270.5,29.7813 Q271.0938,29.5 271.7188,28.9219 L271.7188,31.6406 Z " fill="#000000"/><text fill="#000000" font-family="Verdana" font-size="14" lengthAdjust="spacing" textLength="35" x="286.25" y="31.5679">Duck</text><line style="stroke:#000000;stroke-width:1.0;" x1="179.5" x2="400.5" y1="40" y2="40"/><text fill="#000000" font-family="Verdana" font-size="14" lengthAdjust="spacing" textLength="162" x="184.5" y="58.0752">FlyBehavior flyBehavior</text><text fill="#000000" font-family="Verdana" font-size="14" lengthAdjust="spacing" textLength="211" x="184.5" y="75.0898">QuackBehavior quackBehavior</text><line style="stroke:#000000;stroke-width:1.0;" x1="179.5" x2="400.5" y1="82.0293" y2="82.0293"/><text fill="#000000" font-family="Verdana" font-size="14" lengthAdjust="spacing" textLength="47" x="184.5" y="100.1045">swim()</text><text fill="#000000" font-family="Verdana" font-size="14" font-style="italic" lengthAdjust="spacing" textLength="61" x="184.5" y="117.1191">display()</text><text fill="#000000" font-family="Verdana" font-size="14" lengthAdjust="spacing" textLength="111" x="184.5" y="134.1338">performQuack()</text><text fill="#000000" font-family="Verdana" font-size="14" lengthAdjust="spacing" textLength="87" x="184.5" y="151.1484">performFly()</text></g><!--MD5=[6b7aa2b48f699f84e43038c6d40cb339]
class MallarDuck--><g id="elem_MallarDuck"><rect codeLine="24" fill="#FFFFFF" height="61.0146" id="MallarDuck" rx="2.5" ry="2.5" style="stroke:#000000;stroke-width:1.0;" width="102" x="12" y="235"/><ellipse cx="25" cy="249" fill="#FFFFFF" rx="9" ry="9" style="stroke:#000000;stroke-width:1.0;"/><path d="M27.9688,254.6406 Q27.3906,254.9375 26.75,255.0781 Q26.1094,255.2344 25.4063,255.2344 Q22.9063,255.2344 21.5781,253.5938 Q20.2656,251.9375 20.2656,248.8125 Q20.2656,245.6875 21.5781,244.0313 Q22.9063,242.375 25.4063,242.375 Q26.1094,242.375 26.75,242.5313 Q27.4063,242.6875 27.9688,242.9844 L27.9688,245.7031 Q27.3438,245.125 26.75,244.8594 Q26.1563,244.5781 25.5313,244.5781 Q24.1875,244.5781 23.5,245.6563 Q22.8125,246.7188 22.8125,248.8125 Q22.8125,250.9063 23.5,251.9844 Q24.1875,253.0469 25.5313,253.0469 Q26.1563,253.0469 26.75,252.7813 Q27.3438,252.5 27.9688,251.9219 L27.9688,254.6406 Z " fill="#000000"/><text fill="#000000" font-family="Verdana" font-size="14" lengthAdjust="spacing" textLength="74" x="37" y="254.5679">MallarDuck</text><line style="stroke:#000000;stroke-width:1.0;" x1="13" x2="113" y1="263" y2="263"/><line style="stroke:#000000;stroke-width:1.0;" x1="13" x2="113" y1="271" y2="271"/><text fill="#000000" font-family="Verdana" font-size="14" lengthAdjust="spacing" textLength="60" x="18" y="289.0752">display()</text></g><!--MD5=[8c1b804012081e866bad5a3663c31c62]
class RedHeadDuck--><g id="elem_RedHeadDuck"><rect codeLine="28" fill="#FFFFFF" height="61.0146" id="RedHeadDuck" rx="2.5" ry="2.5" style="stroke:#000000;stroke-width:1.0;" width="125" x="149.5" y="235"/><ellipse cx="162.5" cy="249" fill="#FFFFFF" rx="9" ry="9" style="stroke:#000000;stroke-width:1.0;"/><path d="M165.4688,254.6406 Q164.8906,254.9375 164.25,255.0781 Q163.6094,255.2344 162.9063,255.2344 Q160.4063,255.2344 159.0781,253.5938 Q157.7656,251.9375 157.7656,248.8125 Q157.7656,245.6875 159.0781,244.0313 Q160.4063,242.375 162.9063,242.375 Q163.6094,242.375 164.25,242.5313 Q164.9063,242.6875 165.4688,242.9844 L165.4688,245.7031 Q164.8438,245.125 164.25,244.8594 Q163.6563,244.5781 163.0313,244.5781 Q161.6875,244.5781 161,245.6563 Q160.3125,246.7188 160.3125,248.8125 Q160.3125,250.9063 161,251.9844 Q161.6875,253.0469 163.0313,253.0469 Q163.6563,253.0469 164.25,252.7813 Q164.8438,252.5 165.4688,251.9219 L165.4688,254.6406 Z " fill="#000000"/><text fill="#000000" font-family="Verdana" font-size="14" lengthAdjust="spacing" textLength="97" x="174.5" y="254.5679">RedHeadDuck</text><line style="stroke:#000000;stroke-width:1.0;" x1="150.5" x2="273.5" y1="263" y2="263"/><line style="stroke:#000000;stroke-width:1.0;" x1="150.5" x2="273.5" y1="271" y2="271"/><text fill="#000000" font-family="Verdana" font-size="14" lengthAdjust="spacing" textLength="60" x="155.5" y="289.0752">dispaly()</text></g><!--MD5=[63d6d3b89924d904df1c14c4e399b513]
class RubberDuck--><g id="elem_RubberDuck"><rect codeLine="32" fill="#FFFFFF" height="95.0439" id="RubberDuck" rx="2.5" ry="2.5" style="stroke:#000000;stroke-width:1.0;" width="114" x="310" y="218"/><ellipse cx="323" cy="232" fill="#FFFFFF" rx="9" ry="9" style="stroke:#000000;stroke-width:1.0;"/><path d="M325.9688,237.6406 Q325.3906,237.9375 324.75,238.0781 Q324.1094,238.2344 323.4063,238.2344 Q320.9063,238.2344 319.5781,236.5938 Q318.2656,234.9375 318.2656,231.8125 Q318.2656,228.6875 319.5781,227.0313 Q320.9063,225.375 323.4063,225.375 Q324.1094,225.375 324.75,225.5313 Q325.4063,225.6875 325.9688,225.9844 L325.9688,228.7031 Q325.3438,228.125 324.75,227.8594 Q324.1563,227.5781 323.5313,227.5781 Q322.1875,227.5781 321.5,228.6563 Q320.8125,229.7188 320.8125,231.8125 Q320.8125,233.9063 321.5,234.9844 Q322.1875,236.0469 323.5313,236.0469 Q324.1563,236.0469 324.75,235.7813 Q325.3438,235.5 325.9688,234.9219 L325.9688,237.6406 Z " fill="#000000"/><text fill="#000000" font-family="Verdana" font-size="14" lengthAdjust="spacing" textLength="86" x="335" y="237.5679">RubberDuck</text><line style="stroke:#000000;stroke-width:1.0;" x1="311" x2="423" y1="246" y2="246"/><line style="stroke:#000000;stroke-width:1.0;" x1="311" x2="423" y1="254" y2="254"/><text fill="#000000" font-family="Verdana" font-size="14" lengthAdjust="spacing" textLength="53" x="316" y="272.0752">quack()</text><text fill="#000000" font-family="Verdana" font-size="14" lengthAdjust="spacing" textLength="60" x="316" y="289.0898">dispaly()</text><text fill="#000000" font-family="Verdana" font-size="14" lengthAdjust="spacing" textLength="28" x="316" y="306.1045">fly()</text></g><!--MD5=[ef9b5a201887c81df51e991b951971f6]
class DecoyDuck--><g id="elem_DecoyDuck"><rect codeLine="38" fill="#FFFFFF" height="95.0439" id="DecoyDuck" rx="2.5" ry="2.5" style="stroke:#000000;stroke-width:1.0;" width="106" x="459" y="218"/><ellipse cx="472" cy="232" fill="#FFFFFF" rx="9" ry="9" style="stroke:#000000;stroke-width:1.0;"/><path d="M474.9688,237.6406 Q474.3906,237.9375 473.75,238.0781 Q473.1094,238.2344 472.4063,238.2344 Q469.9063,238.2344 468.5781,236.5938 Q467.2656,234.9375 467.2656,231.8125 Q467.2656,228.6875 468.5781,227.0313 Q469.9063,225.375 472.4063,225.375 Q473.1094,225.375 473.75,225.5313 Q474.4063,225.6875 474.9688,225.9844 L474.9688,228.7031 Q474.3438,228.125 473.75,227.8594 Q473.1563,227.5781 472.5313,227.5781 Q471.1875,227.5781 470.5,228.6563 Q469.8125,229.7188 469.8125,231.8125 Q469.8125,233.9063 470.5,234.9844 Q471.1875,236.0469 472.5313,236.0469 Q473.1563,236.0469 473.75,235.7813 Q474.3438,235.5 474.9688,234.9219 L474.9688,237.6406 Z " fill="#000000"/><text fill="#000000" font-family="Verdana" font-size="14" lengthAdjust="spacing" textLength="78" x="484" y="237.5679">DecoyDuck</text><line style="stroke:#000000;stroke-width:1.0;" x1="460" x2="564" y1="246" y2="246"/><line style="stroke:#000000;stroke-width:1.0;" x1="460" x2="564" y1="254" y2="254"/><text fill="#000000" font-family="Verdana" font-size="14" lengthAdjust="spacing" textLength="53" x="465" y="272.0752">quack()</text><text fill="#000000" font-family="Verdana" font-size="14" lengthAdjust="spacing" textLength="60" x="465" y="289.0898">dispaly()</text><text fill="#000000" font-family="Verdana" font-size="14" lengthAdjust="spacing" textLength="28" x="465" y="306.1045">fly()</text></g><!--MD5=[af677bcdc2bb09b4f404821b519a80a1]
class FlyBehavior--><g id="elem_FlyBehavior"><rect codeLine="44" fill="#FFFFFF" height="61.0146" id="FlyBehavior" rx="2.5" ry="2.5" style="stroke:#000000;stroke-width:1.0;" width="110" x="680" y="54.5"/><ellipse cx="693" cy="68.5" fill="#FFFFFF" rx="9" ry="9" style="stroke:#000000;stroke-width:1.0;"/><path d="M688.9219,64.2656 L688.9219,62.1094 L696.3125,62.1094 L696.3125,64.2656 L693.8438,64.2656 L693.8438,72.3438 L696.3125,72.3438 L696.3125,74.5 L688.9219,74.5 L688.9219,72.3438 L691.3906,72.3438 L691.3906,64.2656 L688.9219,64.2656 Z " fill="#000000"/><text fill="#000000" font-family="Verdana" font-size="14" font-style="italic" lengthAdjust="spacing" textLength="82" x="705" y="74.0679">FlyBehavior</text><line style="stroke:#000000;stroke-width:1.0;" x1="681" x2="789" y1="82.5" y2="82.5"/><line style="stroke:#000000;stroke-width:1.0;" x1="681" x2="789" y1="90.5" y2="90.5"/><text fill="#000000" font-family="Verdana" font-size="14" font-style="italic" lengthAdjust="spacing" textLength="29" x="686" y="108.5752">fly()</text></g><!--MD5=[4b23d2805c144888dfba661554d654ab]
class FlyWithWings--><g id="elem_FlyWithWings"><rect codeLine="48" fill="#FFFFFF" height="61.0146" id="FlyWithWings" rx="2.5" ry="2.5" style="stroke:#000000;stroke-width:1.0;" width="124" x="600" y="235"/><ellipse cx="613" cy="249" fill="#FFFFFF" rx="9" ry="9" style="stroke:#000000;stroke-width:1.0;"/><path d="M615.9688,254.6406 Q615.3906,254.9375 614.75,255.0781 Q614.1094,255.2344 613.4063,255.2344 Q610.9063,255.2344 609.5781,253.5938 Q608.2656,251.9375 608.2656,248.8125 Q608.2656,245.6875 609.5781,244.0313 Q610.9063,242.375 613.4063,242.375 Q614.1094,242.375 614.75,242.5313 Q615.4063,242.6875 615.9688,242.9844 L615.9688,245.7031 Q615.3438,245.125 614.75,244.8594 Q614.1563,244.5781 613.5313,244.5781 Q612.1875,244.5781 611.5,245.6563 Q610.8125,246.7188 610.8125,248.8125 Q610.8125,250.9063 611.5,251.9844 Q612.1875,253.0469 613.5313,253.0469 Q614.1563,253.0469 614.75,252.7813 Q615.3438,252.5 615.9688,251.9219 L615.9688,254.6406 Z " fill="#000000"/><text fill="#000000" font-family="Verdana" font-size="14" lengthAdjust="spacing" textLength="96" x="625" y="254.5679">FlyWithWings</text><line style="stroke:#000000;stroke-width:1.0;" x1="601" x2="723" y1="263" y2="263"/><line style="stroke:#000000;stroke-width:1.0;" x1="601" x2="723" y1="271" y2="271"/><text fill="#000000" font-family="Verdana" font-size="14" lengthAdjust="spacing" textLength="28" x="606" y="289.0752">fly()</text></g><!--MD5=[6410b8339a4cc9c91c8268e1c245baa7]
class FlyNoWay--><g id="elem_FlyNoWay"><rect codeLine="52" fill="#FFFFFF" height="61.0146" id="FlyNoWay" rx="2.5" ry="2.5" style="stroke:#000000;stroke-width:1.0;" width="97" x="759.5" y="235"/><ellipse cx="772.5" cy="249" fill="#FFFFFF" rx="9" ry="9" style="stroke:#000000;stroke-width:1.0;"/><path d="M775.4688,254.6406 Q774.8906,254.9375 774.25,255.0781 Q773.6094,255.2344 772.9063,255.2344 Q770.4063,255.2344 769.0781,253.5938 Q767.7656,251.9375 767.7656,248.8125 Q767.7656,245.6875 769.0781,244.0313 Q770.4063,242.375 772.9063,242.375 Q773.6094,242.375 774.25,242.5313 Q774.9063,242.6875 775.4688,242.9844 L775.4688,245.7031 Q774.8438,245.125 774.25,244.8594 Q773.6563,244.5781 773.0313,244.5781 Q771.6875,244.5781 771,245.6563 Q770.3125,246.7188 770.3125,248.8125 Q770.3125,250.9063 771,251.9844 Q771.6875,253.0469 773.0313,253.0469 Q773.6563,253.0469 774.25,252.7813 Q774.8438,252.5 775.4688,251.9219 L775.4688,254.6406 Z " fill="#000000"/><text fill="#000000" font-family="Verdana" font-size="14" lengthAdjust="spacing" textLength="69" x="784.5" y="254.5679">FlyNoWay</text><line style="stroke:#000000;stroke-width:1.0;" x1="760.5" x2="855.5" y1="263" y2="263"/><line style="stroke:#000000;stroke-width:1.0;" x1="760.5" x2="855.5" y1="271" y2="271"/><text fill="#000000" font-family="Verdana" font-size="14" lengthAdjust="spacing" textLength="28" x="765.5" y="289.0752">fly()</text></g><!--MD5=[bfa3cda608d0a5fb34213275021c73a4]
class QuackBehavior--><g id="elem_QuackBehavior"><rect codeLine="56" fill="#FFFFFF" height="61.0146" id="QuackBehavior" rx="2.5" ry="2.5" style="stroke:#000000;stroke-width:1.0;" width="134" x="970" y="54.5"/><ellipse cx="983" cy="68.5" fill="#FFFFFF" rx="9" ry="9" style="stroke:#000000;stroke-width:1.0;"/><path d="M978.9219,64.2656 L978.9219,62.1094 L986.3125,62.1094 L986.3125,64.2656 L983.8438,64.2656 L983.8438,72.3438 L986.3125,72.3438 L986.3125,74.5 L978.9219,74.5 L978.9219,72.3438 L981.3906,72.3438 L981.3906,64.2656 L978.9219,64.2656 Z " fill="#000000"/><text fill="#000000" font-family="Verdana" font-size="14" font-style="italic" lengthAdjust="spacing" textLength="106" x="995" y="74.0679">QuackBehavior</text><line style="stroke:#000000;stroke-width:1.0;" x1="971" x2="1103" y1="82.5" y2="82.5"/><line style="stroke:#000000;stroke-width:1.0;" x1="971" x2="1103" y1="90.5" y2="90.5"/><text fill="#000000" font-family="Verdana" font-size="14" font-style="italic" lengthAdjust="spacing" textLength="54" x="976" y="108.5752">quack()</text></g><!--MD5=[12f74b7f21fbdaaa4e00aa09d95ebc8d]
class Quack--><g id="elem_Quack"><rect codeLine="60" fill="#FFFFFF" height="61.0146" id="Quack" rx="2.5" ry="2.5" style="stroke:#000000;stroke-width:1.0;" width="71" x="891.5" y="235"/><ellipse cx="904.5" cy="249" fill="#FFFFFF" rx="9" ry="9" style="stroke:#000000;stroke-width:1.0;"/><path d="M907.4688,254.6406 Q906.8906,254.9375 906.25,255.0781 Q905.6094,255.2344 904.9063,255.2344 Q902.4063,255.2344 901.0781,253.5938 Q899.7656,251.9375 899.7656,248.8125 Q899.7656,245.6875 901.0781,244.0313 Q902.4063,242.375 904.9063,242.375 Q905.6094,242.375 906.25,242.5313 Q906.9063,242.6875 907.4688,242.9844 L907.4688,245.7031 Q906.8438,245.125 906.25,244.8594 Q905.6563,244.5781 905.0313,244.5781 Q903.6875,244.5781 903,245.6563 Q902.3125,246.7188 902.3125,248.8125 Q902.3125,250.9063 903,251.9844 Q903.6875,253.0469 905.0313,253.0469 Q905.6563,253.0469 906.25,252.7813 Q906.8438,252.5 907.4688,251.9219 L907.4688,254.6406 Z " fill="#000000"/><text fill="#000000" font-family="Verdana" font-size="14" lengthAdjust="spacing" textLength="43" x="916.5" y="254.5679">Quack</text><line style="stroke:#000000;stroke-width:1.0;" x1="892.5" x2="961.5" y1="263" y2="263"/><line style="stroke:#000000;stroke-width:1.0;" x1="892.5" x2="961.5" y1="271" y2="271"/><text fill="#000000" font-family="Verdana" font-size="14" lengthAdjust="spacing" textLength="53" x="897.5" y="289.0752">quack()</text></g><!--MD5=[4c0469333dd1967f28b0c38893e7972b]
class Squack--><g id="elem_Squack"><rect codeLine="64" fill="#FFFFFF" height="61.0146" id="Squack" rx="2.5" ry="2.5" style="stroke:#000000;stroke-width:1.0;" width="79" x="997.5" y="235"/><ellipse cx="1010.5" cy="249" fill="#FFFFFF" rx="9" ry="9" style="stroke:#000000;stroke-width:1.0;"/><path d="M1013.4688,254.6406 Q1012.8906,254.9375 1012.25,255.0781 Q1011.6094,255.2344 1010.9063,255.2344 Q1008.4063,255.2344 1007.0781,253.5938 Q1005.7656,251.9375 1005.7656,248.8125 Q1005.7656,245.6875 1007.0781,244.0313 Q1008.4063,242.375 1010.9063,242.375 Q1011.6094,242.375 1012.25,242.5313 Q1012.9063,242.6875 1013.4688,242.9844 L1013.4688,245.7031 Q1012.8438,245.125 1012.25,244.8594 Q1011.6563,244.5781 1011.0313,244.5781 Q1009.6875,244.5781 1009,245.6563 Q1008.3125,246.7188 1008.3125,248.8125 Q1008.3125,250.9063 1009,251.9844 Q1009.6875,253.0469 1011.0313,253.0469 Q1011.6563,253.0469 1012.25,252.7813 Q1012.8438,252.5 1013.4688,251.9219 L1013.4688,254.6406 Z " fill="#000000"/><text fill="#000000" font-family="Verdana" font-size="14" lengthAdjust="spacing" textLength="51" x="1022.5" y="254.5679">Squack</text><line style="stroke:#000000;stroke-width:1.0;" x1="998.5" x2="1075.5" y1="263" y2="263"/><line style="stroke:#000000;stroke-width:1.0;" x1="998.5" x2="1075.5" y1="271" y2="271"/><text fill="#000000" font-family="Verdana" font-size="14" lengthAdjust="spacing" textLength="53" x="1003.5" y="289.0752">quack()</text></g><!--MD5=[432568b0773d3e78a5ae34e34696d249]
class MuteQuack--><g id="elem_MuteQuack"><rect codeLine="68" fill="#FFFFFF" height="61.0146" id="MuteQuack" rx="2.5" ry="2.5" style="stroke:#000000;stroke-width:1.0;" width="105" x="1111.5" y="235"/><ellipse cx="1124.5" cy="249" fill="#FFFFFF" rx="9" ry="9" style="stroke:#000000;stroke-width:1.0;"/><path d="M1127.4688,254.6406 Q1126.8906,254.9375 1126.25,255.0781 Q1125.6094,255.2344 1124.9063,255.2344 Q1122.4063,255.2344 1121.0781,253.5938 Q1119.7656,251.9375 1119.7656,248.8125 Q1119.7656,245.6875 1121.0781,244.0313 Q1122.4063,242.375 1124.9063,242.375 Q1125.6094,242.375 1126.25,242.5313 Q1126.9063,242.6875 1127.4688,242.9844 L1127.4688,245.7031 Q1126.8438,245.125 1126.25,244.8594 Q1125.6563,244.5781 1125.0313,244.5781 Q1123.6875,244.5781 1123,245.6563 Q1122.3125,246.7188 1122.3125,248.8125 Q1122.3125,250.9063 1123,251.9844 Q1123.6875,253.0469 1125.0313,253.0469 Q1125.6563,253.0469 1126.25,252.7813 Q1126.8438,252.5 1127.4688,251.9219 L1127.4688,254.6406 Z " fill="#000000"/><text fill="#000000" font-family="Verdana" font-size="14" lengthAdjust="spacing" textLength="77" x="1136.5" y="254.5679">MuteQuack</text><line style="stroke:#000000;stroke-width:1.0;" x1="1112.5" x2="1215.5" y1="263" y2="263"/><line style="stroke:#000000;stroke-width:1.0;" x1="1112.5" x2="1215.5" y1="271" y2="271"/><text fill="#000000" font-family="Verdana" font-size="14" lengthAdjust="spacing" textLength="53" x="1117.5" y="289.0752">quack()</text></g><!--MD5=[1775a266fce6dd61e422d78ff7eaf2f9]
reverse link Duck to MallarDuck--><g id="link_Duck_MallarDuck"><path codeLine="2" d="M182.55,170.5 C153.1,193.65 123.1,217.24 100.53,234.99 " fill="none" id="Duck-backto-MallarDuck" style="stroke:#000000;stroke-width:1.0;"/><polygon fill="none" points="178.28,164.95,198.32,158.09,186.93,175.95,178.28,164.95" style="stroke:#000000;stroke-width:1.0;"/></g><!--MD5=[01da43fa0165d7798d3533e9d981b537]
reverse link Duck to RedHeadDuck--><g id="link_Duck_RedHeadDuck"><path codeLine="3" d="M250.42,176.58 C241.17,197.74 231.97,218.79 224.89,234.99 " fill="none" id="Duck-backto-RedHeadDuck" style="stroke:#000000;stroke-width:1.0;"/><polygon fill="none" points="244.08,173.61,258.5,158.09,256.91,179.22,244.08,173.61" style="stroke:#000000;stroke-width:1.0;"/></g><!--MD5=[4fa56e32ebb0bad05c9f28ed45ec70ee]
reverse link Duck to RubberDuck--><g id="link_Duck_RubberDuck"><path codeLine="4" d="M329.13,176.7 C335.26,190.93 341.38,205.11 346.85,217.79 " fill="none" id="Duck-backto-RubberDuck" style="stroke:#000000;stroke-width:1.0;"/><polygon fill="none" points="322.59,179.23,321.1,158.09,335.45,173.68,322.59,179.23" style="stroke:#000000;stroke-width:1.0;"/></g><!--MD5=[229e783130190a934baefe35706d52a5]
reverse link Duck to DecoyDuck--><g id="link_Duck_DecoyDuck"><path codeLine="5" d="M395.53,170.85 C417.46,188.49 439.68,206.35 458.75,221.69 " fill="none" id="Duck-backto-DecoyDuck" style="stroke:#000000;stroke-width:1.0;"/><polygon fill="none" points="390.86,176.08,379.66,158.09,399.63,165.17,390.86,176.08" style="stroke:#000000;stroke-width:1.0;"/></g><!--MD5=[7b9ca3f548166b0df550cb500f51b1ea]
reverse link FlyBehavior to FlyWithWings--><g id="link_FlyBehavior_FlyWithWings"><path codeLine="7" d="M715.17,134.48 C702.07,166.53 685.3,207.52 674.14,234.82 " fill="none" id="FlyBehavior-backto-FlyWithWings" style="stroke:#000000;stroke-width:1.0;stroke-dasharray:7.0,7.0;"/><polygon fill="none" points="708.73,131.74,722.78,115.88,721.69,137.04,708.73,131.74" style="stroke:#000000;stroke-width:1.0;"/></g><!--MD5=[53e7f5881092792bc8176dd5d8b30cdf]
reverse link FlyBehavior to FlyNoWay--><g id="link_FlyBehavior_FlyNoWay"><path codeLine="8" d="M754.83,134.48 C767.93,166.53 784.7,207.52 795.86,234.82 " fill="none" id="FlyBehavior-backto-FlyNoWay" style="stroke:#000000;stroke-width:1.0;stroke-dasharray:7.0,7.0;"/><polygon fill="none" points="748.31,137.04,747.22,115.88,761.27,131.74,748.31,137.04" style="stroke:#000000;stroke-width:1.0;"/></g><!--MD5=[01c90da2bc64604ecacbeeddf2144a3c]
reverse link QuackBehavior to Quack--><g id="link_QuackBehavior_Quack"><path codeLine="10" d="M1007.96,133.12 C988.09,165.37 962.35,207.13 945.29,234.82 " fill="none" id="QuackBehavior-backto-Quack" style="stroke:#000000;stroke-width:1.0;stroke-dasharray:7.0,7.0;"/><polygon fill="none" points="1002.14,129.23,1018.59,115.88,1014.06,136.58,1002.14,129.23" style="stroke:#000000;stroke-width:1.0;"/></g><!--MD5=[10236bea3b2ecb62628bea377705238f]
reverse link QuackBehavior to Squack--><g id="link_QuackBehavior_Squack"><path codeLine="11" d="M1037,136.3 C1037,168.07 1037,208.04 1037,234.82 " fill="none" id="QuackBehavior-backto-Squack" style="stroke:#000000;stroke-width:1.0;stroke-dasharray:7.0,7.0;"/><polygon fill="none" points="1030,135.88,1037,115.88,1044,135.88,1030,135.88" style="stroke:#000000;stroke-width:1.0;"/></g><!--MD5=[23f42304ecdb2b0cc8730a9be7f75a88]
reverse link QuackBehavior to MuteQuack--><g id="link_QuackBehavior_MuteQuack"><path codeLine="12" d="M1069.89,132.22 C1092.92,164.59 1123,206.88 1142.89,234.82 " fill="none" id="QuackBehavior-backto-MuteQuack" style="stroke:#000000;stroke-width:1.0;stroke-dasharray:7.0,7.0;"/><polygon fill="none" points="1064.15,136.23,1058.26,115.88,1075.56,128.12,1064.15,136.23" style="stroke:#000000;stroke-width:1.0;"/></g><!--MD5=[18c9a358dd334979896d7d96d652b088]
@startuml
!theme plain
Duck <|- - MallarDuck
Duck <|- - RedHeadDuck
Duck <|- - RubberDuck
Duck <|- - DecoyDuck

FlyBehavior <|.. FlyWithWings
FlyBehavior <|.. FlyNoWay

QuackBehavior <|.. Quack
QuackBehavior <|.. Squack
QuackBehavior <|.. MuteQuack

class Duck {
  FlyBehavior flyBehavior
  QuackBehavior quackBehavior

  swim()
  {abstract} display()
  performQuack()
  performFly()
}

class MallarDuck {
  display()
}

class RedHeadDuck {
  dispaly()
}

class RubberDuck {
  quack()
  dispaly()
  fly()
}

class DecoyDuck {
  quack()
  dispaly()
  fly()
}

interface FlyBehavior {
  {abstract} fly()
}

class FlyWithWings {
  fly()
}

class FlyNoWay {
  fly()
}

interface QuackBehavior {
  {abstract} quack()
}

class Quack {
  quack()
}

class Squack {
  quack()
}

class MuteQuack {
  quack()
}

@enduml

@startuml







<style>
  root {
    BackgroundColor white
    FontColor black
    FontName Verdana
    HyperLinkColor blue
    LineColor black
    LineThickness 1
    Margin 5
  }
  caption {
    LineThickness 0
  }
  footer {
    LineThickness 0
  }
  header {
    LineThickness 0
  }
  node {
    MaximumWidth 300
  }
  title {
    FontSize 22
    LineThickness 0
  }
</style>

skinparam ArrowLollipopColor black
skinparam BackgroundColor white
skinparam DefaultFontName Verdana
skinparam DefaultMonospacedFontName Courier
skinparam LifelineStrategy nosolid
skinparam ParticipantPadding 10
skinparam SequenceLifeLineBorderColor black
skinparam Shadowing false
skinparam UseBetaStyle true

skinparam Activity {
  BackgroundColor white
  BarColor black
  BorderColor black
  FontColor black
  FontName Verdana
}
skinparam Boundary {
  FontColor black
}
skinparam Box {
  Padding 5
}
skinparam CircledCharacter {
  FontColor black
  FontName Courier
  Radius 9
}
skinparam Class {
  BackgroundColor white
  BorderColor black
  FontColor black
  FontName Verdana
}
skinparam ClassAttribute {
  FontColor black
  FontName Verdana
}
skinparam ClassStereotype {
  FontColor black
  FontName Verdana
}
skinparam Footer {
  FontColor black
  FontName Verdana
}
skinparam Header {
  FontColor black
  FontName Verdana
}
skinparam Hyperlink {
  Color blue
}
skinparam IconPackage {
  Color black
  BackgroundColor white
}
skinparam IconPrivate {
  Color black
  BackgroundColor white
}
skinparam IconProtected {
  Color black
  BackgroundColor white
}
skinparam IconPublic {
  Color black
  BackgroundColor white
}
skinparam Note {
  FontColor black
  FontName Verdana
}
skinparam Object {
  BorderColor black
}
skinparam Package {
  BorderColor black
  FontColor black
  FontName Verdana
}
skinparam State {
  BackgroundColor white
  BorderColor black
}
skinparam StereotypeA {
  BackgroundColor white
  BorderColor black
}
skinparam StereotypeC {
  BackgroundColor white
  BorderColor black
}
skinparam StereotypeE {
  BackgroundColor white
  BorderColor black
}
skinparam StereotypeI {
  BackgroundColor white
  BorderColor black
}
skinparam StereotypeN {
  BackgroundColor white
  BorderColor black
}
skinparam UseCaseStereoType {
  FontColor black
  FontName Verdana
}
Duck <|- - MallarDuck
Duck <|- - RedHeadDuck
Duck <|- - RubberDuck
Duck <|- - DecoyDuck

FlyBehavior <|.. FlyWithWings
FlyBehavior <|.. FlyNoWay

QuackBehavior <|.. Quack
QuackBehavior <|.. Squack
QuackBehavior <|.. MuteQuack

class Duck {
  FlyBehavior flyBehavior
  QuackBehavior quackBehavior

  swim()
  {abstract} display()
  performQuack()
  performFly()
}

class MallarDuck {
  display()
}

class RedHeadDuck {
  dispaly()
}

class RubberDuck {
  quack()
  dispaly()
  fly()
}

class DecoyDuck {
  quack()
  dispaly()
  fly()
}

interface FlyBehavior {
  {abstract} fly()
}

class FlyWithWings {
  fly()
}

class FlyNoWay {
  fly()
}

interface QuackBehavior {
  {abstract} quack()
}

class Quack {
  quack()
}

class Squack {
  quack()
}

class MuteQuack {
  quack()
}

@enduml

PlantUML version 1.2022.6(Wed Jun 22 01:34:49 CST 2022)
(GPL source distribution)
Java Runtime: OpenJDK Runtime Environment
JVM: OpenJDK 64-Bit Server VM
Default Encoding: UTF-8
Language: en
Country: US
--></g></svg>