<?xml version="1.0" encoding="UTF-8" standalone="no"?><svg xmlns="http://www.w3.org/2000/svg" xmlns:xlink="http://www.w3.org/1999/xlink" contentStyleType="text/css" height="235px" preserveAspectRatio="none" style="width:281px;height:235px;background:#FFFFFF;" version="1.1" viewBox="0 0 281 235" width="281px" zoomAndPan="magnify"><defs/><g><!--MD5=[ee80f128756adf0e95ba2af8ad3ecb8c]
class Duck--><g id="elem_Duck"><rect codeLine="5" fill="#FFFFFF" height="95.0439" id="Duck" rx="2.5" ry="2.5" style="stroke:#000000;stroke-width:1.0;" width="73" x="100.5" y="12"/><ellipse cx="118" cy="26" fill="#FFFFFF" rx="9" ry="9" style="stroke:#000000;stroke-width:1.0;"/><path d="M120.9688,31.6406 Q120.3906,31.9375 119.75,32.0781 Q119.1094,32.2344 118.4063,32.2344 Q115.9063,32.2344 114.5781,30.5938 Q113.2656,28.9375 113.2656,25.8125 Q113.2656,22.6875 114.5781,21.0313 Q115.9063,19.375 118.4063,19.375 Q119.1094,19.375 119.75,19.5313 Q120.4063,19.6875 120.9688,19.9844 L120.9688,22.7031 Q120.3438,22.125 119.75,21.8594 Q119.1563,21.5781 118.5313,21.5781 Q117.1875,21.5781 116.5,22.6563 Q115.8125,23.7188 115.8125,25.8125 Q115.8125,27.9063 116.5,28.9844 Q117.1875,30.0469 118.5313,30.0469 Q119.1563,30.0469 119.75,29.7813 Q120.3438,29.5 120.9688,28.9219 L120.9688,31.6406 Z " fill="#000000"/><text fill="#000000" font-family="Verdana" font-size="14" lengthAdjust="spacing" textLength="35" x="131" y="31.5679">Duck</text><line style="stroke:#000000;stroke-width:1.0;" x1="101.5" x2="172.5" y1="40" y2="40"/><line style="stroke:#000000;stroke-width:1.0;" x1="101.5" x2="172.5" y1="48" y2="48"/><text fill="#000000" font-family="Verdana" font-size="14" lengthAdjust="spacing" textLength="53" x="106.5" y="66.0752">quack()</text><text fill="#000000" font-family="Verdana" font-size="14" lengthAdjust="spacing" textLength="47" x="106.5" y="83.0898">swim()</text><text fill="#000000" font-family="Verdana" font-size="14" font-style="italic" lengthAdjust="spacing" textLength="61" x="106.5" y="100.1045">display()</text></g><!--MD5=[6b7aa2b48f699f84e43038c6d40cb339]
class MallarDuck--><g id="elem_MallarDuck"><rect codeLine="10" fill="#FFFFFF" height="61.0146" id="MallarDuck" rx="2.5" ry="2.5" style="stroke:#000000;stroke-width:1.0;" width="102" x="12" y="167"/><ellipse cx="25" cy="181" fill="#FFFFFF" rx="9" ry="9" style="stroke:#000000;stroke-width:1.0;"/><path d="M27.9688,186.6406 Q27.3906,186.9375 26.75,187.0781 Q26.1094,187.2344 25.4063,187.2344 Q22.9063,187.2344 21.5781,185.5938 Q20.2656,183.9375 20.2656,180.8125 Q20.2656,177.6875 21.5781,176.0313 Q22.9063,174.375 25.4063,174.375 Q26.1094,174.375 26.75,174.5313 Q27.4063,174.6875 27.9688,174.9844 L27.9688,177.7031 Q27.3438,177.125 26.75,176.8594 Q26.1563,176.5781 25.5313,176.5781 Q24.1875,176.5781 23.5,177.6563 Q22.8125,178.7188 22.8125,180.8125 Q22.8125,182.9063 23.5,183.9844 Q24.1875,185.0469 25.5313,185.0469 Q26.1563,185.0469 26.75,184.7813 Q27.3438,184.5 27.9688,183.9219 L27.9688,186.6406 Z " fill="#000000"/><text fill="#000000" font-family="Verdana" font-size="14" lengthAdjust="spacing" textLength="74" x="37" y="186.5679">MallarDuck</text><line style="stroke:#000000;stroke-width:1.0;" x1="13" x2="113" y1="195" y2="195"/><line style="stroke:#000000;stroke-width:1.0;" x1="13" x2="113" y1="203" y2="203"/><text fill="#000000" font-family="Verdana" font-size="14" lengthAdjust="spacing" textLength="60" x="18" y="221.0752">display()</text></g><!--MD5=[8c1b804012081e866bad5a3663c31c62]
class RedHeadDuck--><g id="elem_RedHeadDuck"><rect codeLine="13" fill="#FFFFFF" height="61.0146" id="RedHeadDuck" rx="2.5" ry="2.5" style="stroke:#000000;stroke-width:1.0;" width="125" x="149.5" y="167"/><ellipse cx="162.5" cy="181" fill="#FFFFFF" rx="9" ry="9" style="stroke:#000000;stroke-width:1.0;"/><path d="M165.4688,186.6406 Q164.8906,186.9375 164.25,187.0781 Q163.6094,187.2344 162.9063,187.2344 Q160.4063,187.2344 159.0781,185.5938 Q157.7656,183.9375 157.7656,180.8125 Q157.7656,177.6875 159.0781,176.0313 Q160.4063,174.375 162.9063,174.375 Q163.6094,174.375 164.25,174.5313 Q164.9063,174.6875 165.4688,174.9844 L165.4688,177.7031 Q164.8438,177.125 164.25,176.8594 Q163.6563,176.5781 163.0313,176.5781 Q161.6875,176.5781 161,177.6563 Q160.3125,178.7188 160.3125,180.8125 Q160.3125,182.9063 161,183.9844 Q161.6875,185.0469 163.0313,185.0469 Q163.6563,185.0469 164.25,184.7813 Q164.8438,184.5 165.4688,183.9219 L165.4688,186.6406 Z " fill="#000000"/><text fill="#000000" font-family="Verdana" font-size="14" lengthAdjust="spacing" textLength="97" x="174.5" y="186.5679">RedHeadDuck</text><line style="stroke:#000000;stroke-width:1.0;" x1="150.5" x2="273.5" y1="195" y2="195"/><line style="stroke:#000000;stroke-width:1.0;" x1="150.5" x2="273.5" y1="203" y2="203"/><text fill="#000000" font-family="Verdana" font-size="14" lengthAdjust="spacing" textLength="60" x="155.5" y="221.0752">dispaly()</text></g><!--MD5=[1775a266fce6dd61e422d78ff7eaf2f9]
reverse link Duck to MallarDuck--><g id="link_Duck_MallarDuck"><path codeLine="2" d="M101.73,125.32 C93.86,139.78 85.89,154.43 79.24,166.65 " fill="none" id="Duck-backto-MallarDuck" style="stroke:#000000;stroke-width:1.0;"/><polygon fill="none" points="95.83,121.53,111.53,107.3,108.12,128.22,95.83,121.53" style="stroke:#000000;stroke-width:1.0;"/></g><!--MD5=[01da43fa0165d7798d3533e9d981b537]
reverse link Duck to RedHeadDuck--><g id="link_Duck_RedHeadDuck"><path codeLine="3" d="M172.48,124.84 C180.54,139.45 188.73,154.3 195.54,166.65 " fill="none" id="Duck-backto-RedHeadDuck" style="stroke:#000000;stroke-width:1.0;"/><polygon fill="none" points="166.34,128.2,162.81,107.3,178.6,121.44,166.34,128.2" style="stroke:#000000;stroke-width:1.0;"/></g><!--MD5=[fcfc2396d113f7e52388c021b618fd0b]
@startuml
!theme plain
Duck <|- - MallarDuck
Duck <|- - RedHeadDuck

Class Duck {
  quack()
  swim()
  {abstract} display()
}
Class MallarDuck {
  display()
}
Class RedHeadDuck {
  dispaly()
}
@enduml

@startuml







<style>
  root {
    BackgroundColor white
    FontColor black
    FontName Verdana
    HyperLinkColor blue
    LineColor black
    LineThickness 1
    Margin 5
  }
  caption {
    LineThickness 0
  }
  footer {
    LineThickness 0
  }
  header {
    LineThickness 0
  }
  node {
    MaximumWidth 300
  }
  title {
    FontSize 22
    LineThickness 0
  }
</style>

skinparam ArrowLollipopColor black
skinparam BackgroundColor white
skinparam DefaultFontName Verdana
skinparam DefaultMonospacedFontName Courier
skinparam LifelineStrategy nosolid
skinparam ParticipantPadding 10
skinparam SequenceLifeLineBorderColor black
skinparam Shadowing false
skinparam UseBetaStyle true

skinparam Activity {
  BackgroundColor white
  BarColor black
  BorderColor black
  FontColor black
  FontName Verdana
}
skinparam Boundary {
  FontColor black
}
skinparam Box {
  Padding 5
}
skinparam CircledCharacter {
  FontColor black
  FontName Courier
  Radius 9
}
skinparam Class {
  BackgroundColor white
  BorderColor black
  FontColor black
  FontName Verdana
}
skinparam ClassAttribute {
  FontColor black
  FontName Verdana
}
skinparam ClassStereotype {
  FontColor black
  FontName Verdana
}
skinparam Footer {
  FontColor black
  FontName Verdana
}
skinparam Header {
  FontColor black
  FontName Verdana
}
skinparam Hyperlink {
  Color blue
}
skinparam IconPackage {
  Color black
  BackgroundColor white
}
skinparam IconPrivate {
  Color black
  BackgroundColor white
}
skinparam IconProtected {
  Color black
  BackgroundColor white
}
skinparam IconPublic {
  Color black
  BackgroundColor white
}
skinparam Note {
  FontColor black
  FontName Verdana
}
skinparam Object {
  BorderColor black
}
skinparam Package {
  BorderColor black
  FontColor black
  FontName Verdana
}
skinparam State {
  BackgroundColor white
  BorderColor black
}
skinparam StereotypeA {
  BackgroundColor white
  BorderColor black
}
skinparam StereotypeC {
  BackgroundColor white
  BorderColor black
}
skinparam StereotypeE {
  BackgroundColor white
  BorderColor black
}
skinparam StereotypeI {
  BackgroundColor white
  BorderColor black
}
skinparam StereotypeN {
  BackgroundColor white
  BorderColor black
}
skinparam UseCaseStereoType {
  FontColor black
  FontName Verdana
}
Duck <|- - MallarDuck
Duck <|- - RedHeadDuck

Class Duck {
  quack()
  swim()
  {abstract} display()
}
Class MallarDuck {
  display()
}
Class RedHeadDuck {
  dispaly()
}
@enduml

PlantUML version 1.2022.6(Wed Jun 22 01:34:49 CST 2022)
(GPL source distribution)
Java Runtime: OpenJDK Runtime Environment
JVM: OpenJDK 64-Bit Server VM
Default Encoding: UTF-8
Language: en
Country: US
--></g></svg>