<?xml version="1.0" encoding="UTF-8" standalone="no"?><svg xmlns="http://www.w3.org/2000/svg" xmlns:xlink="http://www.w3.org/1999/xlink" contentStyleType="text/css" height="350px" preserveAspectRatio="none" style="width:651px;height:350px;background:#FFFFFF;" version="1.1" viewBox="0 0 651 350" width="651px" zoomAndPan="magnify"><defs/><g><rect fill="#FFFFFF" height="36.7373" id="_title" style="stroke:#FFFFFF;stroke-width:0.0;" width="261" x="190.5" y="10"/><text fill="#000000" font-family="Verdana" font-size="22" font-weight="bold" lengthAdjust="spacing" textLength="251" x="195.5" y="37.1182">糖果机状态模式的UML图</text><!--MD5=[60d6b92408f98aed8df94d5c6e04aa63]
class State--><g id="elem_State"><rect codeLine="4" fill="#FFFFFF" height="112.0586" id="State" rx="2.5" ry="2.5" style="stroke:#000000;stroke-width:1.0;" width="118" x="251" y="59.7373"/><ellipse cx="287.85" cy="73.7373" fill="#FFFFFF" rx="9" ry="9" style="stroke:#000000;stroke-width:1.0;"/><path d="M283.7719,69.5029 L283.7719,67.3467 L291.1625,67.3467 L291.1625,69.5029 L288.6938,69.5029 L288.6938,77.5811 L291.1625,77.5811 L291.1625,79.7373 L283.7719,79.7373 L283.7719,77.5811 L286.2406,77.5811 L286.2406,69.5029 L283.7719,69.5029 Z " fill="#000000"/><text fill="#000000" font-family="Verdana" font-size="14" font-style="italic" lengthAdjust="spacing" textLength="37" x="305.15" y="79.3052">State</text><line style="stroke:#000000;stroke-width:1.0;" x1="252" x2="368" y1="87.7373" y2="87.7373"/><line style="stroke:#000000;stroke-width:1.0;" x1="252" x2="368" y1="95.7373" y2="95.7373"/><text fill="#000000" font-family="Verdana" font-size="14" lengthAdjust="spacing" textLength="106" x="257" y="113.8125">insertQuarter()</text><text fill="#000000" font-family="Verdana" font-size="14" lengthAdjust="spacing" textLength="100" x="257" y="130.8271">ejectQuarter()</text><text fill="#000000" font-family="Verdana" font-size="14" lengthAdjust="spacing" textLength="83" x="257" y="147.8418">turnCrank()</text><text fill="#000000" font-family="Verdana" font-size="14" lengthAdjust="spacing" textLength="74" x="257" y="164.8564">dispense()</text></g><!--MD5=[ef4a15166501b08e814ac0d8e9a2976d]
class SoldState--><g id="elem_SoldState"><rect codeLine="11" fill="#FFFFFF" height="112.0586" id="SoldState" rx="2.5" ry="2.5" style="stroke:#000000;stroke-width:1.0;" width="118" x="12" y="231.7373"/><ellipse cx="34.45" cy="245.7373" fill="#FFFFFF" rx="9" ry="9" style="stroke:#000000;stroke-width:1.0;"/><path d="M37.4188,251.3779 Q36.8406,251.6748 36.2,251.8154 Q35.5594,251.9717 34.8563,251.9717 Q32.3563,251.9717 31.0281,250.3311 Q29.7156,248.6748 29.7156,245.5498 Q29.7156,242.4248 31.0281,240.7686 Q32.3563,239.1123 34.8563,239.1123 Q35.5594,239.1123 36.2,239.2686 Q36.8563,239.4248 37.4188,239.7217 L37.4188,242.4404 Q36.7938,241.8623 36.2,241.5967 Q35.6063,241.3154 34.9813,241.3154 Q33.6375,241.3154 32.95,242.3936 Q32.2625,243.4561 32.2625,245.5498 Q32.2625,247.6436 32.95,248.7217 Q33.6375,249.7842 34.9813,249.7842 Q35.6063,249.7842 36.2,249.5186 Q36.7938,249.2373 37.4188,248.6592 L37.4188,251.3779 Z " fill="#000000"/><text fill="#000000" font-family="Verdana" font-size="14" lengthAdjust="spacing" textLength="69" x="48.55" y="251.3052">SoldState</text><line style="stroke:#000000;stroke-width:1.0;" x1="13" x2="129" y1="259.7373" y2="259.7373"/><line style="stroke:#000000;stroke-width:1.0;" x1="13" x2="129" y1="267.7373" y2="267.7373"/><text fill="#000000" font-family="Verdana" font-size="14" lengthAdjust="spacing" textLength="106" x="18" y="285.8125">insertQuarter()</text><text fill="#000000" font-family="Verdana" font-size="14" lengthAdjust="spacing" textLength="100" x="18" y="302.8271">ejectQuarter()</text><text fill="#000000" font-family="Verdana" font-size="14" lengthAdjust="spacing" textLength="83" x="18" y="319.8418">turnCrank()</text><text fill="#000000" font-family="Verdana" font-size="14" lengthAdjust="spacing" textLength="74" x="18" y="336.8564">dispense()</text></g><!--MD5=[fb0efd25cb3352a7987cdca3b1579da2]
class SoldOutState--><g id="elem_SoldOutState"><rect codeLine="18" fill="#FFFFFF" height="112.0586" id="SoldOutState" rx="2.5" ry="2.5" style="stroke:#000000;stroke-width:1.0;" width="123" x="165.5" y="231.7373"/><ellipse cx="178.5" cy="245.7373" fill="#FFFFFF" rx="9" ry="9" style="stroke:#000000;stroke-width:1.0;"/><path d="M181.4688,251.3779 Q180.8906,251.6748 180.25,251.8154 Q179.6094,251.9717 178.9063,251.9717 Q176.4063,251.9717 175.0781,250.3311 Q173.7656,248.6748 173.7656,245.5498 Q173.7656,242.4248 175.0781,240.7686 Q176.4063,239.1123 178.9063,239.1123 Q179.6094,239.1123 180.25,239.2686 Q180.9063,239.4248 181.4688,239.7217 L181.4688,242.4404 Q180.8438,241.8623 180.25,241.5967 Q179.6563,241.3154 179.0313,241.3154 Q177.6875,241.3154 177,242.3936 Q176.3125,243.4561 176.3125,245.5498 Q176.3125,247.6436 177,248.7217 Q177.6875,249.7842 179.0313,249.7842 Q179.6563,249.7842 180.25,249.5186 Q180.8438,249.2373 181.4688,248.6592 L181.4688,251.3779 Z " fill="#000000"/><text fill="#000000" font-family="Verdana" font-size="14" lengthAdjust="spacing" textLength="95" x="190.5" y="251.3052">SoldOutState</text><line style="stroke:#000000;stroke-width:1.0;" x1="166.5" x2="287.5" y1="259.7373" y2="259.7373"/><line style="stroke:#000000;stroke-width:1.0;" x1="166.5" x2="287.5" y1="267.7373" y2="267.7373"/><text fill="#000000" font-family="Verdana" font-size="14" lengthAdjust="spacing" textLength="106" x="171.5" y="285.8125">insertQuarter()</text><text fill="#000000" font-family="Verdana" font-size="14" lengthAdjust="spacing" textLength="100" x="171.5" y="302.8271">ejectQuarter()</text><text fill="#000000" font-family="Verdana" font-size="14" lengthAdjust="spacing" textLength="83" x="171.5" y="319.8418">turnCrank()</text><text fill="#000000" font-family="Verdana" font-size="14" lengthAdjust="spacing" textLength="74" x="171.5" y="336.8564">dispense()</text></g><!--MD5=[f6e3bc0dbc71c940b7bd3f539d7f09b8]
class NoQuarterState--><g id="elem_NoQuarterState"><rect codeLine="25" fill="#FFFFFF" height="112.0586" id="NoQuarterState" rx="2.5" ry="2.5" style="stroke:#000000;stroke-width:1.0;" width="139" x="323.5" y="231.7373"/><ellipse cx="336.5" cy="245.7373" fill="#FFFFFF" rx="9" ry="9" style="stroke:#000000;stroke-width:1.0;"/><path d="M339.4688,251.3779 Q338.8906,251.6748 338.25,251.8154 Q337.6094,251.9717 336.9063,251.9717 Q334.4063,251.9717 333.0781,250.3311 Q331.7656,248.6748 331.7656,245.5498 Q331.7656,242.4248 333.0781,240.7686 Q334.4063,239.1123 336.9063,239.1123 Q337.6094,239.1123 338.25,239.2686 Q338.9063,239.4248 339.4688,239.7217 L339.4688,242.4404 Q338.8438,241.8623 338.25,241.5967 Q337.6563,241.3154 337.0313,241.3154 Q335.6875,241.3154 335,242.3936 Q334.3125,243.4561 334.3125,245.5498 Q334.3125,247.6436 335,248.7217 Q335.6875,249.7842 337.0313,249.7842 Q337.6563,249.7842 338.25,249.5186 Q338.8438,249.2373 339.4688,248.6592 L339.4688,251.3779 Z " fill="#000000"/><text fill="#000000" font-family="Verdana" font-size="14" lengthAdjust="spacing" textLength="111" x="348.5" y="251.3052">NoQuarterState</text><line style="stroke:#000000;stroke-width:1.0;" x1="324.5" x2="461.5" y1="259.7373" y2="259.7373"/><line style="stroke:#000000;stroke-width:1.0;" x1="324.5" x2="461.5" y1="267.7373" y2="267.7373"/><text fill="#000000" font-family="Verdana" font-size="14" lengthAdjust="spacing" textLength="106" x="329.5" y="285.8125">insertQuarter()</text><text fill="#000000" font-family="Verdana" font-size="14" lengthAdjust="spacing" textLength="100" x="329.5" y="302.8271">ejectQuarter()</text><text fill="#000000" font-family="Verdana" font-size="14" lengthAdjust="spacing" textLength="83" x="329.5" y="319.8418">turnCrank()</text><text fill="#000000" font-family="Verdana" font-size="14" lengthAdjust="spacing" textLength="74" x="329.5" y="336.8564">dispense()</text></g><!--MD5=[800656e15f269834b820c871d077de99]
class HasQuarterState--><g id="elem_HasQuarterState"><rect codeLine="32" fill="#FFFFFF" height="112.0586" id="HasQuarterState" rx="2.5" ry="2.5" style="stroke:#000000;stroke-width:1.0;" width="146" x="498" y="231.7373"/><ellipse cx="511" cy="245.7373" fill="#FFFFFF" rx="9" ry="9" style="stroke:#000000;stroke-width:1.0;"/><path d="M513.9688,251.3779 Q513.3906,251.6748 512.75,251.8154 Q512.1094,251.9717 511.4063,251.9717 Q508.9063,251.9717 507.5781,250.3311 Q506.2656,248.6748 506.2656,245.5498 Q506.2656,242.4248 507.5781,240.7686 Q508.9063,239.1123 511.4063,239.1123 Q512.1094,239.1123 512.75,239.2686 Q513.4063,239.4248 513.9688,239.7217 L513.9688,242.4404 Q513.3438,241.8623 512.75,241.5967 Q512.1563,241.3154 511.5313,241.3154 Q510.1875,241.3154 509.5,242.3936 Q508.8125,243.4561 508.8125,245.5498 Q508.8125,247.6436 509.5,248.7217 Q510.1875,249.7842 511.5313,249.7842 Q512.1563,249.7842 512.75,249.5186 Q513.3438,249.2373 513.9688,248.6592 L513.9688,251.3779 Z " fill="#000000"/><text fill="#000000" font-family="Verdana" font-size="14" lengthAdjust="spacing" textLength="118" x="523" y="251.3052">HasQuarterState</text><line style="stroke:#000000;stroke-width:1.0;" x1="499" x2="643" y1="259.7373" y2="259.7373"/><line style="stroke:#000000;stroke-width:1.0;" x1="499" x2="643" y1="267.7373" y2="267.7373"/><text fill="#000000" font-family="Verdana" font-size="14" lengthAdjust="spacing" textLength="106" x="504" y="285.8125">insertQuarter()</text><text fill="#000000" font-family="Verdana" font-size="14" lengthAdjust="spacing" textLength="100" x="504" y="302.8271">ejectQuarter()</text><text fill="#000000" font-family="Verdana" font-size="14" lengthAdjust="spacing" textLength="83" x="504" y="319.8418">turnCrank()</text><text fill="#000000" font-family="Verdana" font-size="14" lengthAdjust="spacing" textLength="74" x="504" y="336.8564">dispense()</text></g><!--MD5=[af4fa344313b2a9c693a4db80a3bff66]
reverse link State to SoldState--><g id="link_State_SoldState"><path codeLine="39" d="M233.54,170.9473 C206.5,190.1273 175.89,211.8773 148,231.7373 C142.25,235.8373 136.25,240.1073 130.26,244.3773 " fill="none" id="State-backto-SoldState" style="stroke:#000000;stroke-width:1.0;stroke-dasharray:7.0,7.0;"/><polygon fill="none" points="229.13,165.4973,249.49,159.6273,237.23,176.9073,229.13,165.4973" style="stroke:#000000;stroke-width:1.0;"/></g><!--MD5=[afb734c7f3fd6dc3e8d3737631576b3c]
reverse link State to SoldOutState--><g id="link_State_SoldOutState"><path codeLine="40" d="M273.64,191.2073 C267.08,204.6573 260.34,218.4573 254.1,231.2373 " fill="none" id="State-backto-SoldOutState" style="stroke:#000000;stroke-width:1.0;stroke-dasharray:7.0,7.0;"/><polygon fill="none" points="267.32,188.1973,282.39,173.2873,279.9,194.3373,267.32,188.1973" style="stroke:#000000;stroke-width:1.0;"/></g><!--MD5=[0dd6101ec948bff0343e39dec4fba90d]
reverse link State to NoQuarterState--><g id="link_State_NoQuarterState"><path codeLine="41" d="M346.36,191.2073 C352.92,204.6573 359.66,218.4573 365.9,231.2373 " fill="none" id="State-backto-NoQuarterState" style="stroke:#000000;stroke-width:1.0;stroke-dasharray:7.0,7.0;"/><polygon fill="none" points="340.1,194.3373,337.61,173.2873,352.68,188.1973,340.1,194.3373" style="stroke:#000000;stroke-width:1.0;"/></g><!--MD5=[4df87360eb1adedb65cebd67bd02e05e]
reverse link State to HasQuarterState--><g id="link_State_HasQuarterState"><path codeLine="42" d="M386.87,166.8073 C421.83,189.5773 463.01,216.3973 497.55,238.8973 " fill="none" id="State-backto-HasQuarterState" style="stroke:#000000;stroke-width:1.0;stroke-dasharray:7.0,7.0;"/><polygon fill="none" points="383.43,172.9173,370.49,156.1373,391.07,161.1873,383.43,172.9173" style="stroke:#000000;stroke-width:1.0;"/></g><!--MD5=[b039e669ad65689c8124b929d675c8c6]
@startuml
!theme plain
title 糖果机状态模式的UML图

interface State {
  insertQuarter()
  ejectQuarter()
  turnCrank()
  dispense()
}

class SoldState {
  insertQuarter()
  ejectQuarter()
  turnCrank()
  dispense()
}

class SoldOutState {
  insertQuarter()
  ejectQuarter()
  turnCrank()
  dispense()
}

class NoQuarterState {
  insertQuarter()
  ejectQuarter()
  turnCrank()
  dispense()
}

class HasQuarterState {
  insertQuarter()
  ejectQuarter()
  turnCrank()
  dispense()
}

State <|.. SoldState
State <|.. SoldOutState
State <|.. NoQuarterState
State <|.. HasQuarterState

@enduml

@startuml







<style>
  root {
    BackgroundColor white
    FontColor black
    FontName Verdana
    HyperLinkColor blue
    LineColor black
    LineThickness 1
    Margin 5
  }
  caption {
    LineThickness 0
  }
  footer {
    LineThickness 0
  }
  header {
    LineThickness 0
  }
  node {
    MaximumWidth 300
  }
  title {
    FontSize 22
    LineThickness 0
  }
</style>

skinparam ArrowLollipopColor black
skinparam BackgroundColor white
skinparam DefaultFontName Verdana
skinparam DefaultMonospacedFontName Courier
skinparam LifelineStrategy nosolid
skinparam ParticipantPadding 10
skinparam SequenceLifeLineBorderColor black
skinparam Shadowing false
skinparam UseBetaStyle true

skinparam Activity {
  BackgroundColor white
  BarColor black
  BorderColor black
  FontColor black
  FontName Verdana
}
skinparam Boundary {
  FontColor black
}
skinparam Box {
  Padding 5
}
skinparam CircledCharacter {
  FontColor black
  FontName Courier
  Radius 9
}
skinparam Class {
  BackgroundColor white
  BorderColor black
  FontColor black
  FontName Verdana
}
skinparam ClassAttribute {
  FontColor black
  FontName Verdana
}
skinparam ClassStereotype {
  FontColor black
  FontName Verdana
}
skinparam Footer {
  FontColor black
  FontName Verdana
}
skinparam Header {
  FontColor black
  FontName Verdana
}
skinparam Hyperlink {
  Color blue
}
skinparam IconPackage {
  Color black
  BackgroundColor white
}
skinparam IconPrivate {
  Color black
  BackgroundColor white
}
skinparam IconProtected {
  Color black
  BackgroundColor white
}
skinparam IconPublic {
  Color black
  BackgroundColor white
}
skinparam Note {
  FontColor black
  FontName Verdana
}
skinparam Object {
  BorderColor black
}
skinparam Package {
  BorderColor black
  FontColor black
  FontName Verdana
}
skinparam State {
  BackgroundColor white
  BorderColor black
}
skinparam StereotypeA {
  BackgroundColor white
  BorderColor black
}
skinparam StereotypeC {
  BackgroundColor white
  BorderColor black
}
skinparam StereotypeE {
  BackgroundColor white
  BorderColor black
}
skinparam StereotypeI {
  BackgroundColor white
  BorderColor black
}
skinparam StereotypeN {
  BackgroundColor white
  BorderColor black
}
skinparam UseCaseStereoType {
  FontColor black
  FontName Verdana
}
title 糖果机状态模式的UML图

interface State {
  insertQuarter()
  ejectQuarter()
  turnCrank()
  dispense()
}

class SoldState {
  insertQuarter()
  ejectQuarter()
  turnCrank()
  dispense()
}

class SoldOutState {
  insertQuarter()
  ejectQuarter()
  turnCrank()
  dispense()
}

class NoQuarterState {
  insertQuarter()
  ejectQuarter()
  turnCrank()
  dispense()
}

class HasQuarterState {
  insertQuarter()
  ejectQuarter()
  turnCrank()
  dispense()
}

State <|.. SoldState
State <|.. SoldOutState
State <|.. NoQuarterState
State <|.. HasQuarterState

@enduml

PlantUML version 1.2022.7(Tue Aug 23 01:01:30 CST 2022)
(GPL source distribution)
Java Runtime: OpenJDK Runtime Environment
JVM: OpenJDK 64-Bit Server VM
Default Encoding: UTF-8
Language: en
Country: US
--></g></svg>