<?xml version="1.0" encoding="UTF-8" standalone="no"?><svg xmlns="http://www.w3.org/2000/svg" xmlns:xlink="http://www.w3.org/1999/xlink" contentStyleType="text/css" height="333px" preserveAspectRatio="none" style="width:322px;height:333px;background:#FFFFFF;" version="1.1" viewBox="0 0 322 333" width="322px" zoomAndPan="magnify"><defs/><g><rect fill="#FFFFFF" height="36.7373" id="_title" style="stroke:#FFFFFF;stroke-width:0.0;" width="142" x="85.5" y="10"/><text fill="#000000" font-family="Verdana" font-size="22" font-weight="bold" lengthAdjust="spacing" textLength="132" x="90.5" y="37.1182">抽象咖啡和茶</text><!--MD5=[8039907bb9346916162ed7fe3476fc60]
class CaffeineBeverage--><g id="elem_CaffeineBeverage"><rect codeLine="4" fill="#FFFFFF" height="129.0732" id="CaffeineBeverage" rx="2.5" ry="2.5" style="stroke:#000000;stroke-width:1.0;" width="150" x="88" y="59.7373"/><ellipse cx="101" cy="73.7373" fill="#FFFFFF" rx="9" ry="9" style="stroke:#000000;stroke-width:1.0;"/><path d="M101.1094,69.0811 L99.9531,74.1592 L102.2813,74.1592 L101.1094,69.0811 Z M99.625,66.8467 L102.6094,66.8467 L105.9688,79.2373 L103.5156,79.2373 L102.75,76.1748 L99.4688,76.1748 L98.7188,79.2373 L96.2813,79.2373 L99.625,66.8467 Z " fill="#000000"/><text fill="#000000" font-family="Verdana" font-size="14" font-style="italic" lengthAdjust="spacing" textLength="122" x="113" y="79.3052">CaffeineBeverage</text><line style="stroke:#000000;stroke-width:1.0;" x1="89" x2="237" y1="87.7373" y2="87.7373"/><line style="stroke:#000000;stroke-width:1.0;" x1="89" x2="237" y1="95.7373" y2="95.7373"/><text fill="#000000" font-family="Verdana" font-size="14" lengthAdjust="spacing" textLength="111" x="94" y="113.8125">prepareRecipe()</text><text fill="#000000" font-family="Verdana" font-size="14" lengthAdjust="spacing" textLength="79" x="94" y="130.8271">boilWater()</text><text fill="#000000" font-family="Verdana" font-size="14" lengthAdjust="spacing" textLength="87" x="94" y="147.8418">pourInCup()</text><text fill="#000000" font-family="Verdana" font-size="14" font-style="italic" lengthAdjust="spacing" textLength="46" x="94" y="164.8564">brew()</text><text fill="#000000" font-family="Verdana" font-size="14" font-style="italic" lengthAdjust="spacing" textLength="124" x="94" y="181.8711">addCondiments()</text></g><!--MD5=[9536a87e044ce6588050cb9af3778782]
class Coffee--><g id="elem_Coffee"><rect codeLine="11" fill="#FFFFFF" height="78.0293" id="Coffee" rx="2.5" ry="2.5" style="stroke:#000000;stroke-width:1.0;" width="134" x="12" y="248.7373"/><ellipse cx="52.75" cy="262.7373" fill="#FFFFFF" rx="9" ry="9" style="stroke:#000000;stroke-width:1.0;"/><path d="M55.7188,268.3779 Q55.1406,268.6748 54.5,268.8154 Q53.8594,268.9717 53.1563,268.9717 Q50.6563,268.9717 49.3281,267.3311 Q48.0156,265.6748 48.0156,262.5498 Q48.0156,259.4248 49.3281,257.7686 Q50.6563,256.1123 53.1563,256.1123 Q53.8594,256.1123 54.5,256.2686 Q55.1563,256.4248 55.7188,256.7217 L55.7188,259.4404 Q55.0938,258.8623 54.5,258.5967 Q53.9063,258.3154 53.2813,258.3154 Q51.9375,258.3154 51.25,259.3936 Q50.5625,260.4561 50.5625,262.5498 Q50.5625,264.6436 51.25,265.7217 Q51.9375,266.7842 53.2813,266.7842 Q53.9063,266.7842 54.5,266.5186 Q55.0938,266.2373 55.7188,265.6592 L55.7188,268.3779 Z " fill="#000000"/><text fill="#000000" font-family="Verdana" font-size="14" lengthAdjust="spacing" textLength="45" x="70.25" y="268.3052">Coffee</text><line style="stroke:#000000;stroke-width:1.0;" x1="13" x2="145" y1="276.7373" y2="276.7373"/><line style="stroke:#000000;stroke-width:1.0;" x1="13" x2="145" y1="284.7373" y2="284.7373"/><text fill="#000000" font-family="Verdana" font-size="14" lengthAdjust="spacing" textLength="46" x="18" y="302.8125">brew()</text><text fill="#000000" font-family="Verdana" font-size="14" lengthAdjust="spacing" textLength="122" x="18" y="319.8271">addCondiments()</text></g><!--MD5=[8252cd18dac1d78ee96cce0ec9ed80fb]
class Tea--><g id="elem_Tea"><rect codeLine="15" fill="#FFFFFF" height="78.0293" id="Tea" rx="2.5" ry="2.5" style="stroke:#000000;stroke-width:1.0;" width="134" x="181" y="248.7373"/><ellipse cx="231.75" cy="262.7373" fill="#FFFFFF" rx="9" ry="9" style="stroke:#000000;stroke-width:1.0;"/><path d="M234.7188,268.3779 Q234.1406,268.6748 233.5,268.8154 Q232.8594,268.9717 232.1563,268.9717 Q229.6563,268.9717 228.3281,267.3311 Q227.0156,265.6748 227.0156,262.5498 Q227.0156,259.4248 228.3281,257.7686 Q229.6563,256.1123 232.1563,256.1123 Q232.8594,256.1123 233.5,256.2686 Q234.1563,256.4248 234.7188,256.7217 L234.7188,259.4404 Q234.0938,258.8623 233.5,258.5967 Q232.9063,258.3154 232.2813,258.3154 Q230.9375,258.3154 230.25,259.3936 Q229.5625,260.4561 229.5625,262.5498 Q229.5625,264.6436 230.25,265.7217 Q230.9375,266.7842 232.2813,266.7842 Q232.9063,266.7842 233.5,266.5186 Q234.0938,266.2373 234.7188,265.6592 L234.7188,268.3779 Z " fill="#000000"/><text fill="#000000" font-family="Verdana" font-size="14" lengthAdjust="spacing" textLength="25" x="249.25" y="268.3052">Tea</text><line style="stroke:#000000;stroke-width:1.0;" x1="182" x2="314" y1="276.7373" y2="276.7373"/><line style="stroke:#000000;stroke-width:1.0;" x1="182" x2="314" y1="284.7373" y2="284.7373"/><text fill="#000000" font-family="Verdana" font-size="14" lengthAdjust="spacing" textLength="46" x="187" y="302.8125">brew()</text><text fill="#000000" font-family="Verdana" font-size="14" lengthAdjust="spacing" textLength="122" x="187" y="319.8271">addCondiments()</text></g><!--MD5=[c86d0bb505fcc5256aac100b2856777f]
reverse link CaffeineBeverage to Coffee--><g id="link_CaffeineBeverage_Coffee"><path codeLine="20" d="M120.36,207.2173 C112.86,221.6373 105.39,236.0073 98.9,248.4773 " fill="none" id="CaffeineBeverage-backto-Coffee" style="stroke:#000000;stroke-width:1.0;"/><polygon fill="none" points="114.36,203.5773,129.8,189.0673,126.78,210.0373,114.36,203.5773" style="stroke:#000000;stroke-width:1.0;"/></g><!--MD5=[45140c75b900cd65a93772287d16fa37]
reverse link CaffeineBeverage to Tea--><g id="link_CaffeineBeverage_Tea"><path codeLine="21" d="M206.15,207.2173 C213.74,221.6373 221.3,236.0073 227.86,248.4773 " fill="none" id="CaffeineBeverage-backto-Tea" style="stroke:#000000;stroke-width:1.0;"/><polygon fill="none" points="199.71,210.0273,196.59,189.0673,212.1,203.5073,199.71,210.0273" style="stroke:#000000;stroke-width:1.0;"/></g><!--MD5=[bbd57e0158b8a1ce627d74e8a9c89339]
@startuml
!theme plain
title 抽象咖啡和茶

abstract class CaffeineBeverage {
  prepareRecipe()
  boilWater()
  pourInCup()
  {abstract} brew()
  {abstract} addCondiments()
}
class Coffee {
  brew()
  addCondiments()
}
class Tea {
  brew()
  addCondiments()
}

CaffeineBeverage <|- - Coffee
CaffeineBeverage <|- - Tea

@enduml

@startuml







<style>
  root {
    BackgroundColor white
    FontColor black
    FontName Verdana
    HyperLinkColor blue
    LineColor black
    LineThickness 1
    Margin 5
  }
  caption {
    LineThickness 0
  }
  footer {
    LineThickness 0
  }
  header {
    LineThickness 0
  }
  node {
    MaximumWidth 300
  }
  title {
    FontSize 22
    LineThickness 0
  }
</style>

skinparam ArrowLollipopColor black
skinparam BackgroundColor white
skinparam DefaultFontName Verdana
skinparam DefaultMonospacedFontName Courier
skinparam LifelineStrategy nosolid
skinparam ParticipantPadding 10
skinparam SequenceLifeLineBorderColor black
skinparam Shadowing false
skinparam UseBetaStyle true

skinparam Activity {
  BackgroundColor white
  BarColor black
  BorderColor black
  FontColor black
  FontName Verdana
}
skinparam Boundary {
  FontColor black
}
skinparam Box {
  Padding 5
}
skinparam CircledCharacter {
  FontColor black
  FontName Courier
  Radius 9
}
skinparam Class {
  BackgroundColor white
  BorderColor black
  FontColor black
  FontName Verdana
}
skinparam ClassAttribute {
  FontColor black
  FontName Verdana
}
skinparam ClassStereotype {
  FontColor black
  FontName Verdana
}
skinparam Footer {
  FontColor black
  FontName Verdana
}
skinparam Header {
  FontColor black
  FontName Verdana
}
skinparam Hyperlink {
  Color blue
}
skinparam IconPackage {
  Color black
  BackgroundColor white
}
skinparam IconPrivate {
  Color black
  BackgroundColor white
}
skinparam IconProtected {
  Color black
  BackgroundColor white
}
skinparam IconPublic {
  Color black
  BackgroundColor white
}
skinparam Note {
  FontColor black
  FontName Verdana
}
skinparam Object {
  BorderColor black
}
skinparam Package {
  BorderColor black
  FontColor black
  FontName Verdana
}
skinparam State {
  BackgroundColor white
  BorderColor black
}
skinparam StereotypeA {
  BackgroundColor white
  BorderColor black
}
skinparam StereotypeC {
  BackgroundColor white
  BorderColor black
}
skinparam StereotypeE {
  BackgroundColor white
  BorderColor black
}
skinparam StereotypeI {
  BackgroundColor white
  BorderColor black
}
skinparam StereotypeN {
  BackgroundColor white
  BorderColor black
}
skinparam UseCaseStereoType {
  FontColor black
  FontName Verdana
}
title 抽象咖啡和茶

abstract class CaffeineBeverage {
  prepareRecipe()
  boilWater()
  pourInCup()
  {abstract} brew()
  {abstract} addCondiments()
}
class Coffee {
  brew()
  addCondiments()
}
class Tea {
  brew()
  addCondiments()
}

CaffeineBeverage <|- - Coffee
CaffeineBeverage <|- - Tea

@enduml

PlantUML version 1.2022.7(Tue Aug 23 01:01:30 CST 2022)
(GPL source distribution)
Java Runtime: OpenJDK Runtime Environment
JVM: OpenJDK 64-Bit Server VM
Default Encoding: UTF-8
Language: en
Country: US
--></g></svg>